<?xml version="1.0" encoding="UTF-8"?>
<svg height="100%" width="100%" xmlns="http://www.w3.org/2000/svg">
	<defs>
		<font horiz-adv-x="571" id="web">
			<font-face alphabetic="0" ascent="902" descent="-184" font-family="" panose-1="2 11 5 4 2 2 2 10 2 4"/>
			<missing-glyph d="M115 690H512V0H115ZM149 656V34H478V656Z" horiz-adv-x="600"/>
			<glyph d="" horiz-adv-x="221" unicode=" "/>
			<glyph d="M163 690H264L144 206H77ZM38 104H139L117 0H16Z" horiz-adv-x="242" unicode="!"/>
			<glyph d="M140 690H222L168 439H87ZM304 690H385L332 439H250Z" horiz-adv-x="341" unicode="&quot;"/>
			<glyph d="M287 690H360L291 489H423L492 690H564L495 489H607L592 423H472L424 283H536L522 216H401L327 0H254L329 216H197L123 0H50L124 216H14L29 283H147L195 423H85L99 489H218ZM268 423L220 283H352L400 423Z" horiz-adv-x="580" unicode="#"/>
			<glyph d="M323 741H391L374 659Q439 650 476 614T513 519Q513 497 511 485H428Q429 492 429 507Q429 542 411 561T358 586L315 385L330 383Q468 363 468 250Q468 218 458 191Q435 119 379 77T240 29L221 -59H153L172 30Q99 38 59 75T19 175Q19 193 22 214H105Q103 198 103 192Q103 117 188 105L233 315L228 316Q160 327 124 360T88 450Q88 475 95 500Q115 571 170 613T306 661ZM290 587Q245 581 216 558T179 499Q173 483 173 468Q173 437 191 420T250 395ZM298 306L256 105Q353 115 378 200Q382 216 382 233Q382 265 362 281T302 305Z" horiz-adv-x="516" unicode="$"/>
			<glyph d="M278 697Q337 697 369 670T401 593Q401 570 394 538L371 428Q354 346 313 306T203 266Q145 266 113 293T81 373Q81 400 88 431L112 541Q128 618 168 657T278 697ZM737 692H813L298 0H223ZM268 629Q235 629 217 606T189 533L168 435Q161 400 161 386Q161 334 214 334Q248 334 264 356T293 431L314 530Q320 559 320 578Q320 629 268 629ZM831 425Q890 425 921 398T953 321Q953 302 947 266L924 156Q906 74 865 34T756 -6Q697 -6 665 21T634 101Q634 128 641 159L664 269Q681 347 721 386T831 425ZM820 357Q787 357 770 335T741 261L720 162Q714 134 714 114Q714 61 766 61Q800 61 817 83T845 159L866 258Q873 291 873 306Q873 357 820 357Z" horiz-adv-x="997" unicode="%"/>
			<glyph d="M355 702Q423 702 465 667T508 570Q508 509 466 462T334 363L433 199L549 306L596 253L472 135L487 110Q498 93 512 85T547 78H570L554 0H517Q482 0 462 11T423 53L409 77Q353 30 304 9T203 -12Q123 -12 79 30T35 143Q35 215 81 271T225 385Q199 431 187 464T175 529Q175 577 197 616T261 679T355 702ZM351 631Q310 631 285 604T260 535Q260 512 268 487T298 423L301 425Q370 465 397 495T425 564Q425 595 404 613T351 631ZM261 324Q188 279 154 240T120 152Q120 112 145 88T216 65Q254 65 289 82T371 140Z" horiz-adv-x="662" unicode="&amp;"/>
			<glyph d="M140 690H222L168 439H87Z" horiz-adv-x="178" unicode="'"/>
			<glyph d="M294 740H360Q283 652 231 547T156 332Q138 248 138 164Q138 31 185 -84H120Q55 42 55 188Q55 262 70 332Q94 444 151 547T294 740Z" horiz-adv-x="311" unicode="("/>
			<glyph d="M157 740H222Q287 614 287 467Q287 396 272 324Q249 213 192 109T48 -84H-18Q59 4 111 109T186 324Q204 408 204 491Q204 624 157 740Z" horiz-adv-x="311" unicode=")"/>
			<glyph d="M271 690H324L303 591L412 644L429 600L319 551L409 502L381 459L286 513L264 407H211L233 511L124 459L106 502L218 552L128 600L157 643L250 590Z" horiz-adv-x="410" unicode="*"/>
			<glyph d="M222 480H303V316H466V236H303V72H222V236H58V316H222Z" horiz-adv-x="515" unicode="+"/>
			<glyph d="M17 106H99L61 -71L-37 -145Z" horiz-adv-x="179" unicode=","/>
			<glyph d="M82 387H391L374 306H65Z" horiz-adv-x="417" unicode="-"/>
			<glyph d="M37 107H141L118 0H15Z" horiz-adv-x="241" unicode="."/>
			<glyph d="M397 692H471L72 -10H-2Z" horiz-adv-x="432" unicode="/"/>
			<glyph d="M348 700Q435 700 485 657T536 532Q536 492 525 442L479 223Q455 107 395 48T236 -10Q149 -10 99 33T49 159Q49 200 60 250L106 470Q130 584 189 642T348 700ZM342 619Q279 619 245 579T192 449L151 258Q140 206 140 172Q140 71 242 71Q305 71 339 110T392 239L432 432Q444 483 444 520Q444 619 342 619Z" horiz-adv-x="546" unicode="0"/>
			<glyph d="M284 690H374L227 0H137L264 594L98 503L118 598Z" horiz-adv-x="363" unicode="1"/>
			<glyph d="M337 700Q425 700 476 658T528 545Q528 522 517 482Q506 441 476 403T394 316L147 80H434L417 0H2L18 73L340 374Q376 406 398 434T428 491Q435 518 435 537Q435 577 408 599T332 621Q278 621 243 594T199 518L196 501H107L111 522Q126 606 184 653T337 700Z" horiz-adv-x="526" unicode="2"/>
			<glyph d="M350 700Q436 700 485 662T534 558Q534 539 526 504Q514 452 480 416T397 365Q436 351 456 319T477 246Q477 216 469 179Q451 91 385 40T221 -10Q133 -10 83 26T34 129Q34 155 39 176H126Q123 163 123 151Q123 69 230 69Q291 69 329 98T379 180Q386 214 386 230Q386 317 277 317H233L250 397H289Q351 397 388 424T435 501Q440 526 440 540Q440 579 413 600T337 621Q278 621 246 594T203 511H117Q132 604 192 652T350 700Z" horiz-adv-x="546" unicode="3"/>
			<glyph d="M365 690H466L132 208H337L376 388H466L428 208H507L490 127H411L384 0H293L320 127H15L33 208Z" horiz-adv-x="559" unicode="4"/>
			<glyph d="M163 690H540L523 609H227L183 405Q204 426 238 439T313 452Q391 452 433 411T476 295Q476 265 469 234L460 191Q440 92 378 41T219 -10Q133 -10 85 26T38 127Q38 148 42 168H129L128 150Q128 110 154 89T228 69Q345 69 370 196L378 234Q383 255 383 283Q383 328 358 351T285 375Q245 375 214 357T165 307H82Z" horiz-adv-x="534" unicode="5"/>
			<glyph d="M373 690H475L241 394Q257 403 280 408T327 414Q402 414 446 372T490 257Q490 237 481 190Q461 95 393 42T229 -10Q138 -10 88 33T38 152Q38 181 47 220Q64 303 134 388ZM286 335Q229 335 189 303T137 215Q130 182 130 165Q130 120 159 94T241 69Q299 69 338 100T390 189Q392 198 395 213T398 240Q398 284 368 309T286 335Z" horiz-adv-x="549" unicode="6"/>
			<glyph d="M129 690H541L524 609L140 0H45L431 609H112Z" horiz-adv-x="485" unicode="7"/>
			<glyph d="M364 700Q450 700 500 658T551 550Q551 528 544 497Q535 450 503 414T421 361Q499 323 499 233Q499 216 491 178Q471 90 403 40T241 -10Q150 -10 97 34T44 152Q44 177 51 212Q63 268 100 308T194 366Q127 403 127 479Q127 494 129 508T133 528Q149 606 211 653T364 700ZM354 621Q303 621 267 595T222 525Q217 500 217 484Q217 446 244 423T321 401Q373 401 408 427T454 499Q460 531 460 539Q460 577 432 599T354 621ZM294 323Q235 323 194 293T141 210Q135 182 135 164Q135 120 165 94T251 69Q309 69 348 98T401 184Q408 211 408 228Q408 272 378 297T294 323Z" horiz-adv-x="568" unicode="8"/>
			<glyph d="M357 700Q448 700 499 656T550 537Q550 525 547 508T540 469Q532 427 510 386T453 302L214 0H112L346 296Q329 287 306 281T259 276Q183 276 140 318T97 434Q97 457 106 501Q125 596 192 648T357 700ZM346 621Q288 621 248 589T197 500Q189 465 189 449Q189 405 218 380T300 355Q358 355 398 386T451 474Q458 510 458 526Q458 571 428 596T346 621Z" horiz-adv-x="549" unicode="9"/>
			<glyph d="M16 107H120L97 0H-6ZM88 445H192L169 338H66Z" horiz-adv-x="200" unicode=":"/>
			<glyph d="M39 106H121L83 -71L-15 -145ZM88 445H192L169 338H66Z" horiz-adv-x="201" unicode=";"/>
			<glyph d="M454 476V392L157 275L454 159V75L45 240V312Z" horiz-adv-x="515" unicode="&lt;"/>
			<glyph d="M57 415H465V334H57ZM57 218H465V137H57Z" horiz-adv-x="515" unicode="="/>
			<glyph d="M70 476L478 312V240L70 75V159L366 275L70 392Z" horiz-adv-x="515" unicode="&gt;"/>
			<glyph d="M325 700Q407 700 453 662T499 558Q499 536 495 519Q488 482 467 451T409 389L329 319Q302 296 290 278T273 229L262 183H174L185 236Q194 280 210 306T265 364L331 422Q366 451 382 471T405 518Q410 533 410 546Q410 581 384 600T310 620Q199 620 178 518H90Q130 700 325 700ZM150 103H252L230 0H129Z" horiz-adv-x="483" unicode="?"/>
			<glyph d="M508 692Q607 692 682 656T799 554T840 402Q840 364 831 320L816 252Q796 155 742 105T620 55Q578 55 551 73T514 125Q493 91 458 73T380 55Q319 55 286 88T254 179Q254 205 260 236L278 319Q316 501 457 501Q531 501 561 447L569 491H648L587 203Q584 187 584 176Q584 149 597 136T634 123Q669 123 693 152T732 251L747 319Q757 364 757 403Q757 503 691 560T505 618Q361 618 271 541T151 319L137 251Q127 207 127 166Q127 63 191 4T373 -55Q436 -55 488 -42T596 -4L620 -69Q558 -101 497 -115T366 -130Q268 -130 195 -95T82 5T43 160Q43 202 53 248L67 317Q105 495 220 593T508 692ZM470 432Q382 432 359 318L342 242Q337 212 337 195Q337 124 404 124Q449 124 475 153T513 237L531 320Q536 340 536 362Q536 432 470 432Z" horiz-adv-x="871" unicode="@"/>
			<glyph d="M382 690H458L597 0H503L475 156H143L49 0H-50ZM398 578L190 233H461Z" horiz-adv-x="656" unicode="A"/>
			<glyph d="M166 690H457Q553 690 604 651T655 541Q655 475 615 424T509 355Q554 340 577 306T600 225Q600 155 565 104T468 27T324 0H19ZM240 610L194 392H388Q467 392 514 427T562 525Q562 569 533 589T447 610ZM176 312L127 80H329Q414 80 461 117T509 221Q509 312 385 312Z" horiz-adv-x="672" unicode="B"/>
			<glyph d="M420 701Q534 701 597 650T661 511Q661 487 659 474H568Q569 484 569 498Q569 556 529 588T413 620Q318 620 262 569T183 404L159 292Q150 252 150 219Q150 146 193 109T318 72Q397 72 448 108T515 217H604Q579 108 502 49T310 -10Q194 -10 127 46T60 209Q60 249 69 295L94 410Q125 560 206 630T420 701Z" horiz-adv-x="674" unicode="C"/>
			<glyph d="M166 690H410Q526 690 590 637T655 480Q655 440 644 388L623 287Q591 138 509 69T293 0H19ZM240 609L127 81H302Q398 81 453 130T532 290L553 388Q563 438 563 469Q563 540 522 574T398 609Z" horiz-adv-x="676" unicode="D"/>
			<glyph d="M166 690H645L628 609H240L193 390H527L510 310H176L127 81H516L498 0H19Z" horiz-adv-x="604" unicode="E"/>
			<glyph d="M166 690H645L628 609H240L193 387H526L509 307H176L110 0H19Z" horiz-adv-x="589" unicode="F"/>
			<glyph d="M420 701Q533 701 596 650T660 512Q660 503 658 475H568V500Q568 557 528 588T414 620Q319 620 263 569T183 404L159 292Q150 252 150 217Q150 145 192 108T315 72Q396 72 448 110T517 229L528 281H344L361 358H634L609 235Q583 111 505 50T310 -10Q194 -10 127 46T60 209Q60 249 69 295L94 410Q125 560 206 630T420 701Z" horiz-adv-x="673" unicode="G"/>
			<glyph d="M166 690H257L194 392H548L611 690H702L555 0H465L531 312H176L110 0H19Z" horiz-adv-x="683" unicode="H"/>
			<glyph d="M173 690H264L117 0H27Z" horiz-adv-x="253" unicode="I"/>
			<glyph d="M267 690H358L244 154Q228 76 181 38T58 0H-25L-7 81H55Q101 81 123 100T157 167Z" horiz-adv-x="347" unicode="J"/>
			<glyph d="M166 690H257L176 310L601 690H723L406 412L603 0H500L339 352L150 186L110 0H19Z" horiz-adv-x="665" unicode="K"/>
			<glyph d="M166 690H257L127 81H512L495 0H20Z" horiz-adv-x="579" unicode="L"/>
			<glyph d="M166 690H257L407 242L740 690H841L694 0H603L714 522L423 136H357L222 525L110 0H19Z" horiz-adv-x="822" unicode="M"/>
			<glyph d="M166 690H257L532 148L647 690H737L590 0H500L225 541L110 0H19Z" horiz-adv-x="718" unicode="N"/>
			<glyph d="M415 701Q528 701 594 645T661 483Q661 444 652 396L628 281Q596 132 515 61T307 -10Q192 -10 126 46T60 208Q60 249 69 295L94 410Q125 560 205 630T415 701ZM410 620Q317 620 262 569T183 404L159 292Q150 252 150 218Q150 145 192 108T313 72Q404 72 458 122T537 283L561 394Q570 438 570 471Q570 545 528 582T410 620Z" horiz-adv-x="682" unicode="O"/>
			<glyph d="M166 688H455Q554 688 605 646T657 520Q657 447 623 392T527 306T382 276H169L110 0H19ZM239 607L186 356H384Q469 356 517 396T566 509Q566 560 534 583T439 607Z" horiz-adv-x="636" unicode="P"/>
			<glyph d="M415 701Q528 701 594 645T661 483Q661 444 652 396L628 281Q589 94 467 26L515 -118L435 -152L386 -2Q353 -10 307 -10Q192 -10 126 46T60 208Q60 249 69 295L94 410Q125 560 205 630T415 701ZM410 620Q317 620 262 569T183 404L159 292Q150 252 150 218Q150 145 192 108T313 72Q404 72 458 122T537 283L561 394Q570 438 570 471Q570 545 528 582T410 620Z" horiz-adv-x="682" unicode="Q"/>
			<glyph d="M166 690H459Q556 690 607 649T659 528Q659 439 604 377T454 297L570 0H469L363 291H172L110 0H19ZM240 609L189 370H390Q472 370 519 408T567 515Q567 563 536 586T444 609Z" horiz-adv-x="662" unicode="R"/>
			<glyph d="M375 699Q479 699 541 656T604 530Q604 512 603 503H514Q516 519 516 525Q516 575 477 598T370 622Q283 622 232 586T182 489Q182 449 210 427T300 398L380 387Q468 376 512 336T556 226Q556 115 475 54T257 -6Q145 -6 80 38T16 166Q16 176 18 200H106Q105 193 105 181Q105 73 263 73Q358 73 412 109T466 213Q466 255 437 277T348 308L273 318Q181 329 137 368T93 476Q93 581 170 640T375 699Z" horiz-adv-x="610" unicode="S"/>
			<glyph d="M100 690H631L614 609H393L264 0H174L303 609H83Z" horiz-adv-x="546" unicode="T"/>
			<glyph d="M166 690H257L164 252Q158 225 158 201Q158 139 197 106T313 74Q401 74 453 117T524 248L618 690H709L613 240Q588 123 508 58T305 -6Q194 -6 130 46T66 192Q66 216 73 253Z" horiz-adv-x="690" unicode="U"/>
			<glyph d="M97 690H191L269 128L585 690H683L280 0H207Z" horiz-adv-x="595" unicode="V"/>
			<glyph d="M97 690H185L221 129L486 690H598L634 129L899 690H991L648 0H563L522 582L236 0H151Z" horiz-adv-x="903" unicode="W"/>
			<glyph d="M117 690H222L355 430L590 690H706L396 359L583 0H477L330 291L67 0H-50L289 362Z" horiz-adv-x="642" unicode="X"/>
			<glyph d="M97 690H198L308 362L555 690H661L338 281L278 0H188L249 287Z" horiz-adv-x="573" unicode="Y"/>
			<glyph d="M141 690H621L604 610L107 81H498L481 0H-17L0 81L497 610H125Z" horiz-adv-x="572" unicode="Z"/>
			<glyph d="M177 740H373L355 659H248L107 -3H215L197 -84H1Z" horiz-adv-x="324" unicode="["/>
			<glyph d="M147 692H218L321 -10H249Z" horiz-adv-x="431" unicode="\"/>
			<glyph d="M157 740H353L178 -84H-18L-1 -3H107L248 659H140Z" horiz-adv-x="324" unicode="]"/>
			<glyph d="M227 692H300L471 281H399L263 611L128 281H55Z" horiz-adv-x="515" unicode="^"/>
			<glyph d="M-64 -50H466L453 -109H-78Z" horiz-adv-x="530" unicode="_"/>
			<glyph d="M192 704H298L384 577H308Z" horiz-adv-x="494" unicode="`"/>
			<glyph d="M302 520Q356 520 395 499T456 440L471 511H555L447 0H363L377 63Q315 -9 219 -9Q140 -9 91 37T43 170Q43 204 50 239L63 301Q86 411 148 465T302 520ZM303 444Q244 444 204 409T148 295L135 238Q130 212 130 182Q130 124 161 95T244 67Q310 67 351 107T408 219L420 272Q425 296 425 325Q425 381 392 412T303 444Z" horiz-adv-x="570" unicode="a"/>
			<glyph d="M161 690H246L195 448Q258 521 349 521Q429 521 478 475T527 344Q527 310 520 275L507 213Q485 103 422 47T269 -9Q162 -9 113 70L98 0H14ZM325 444Q261 444 218 402T161 291L148 229Q143 204 143 185Q143 130 175 98T266 67Q326 67 365 102T422 217L435 274Q441 306 441 330Q441 388 409 416T325 444Z" horiz-adv-x="570" unicode="b"/>
			<glyph d="M319 520Q409 520 462 479T516 360Q516 345 515 335H431L432 350Q432 444 315 444Q248 444 206 409T147 293L135 239Q129 208 129 183Q129 67 256 67Q315 67 352 94T399 175H482Q469 90 408 40T251 -9Q157 -9 100 36T44 175Q44 205 51 241L63 300Q86 410 151 465T319 520Z" horiz-adv-x="554" unicode="c"/>
			<glyph d="M508 690H594L447 0H363L376 63Q316 -9 219 -9Q140 -9 91 37T43 170Q43 204 50 239L63 301Q86 411 147 465T300 520Q354 520 394 500T456 440ZM303 444Q244 444 204 409T148 295L135 238Q130 213 130 182Q130 124 161 95T244 67Q310 67 351 107T408 219L420 272Q425 296 425 325Q425 381 392 412T303 444Z" horiz-adv-x="570" unicode="d"/>
			<glyph d="M318 520Q410 520 463 475T516 348Q516 314 509 280L501 236H136Q129 207 129 179Q129 120 163 93T256 66Q312 66 347 90T395 161H481Q464 79 404 35T251 -9Q158 -9 101 37T44 173Q44 205 52 245L63 299Q85 409 151 464T318 520ZM313 445Q249 445 206 410T148 298H428L430 311Q434 330 434 348Q434 396 402 420T313 445Z" horiz-adv-x="558" unicode="e"/>
			<glyph d="M354 690H419L405 627H359Q318 627 296 610T267 554L258 511H381L368 447H244L150 0H65L159 447H86L100 511H173L181 550Q211 690 354 690Z" horiz-adv-x="362" unicode="f"/>
			<glyph d="M301 522Q355 522 395 501T457 442L472 513H557L456 39Q436 -56 371 -108T199 -160Q105 -160 55 -123T6 -16H90Q92 -52 121 -70T210 -89Q279 -89 317 -58T370 36L382 93Q324 21 225 21Q145 21 97 66T49 195Q49 229 56 263L65 305Q86 414 148 468T301 522ZM304 446Q245 446 205 412T149 300L141 262Q135 234 135 209Q135 153 167 125T251 97Q316 97 357 137T414 244L421 278Q427 301 427 330Q427 384 394 415T304 446Z" unicode="g"/>
			<glyph d="M161 690H245L193 444Q257 517 360 517Q436 517 478 478T521 370Q521 344 513 304L448 0H363L425 292Q432 331 432 349Q432 394 404 417T327 441Q262 441 219 401T160 287L99 0H14Z" unicode="h"/>
			<glyph d="M168 690H256L236 597H148ZM133 511H217L109 0H25Z" horiz-adv-x="239" unicode="i"/>
			<glyph d="M167 695H255L235 602H147ZM131 511H216L106 -3Q89 -79 44 -116T-78 -153H-136L-120 -78H-74Q-31 -78 -8 -59T23 3Z" horiz-adv-x="238" unicode="j"/>
			<glyph d="M161 690H246L154 260L450 511H566L325 311L481 0H384L261 258L131 150L99 0H14Z" horiz-adv-x="553" unicode="k"/>
			<glyph d="M161 690H246L133 160Q128 139 128 123Q128 98 143 87T194 76H240L225 0H166Q102 0 71 24T40 99Q40 123 47 155Z" horiz-adv-x="302" unicode="l"/>
			<glyph d="M358 517Q414 517 452 493T504 426Q546 475 592 496T694 517Q771 517 814 478T857 370Q857 344 849 304L783 0H698L761 292Q768 325 768 348Q768 393 741 417T668 441Q603 441 561 401T503 289L442 0H356L418 292Q426 329 426 348Q426 393 399 417T326 441Q263 441 220 401T161 287L100 0H15L123 511H207L192 444Q224 479 266 498T358 517Z" horiz-adv-x="907" unicode="m"/>
			<glyph d="M361 517Q437 517 479 478T522 370Q522 343 513 304L448 0H363L425 292Q433 329 433 349Q433 394 406 417T329 441Q264 441 220 401T161 287L100 0H15L123 511H207L192 444Q257 517 361 517Z" unicode="n"/>
			<glyph d="M317 520Q409 520 465 475T521 341Q521 311 513 273L500 211Q478 101 412 46T248 -9Q156 -9 100 36T44 171Q44 204 51 239L63 301Q86 410 151 465T317 520ZM310 444Q246 444 205 409T147 293L135 236Q129 205 129 181Q129 122 163 94T256 67Q319 67 359 102T416 219L428 275Q434 301 434 331Q434 390 401 417T310 444Z" horiz-adv-x="564" unicode="o"/>
			<glyph d="M351 520Q431 520 479 474T528 343Q528 310 521 275L508 211Q485 102 423 46T270 -9Q163 -9 115 72L66 -156H-19L123 511H208L194 448Q259 520 351 520ZM326 444Q262 444 219 402T161 291L149 232Q144 211 144 186Q144 131 176 99T266 67Q391 67 423 217L435 274Q441 304 441 328Q441 386 409 415T326 444Z" unicode="p"/>
			<glyph d="M300 520Q355 520 395 500T456 440L471 511H555L414 -156H329L375 63Q316 -9 219 -9Q140 -9 91 37T43 170Q43 204 50 239L63 301Q86 411 148 465T300 520ZM302 444Q181 444 148 295L135 238Q130 213 130 182Q130 124 161 95T244 67Q310 67 351 107T408 219L420 272Q425 296 425 324Q425 380 392 412T302 444Z" horiz-adv-x="570" unicode="q"/>
			<glyph d="M364 519Q389 519 409 516L391 433Q366 442 331 442Q267 442 222 402T161 289L100 0H15L123 511H207L191 441Q256 519 364 519Z" horiz-adv-x="377" unicode="r"/>
			<glyph d="M292 518Q390 518 440 478T491 364H411Q411 449 286 449Q225 449 190 425T155 361Q155 335 174 321T235 302L311 292T422 252T458 167Q458 86 396 40T227 -6Q129 -6 75 34T21 155H101Q102 65 231 65Q296 65 334 89T373 156Q373 186 352 199T287 219L213 229Q141 237 106 266T71 349Q71 428 130 473T292 518Z" horiz-adv-x="518" unicode="s"/>
			<glyph d="M297 658L266 511H396L383 447H252L191 159Q186 138 186 119Q186 96 200 85T246 74H293L277 0H219Q159 0 128 25T98 99Q98 119 105 155L167 447H76L89 511H181L205 623Z" horiz-adv-x="391" unicode="t"/>
			<glyph d="M123 511H208L146 218Q138 180 138 161Q138 68 250 68Q318 68 355 101T407 207L472 511H557L491 202Q447 -8 243 -8Q152 -8 102 33T53 150Q53 180 60 215Z" unicode="u"/>
			<glyph d="M67 511H156L220 107L454 511H549L237 0H161Z" horiz-adv-x="507" unicode="v"/>
			<glyph d="M67 511H155L198 111L421 511H492L547 111L758 511H851L565 0H487L434 397L213 0H135Z" horiz-adv-x="809" unicode="w"/>
			<glyph d="M81 511H170L260 328L422 511H519L291 263L420 0H332L234 200L57 0H-41L201 267Z" horiz-adv-x="488" unicode="x"/>
			<glyph d="M67 511H157L226 110L456 511H550L209 -56Q180 -106 137 -129T34 -153H-9L7 -76H46Q88 -76 111 -63T152 -19L167 7Z" horiz-adv-x="508" unicode="y"/>
			<glyph d="M108 511H499L483 436L121 75H406L390 0H0L16 75L377 436H92Z" horiz-adv-x="498" unicode="z"/>
			<glyph d="M361 740H428L412 667H368Q338 667 322 655T301 615L266 451Q254 396 234 369T177 330Q200 321 210 305T221 264Q221 240 214 209L180 49Q176 30 176 21Q176 4 188 -3T227 -11H268L253 -84H190Q88 -84 88 -6Q88 7 93 37L130 211Q133 229 133 242Q133 268 116 279T61 292L78 369Q126 370 149 388T181 450L218 623Q231 683 266 711T361 740Z" horiz-adv-x="379" unicode="{"/>
			<glyph d="M210 740H292V-83H210Z" horiz-adv-x="471" unicode="|"/>
			<glyph d="M211 740H274Q376 740 376 661Q376 642 371 619L335 449Q331 433 331 418Q331 392 348 380T404 368L386 291Q338 290 315 271T283 210L246 33Q233 -27 198 -55T103 -84H35L51 -11H95Q126 -11 141 0T163 41L198 208Q210 264 229 290T286 329Q264 338 253 353T243 396Q243 421 250 450L284 607Q287 622 287 635Q287 652 275 659T237 667H195Z" horiz-adv-x="487" unicode="}"/>
			<glyph d="M179 344Q204 344 224 335T272 310Q295 296 309 289T341 283Q364 283 381 296T416 341L474 305Q452 257 417 232T341 207Q316 207 295 216T248 242Q225 256 210 262T180 269Q157 269 140 256T105 210L47 246Q69 294 103 319T179 344Z" horiz-adv-x="515" unicode="~"/>
			<glyph d="" horiz-adv-x="221" unicode=" "/>
			<glyph d="M124 511H227L205 406H102ZM98 305H165L85 -153H-16Z" horiz-adv-x="242" unicode="¡"/>
			<glyph d="M322 610H385L365 517Q435 507 475 467T516 360Q516 345 515 335H431L432 350Q432 430 349 442L269 67Q323 70 356 97T399 175H482Q469 90 408 41T252 -9L233 -100H171L191 -4Q123 9 83 54T44 175Q44 205 51 241L63 300Q85 405 146 460T303 520ZM286 442Q232 436 197 400T147 293L135 239Q129 208 129 183Q129 92 208 72Z" horiz-adv-x="554" unicode="¢"/>
			<glyph d="M373 700Q444 700 484 668T525 579Q525 556 520 537H433Q436 549 436 561Q436 589 416 604T360 619Q271 619 250 519L218 366H384L367 286H201L180 186Q165 116 121 82H427L410 0H-2L15 76Q45 89 61 112T86 176L109 286H37L54 366H126L157 511Q177 602 231 651T373 700Z" horiz-adv-x="494" unicode="£"/>
			<glyph d="M185 558L239 492Q290 523 354 523Q418 523 466 488L548 556L591 501L508 433Q522 402 522 366Q522 322 507 280T464 208L518 141L455 87L401 155Q348 124 286 124Q219 124 175 159L91 90L48 145L133 214Q119 245 119 281Q119 323 134 364T176 437L122 506ZM343 450Q301 450 267 428T213 371T194 294Q194 250 222 223T298 197Q339 197 373 218T426 274T446 352Q446 396 418 423T343 450Z" horiz-adv-x="611" unicode="¤"/>
			<glyph d="M101 690H200L288 378L503 690H609L348 339H488L473 273H312L298 209H460L446 143H285L254 0H164L194 143H33L47 209H208L222 273H61L75 339H215Z" horiz-adv-x="526" unicode="¥"/>
			<glyph d="M210 740H292V388H210ZM210 271H292V-83H210Z" horiz-adv-x="471" unicode="¦"/>
			<glyph d="M371 715Q447 715 489 683T531 595Q531 573 527 553H445Q448 567 448 577Q448 607 426 623T361 639Q309 639 278 613T247 542Q247 510 273 492T363 459Q424 443 458 411T493 323Q493 301 487 275Q476 215 439 174T349 119Q412 89 412 25Q412 10 407 -15Q392 -86 336 -127T196 -168Q117 -168 72 -136T28 -46Q28 -29 33 -2H115Q112 -16 112 -28Q112 -92 202 -92Q252 -92 282 -72T321 -14Q323 -5 323 8Q323 41 296 59T203 92Q146 105 109 138T73 229Q73 249 78 277Q90 336 126 377T218 433Q159 465 159 532Q159 585 186 627T262 692T371 715ZM306 384Q248 384 211 356T164 277Q160 255 160 246Q160 209 186 188T260 168Q318 168 354 195T402 274Q405 291 405 305Q405 343 379 363T306 384Z" horiz-adv-x="557" unicode="§"/>
			<glyph d="M190 676H276L256 581H170ZM402 676H487L468 581H382Z" horiz-adv-x="500" unicode="¨"/>
			<glyph d="M432 691Q533 691 611 647T732 523T775 341Q775 238 732 158T611 34T432 -10Q330 -10 252 34T131 158T88 341Q88 444 131 523T252 647T432 691ZM432 631Q347 631 284 595T186 494T152 341Q152 254 186 188T284 86T432 51Q517 51 580 86T677 188T711 341Q711 428 676 494T579 595T432 631ZM434 536Q506 536 548 501T591 405V402H526V404Q526 439 502 458T436 478Q333 478 333 364V320Q333 259 360 232T437 205Q479 205 502 224T526 279V282H590V278Q590 218 548 183T434 148Q358 148 313 191T268 318V366Q268 450 313 493T434 536Z" horiz-adv-x="827" unicode="©"/>
			<glyph d="M234 748Q296 748 323 703L331 743H397L331 429H264L272 466Q242 424 181 424Q134 424 107 451T80 528Q80 553 85 572L93 612Q106 680 142 714T234 748ZM242 687Q209 687 189 668T160 609L152 572Q148 550 148 542Q148 514 163 499T206 485Q241 485 263 506T293 567L300 601Q303 612 303 629Q303 656 287 671T242 687ZZ" horiz-adv-x="343" unicode="ª"/>
			<glyph d="M300 471L280 377L127 263L231 149L212 57L25 264ZM524 471L504 377L352 263L456 149L436 57L249 264Z" horiz-adv-x="547" unicode="«"/>
			<glyph d="M50 338H459V127H374V261H50Z" horiz-adv-x="515" unicode="¬"/>
			<glyph d="M82 387H391L374 306H65Z" horiz-adv-x="417" unicode="­"/>
			<glyph d="M318 690Q372 690 415 665T482 596T507 499Q507 444 482 400T415 332T318 307Q265 307 222 332T154 401T130 499Q130 553 154 596T222 665T318 690ZM318 656Q252 656 209 611T166 499Q166 429 209 384T318 340Q385 340 428 384T471 499Q471 567 428 611T318 656ZM246 606H330Q365 606 383 589T402 542Q402 499 364 483L407 393H363L323 478H287V393H246ZM287 571V514H328Q361 514 361 542Q361 571 328 571Z" horiz-adv-x="534" unicode="®"/>
			<glyph d="M187 667H488L471 590H171Z" horiz-adv-x="494" unicode="¯"/>
			<glyph d="M247 700Q286 700 318 681T370 630T389 558Q389 518 370 485T318 434T247 416Q186 416 145 456T105 558Q105 619 145 659T247 700ZM247 644Q211 644 187 619T164 558Q164 521 187 497T247 473Q283 473 306 497T329 558Q329 596 306 620T247 644Z" horiz-adv-x="365" unicode="°"/>
			<glyph d="M200 524H281V360H445V280H281V115H200V280H36V360H200ZM36 67H445V-14H36Z" horiz-adv-x="515" unicode="±"/>
			<glyph d="M320 855Q378 855 411 828T445 758Q445 716 422 682T355 612L231 498H392L378 430H102L116 491L307 659Q336 683 349 704T363 746Q363 767 349 778T309 790Q281 790 262 776T239 735L238 726H162L164 737Q174 793 215 824T320 855Z" horiz-adv-x="403" unicode="²"/>
			<glyph d="M309 855Q367 855 399 830T431 762Q431 724 408 692T348 651Q399 632 399 575Q399 510 353 467T232 424Q176 424 143 446T110 508Q110 521 116 545H186Q184 537 184 526Q184 508 199 497T241 487Q279 487 300 510T321 567Q321 590 306 601T260 613H236L250 678H273Q310 678 331 698T353 749Q353 791 299 791Q270 791 252 778T231 742L229 734H158L160 745Q170 798 208 826T309 855Z" horiz-adv-x="388" unicode="³"/>
			<glyph d="M353 704H462L309 577H228Z" horiz-adv-x="500" unicode="´"/>
			<glyph d="M123 511H208L145 215Q138 181 138 157Q138 115 165 92T240 69Q302 69 346 109T406 221L468 511H554L445 0H361L375 66Q310 -7 210 -7Q142 -7 107 32L67 -153H-18Z" horiz-adv-x="568" unicode="µ"/>
			<glyph d="M402 690H658L479 -153H399L562 614H471L308 -153H228L318 272H316Q224 272 170 315T116 430Q116 459 122 486Q142 581 216 635T402 690Z" horiz-adv-x="639" unicode="¶"/>
			<glyph d="M84 330H188L165 223H62Z" horiz-adv-x="241" unicode="·"/>
			<glyph d="M200 12H275L173 -152H84Z" horiz-adv-x="494" unicode="¸"/>
			<glyph d="M256 848H336L247 430H167L239 767L139 713L156 795Z" horiz-adv-x="276" unicode="¹"/>
			<glyph d="M278 748Q336 748 370 719T405 640Q405 620 401 600L393 560Q380 493 338 459T231 426Q173 426 138 454T103 533Q103 554 107 575L116 614Q144 748 278 748ZM269 683Q203 683 187 609L179 573Q176 560 176 548Q176 519 193 505T240 491Q274 491 294 509T322 566L329 601Q332 615 332 628Q332 655 315 669T269 683ZZ" horiz-adv-x="368" unicode="º"/>
			<glyph d="M114 471L302 264L27 57L47 151L199 265L95 379ZM339 471L526 264L251 57L271 151L423 265L319 379Z" horiz-adv-x="547" unicode="»"/>
			<glyph d="M626 692H702L187 0H112ZM222 690H302L213 272H134L205 609L106 555L123 637ZM708 418H792L597 138H704L724 233H801L781 138H821L806 70H767L752 0H674L689 70H499L513 138Z" horiz-adv-x="884" unicode="¼"/>
			<glyph d="M626 692H702L187 0H112ZM222 690H302L213 272H134L205 609L106 555L123 637ZM727 425Q785 425 818 399T852 328Q852 286 829 252T763 182L638 68H800L785 0H510L523 61L715 229Q743 253 756 274T770 316Q770 337 756 348T717 360Q688 360 669 346T647 305L645 296H570L572 307Q582 363 623 394T727 425Z" horiz-adv-x="901" unicode="½"/>
			<glyph d="M275 697Q332 697 364 672T397 604Q397 566 374 534T314 494Q364 475 364 417Q364 352 318 309T197 266Q142 266 109 288T76 350Q76 360 78 371T81 387H151Q149 371 149 369Q149 351 164 340T207 329Q245 329 266 352T287 410Q287 456 226 456H202L216 520H239Q276 520 297 540T319 591Q319 633 265 633Q236 633 218 620T196 584L195 576H124L126 588Q135 640 174 668T275 697ZM737 692H813L298 0H223ZM819 418H903L708 138H815L835 233H912L892 138H932L917 70H878L863 0H785L800 70H610L624 138Z" horiz-adv-x="996" unicode="¾"/>
			<glyph d="M252 511H354L332 408H230ZM219 330H308L300 298Q290 251 274 224T218 165L156 115Q117 83 97 54T78 -10Q78 -45 104 -64T179 -83Q236 -83 268 -57T310 19H397Q362 -163 166 -163Q84 -163 36 -125T-12 -21Q-12 30 11 71T81 150L154 210Q183 234 194 253T214 305Z" horiz-adv-x="483" unicode="¿"/>
			<glyph d="M382 690H458L597 0H503L475 156H143L49 0H-50ZM398 578L190 233H461ZM289 876H394L481 749H404Z" horiz-adv-x="656" unicode="À"/>
			<glyph d="M382 690H458L597 0H503L475 156H143L49 0H-50ZM398 578L190 233H461ZM474 876H583L430 749H349Z" horiz-adv-x="656" unicode="Á"/>
			<glyph d="M382 690H458L597 0H503L475 156H143L49 0H-50ZM398 578L190 233H461ZM418 885H484L581 739H505L443 829L341 739H259Z" horiz-adv-x="656" unicode="Â"/>
			<glyph d="M382 690H458L597 0H503L475 156H143L49 0H-50ZM398 578L190 233H461ZM381 854Q400 854 414 849T447 834Q466 825 478 820T507 816Q529 816 546 824T593 854L578 783Q556 764 535 755T491 746Q471 746 456 751T423 766Q406 775 393 779T365 784Q344 784 325 775T278 745L293 816Q316 835 336 844T381 854Z" horiz-adv-x="656" unicode="Ã"/>
			<glyph d="M382 690H458L597 0H503L475 156H143L49 0H-50ZM398 578L190 233H461ZM296 848H381L361 753H276ZM507 848H593L573 753H488Z" horiz-adv-x="656" unicode="Ä"/>
			<glyph d="M431 869Q472 869 499 841T526 773Q526 740 507 715T459 683L597 0H503L475 156H143L49 0H-50L382 690H385Q363 701 350 723T337 773Q337 814 364 841T431 869ZM431 826Q410 826 395 810T381 773Q381 751 395 736T431 722Q453 722 467 736T482 773Q482 796 467 811T431 826ZM398 578L190 233H461Z" horiz-adv-x="656" unicode="Å"/>
			<glyph d="M515 690H1031L1014 609H639L592 390H912L896 310H575L526 81H902L884 0H419L453 162H189L58 0H-50ZM547 606L250 238H469Z" horiz-adv-x="990" unicode="Æ"/>
			<glyph d="M420 701Q534 701 597 650T661 511Q661 487 659 474H568Q569 484 569 498Q569 556 529 588T413 620Q318 620 262 569T183 404L159 292Q150 252 150 219Q150 146 193 109T318 72Q397 72 448 108T515 217H604Q581 116 514 58T344 -9L255 -152H166L268 -8Q170 2 115 57T60 209Q60 249 69 295L94 410Q125 560 206 630T420 701Z" horiz-adv-x="674" unicode="Ç"/>
			<glyph d="M166 690H645L628 609H240L193 390H527L510 310H176L127 81H516L498 0H19ZM279 876H384L471 749H394Z" horiz-adv-x="604" unicode="È"/>
			<glyph d="M166 690H645L628 609H240L193 390H527L510 310H176L127 81H516L498 0H19ZM464 876H573L420 749H339Z" horiz-adv-x="604" unicode="É"/>
			<glyph d="M166 690H645L628 609H240L193 390H527L510 310H176L127 81H516L498 0H19ZM408 885H474L571 739H495L433 829L331 739H249Z" horiz-adv-x="604" unicode="Ê"/>
			<glyph d="M166 690H645L628 609H240L193 390H527L510 310H176L127 81H516L498 0H19ZM286 848H371L351 753H266ZM497 848H583L563 753H478Z" horiz-adv-x="604" unicode="Ë"/>
			<glyph d="M173 690H264L117 0H27ZM96 876H201L288 749H211Z" horiz-adv-x="253" unicode="Ì"/>
			<glyph d="M173 690H264L117 0H27ZM281 876H390L237 749H156Z" horiz-adv-x="253" unicode="Í"/>
			<glyph d="M173 690H264L117 0H27ZM225 885H291L388 739H312L250 829L148 739H66Z" horiz-adv-x="253" unicode="Î"/>
			<glyph d="M173 690H264L117 0H27ZM103 848H188L168 753H83ZM314 848H400L380 753H295Z" horiz-adv-x="253" unicode="Ï"/>
			<glyph d="M217 690H461Q577 690 641 637T706 480Q706 440 695 388L674 287Q642 138 560 69T344 0H70L136 309H46L63 390H153ZM291 609L244 390H408L391 309H227L178 81H353Q449 81 504 130T583 290L604 388Q614 438 614 469Q614 540 573 574T449 609Z" horiz-adv-x="727" unicode="Ð"/>
			<glyph d="M166 690H257L532 148L647 690H737L590 0H500L225 541L110 0H19ZM415 861Q434 861 448 856T481 841Q500 832 512 827T541 823Q563 823 580 831T627 861L612 790Q590 771 569 762T525 753Q505 753 490 758T457 773Q440 782 427 786T399 791Q378 791 359 782T312 752L327 823Q350 842 370 851T415 861Z" horiz-adv-x="718" unicode="Ñ"/>
			<glyph d="M415 701Q528 701 594 645T661 483Q661 444 652 396L628 281Q596 132 515 61T307 -10Q192 -10 126 46T60 208Q60 249 69 295L94 410Q125 560 205 630T415 701ZM410 620Q317 620 262 569T183 404L159 292Q150 252 150 218Q150 145 192 108T313 72Q404 72 458 122T537 283L561 394Q570 438 570 471Q570 545 528 582T410 620ZM307 876H412L499 749H422Z" horiz-adv-x="682" unicode="Ò"/>
			<glyph d="M415 701Q528 701 594 645T661 483Q661 444 652 396L628 281Q596 132 515 61T307 -10Q192 -10 126 46T60 208Q60 249 69 295L94 410Q125 560 205 630T415 701ZM410 620Q317 620 262 569T183 404L159 292Q150 252 150 218Q150 145 192 108T313 72Q404 72 458 122T537 283L561 394Q570 438 570 471Q570 545 528 582T410 620ZM492 876H601L448 749H367Z" horiz-adv-x="682" unicode="Ó"/>
			<glyph d="M415 701Q528 701 594 645T661 483Q661 444 652 396L628 281Q596 132 515 61T307 -10Q192 -10 126 46T60 208Q60 249 69 295L94 410Q125 560 205 630T415 701ZM410 620Q317 620 262 569T183 404L159 292Q150 252 150 218Q150 145 192 108T313 72Q404 72 458 122T537 283L561 394Q570 438 570 471Q570 545 528 582T410 620ZM436 885H502L599 739H523L461 829L359 739H277Z" horiz-adv-x="682" unicode="Ô"/>
			<glyph d="M415 701Q528 701 594 645T661 483Q661 444 652 396L628 281Q596 132 515 61T307 -10Q192 -10 126 46T60 208Q60 249 69 295L94 410Q125 560 205 630T415 701ZM410 620Q317 620 262 569T183 404L159 292Q150 252 150 218Q150 145 192 108T313 72Q404 72 458 122T537 283L561 394Q570 438 570 471Q570 545 528 582T410 620ZM399 854Q418 854 432 849T465 834Q484 825 496 820T525 816Q547 816 564 824T611 854L596 783Q574 764 553 755T509 746Q489 746 474 751T441 766Q424 775 411 779T383 784Q362 784 343 775T296 745L311 816Q334 835 354 844T399 854Z" horiz-adv-x="682" unicode="Õ"/>
			<glyph d="M415 701Q528 701 594 645T661 483Q661 444 652 396L628 281Q596 132 515 61T307 -10Q192 -10 126 46T60 208Q60 249 69 295L94 410Q125 560 205 630T415 701ZM410 620Q317 620 262 569T183 404L159 292Q150 252 150 218Q150 145 192 108T313 72Q404 72 458 122T537 283L561 394Q570 438 570 471Q570 545 528 582T410 620ZM314 848H399L379 753H294ZM525 848H611L591 753H506Z" horiz-adv-x="682" unicode="Ö"/>
			<glyph d="M140 453L262 331L384 453L438 398L316 277L438 154L384 100L262 222L140 100L86 154L208 277L86 399Z" horiz-adv-x="515" unicode="×"/>
			<glyph d="M641 712H711L625 612Q661 559 661 483Q661 444 652 396L628 281Q596 132 515 61T307 -10Q197 -10 132 41L80 -20H8L95 81Q60 131 60 208Q60 249 69 295L94 410Q125 560 205 630T415 701Q523 701 588 651ZM410 620Q317 620 262 569T183 404L159 292Q150 252 150 218Q150 182 160 156L529 582Q486 620 410 620ZM559 536L191 109Q232 72 313 72Q404 72 458 122T537 283L561 394Q570 438 570 471Q570 508 559 536Z" horiz-adv-x="682" unicode="Ø"/>
			<glyph d="M166 690H257L164 252Q158 225 158 201Q158 139 197 106T313 74Q401 74 453 117T524 248L618 690H709L613 240Q588 123 508 58T305 -6Q194 -6 130 46T66 192Q66 216 73 253ZM313 876H418L505 749H428Z" horiz-adv-x="690" unicode="Ù"/>
			<glyph d="M166 690H257L164 252Q158 225 158 201Q158 139 197 106T313 74Q401 74 453 117T524 248L618 690H709L613 240Q588 123 508 58T305 -6Q194 -6 130 46T66 192Q66 216 73 253ZM498 876H607L454 749H373Z" horiz-adv-x="690" unicode="Ú"/>
			<glyph d="M166 690H257L164 252Q158 225 158 201Q158 139 197 106T313 74Q401 74 453 117T524 248L618 690H709L613 240Q588 123 508 58T305 -6Q194 -6 130 46T66 192Q66 216 73 253ZM442 885H508L605 739H529L467 829L365 739H283Z" horiz-adv-x="690" unicode="Û"/>
			<glyph d="M166 690H257L164 252Q158 225 158 201Q158 139 197 106T313 74Q401 74 453 117T524 248L618 690H709L613 240Q588 123 508 58T305 -6Q194 -6 130 46T66 192Q66 216 73 253ZM320 848H405L385 753H300ZM531 848H617L597 753H512Z" horiz-adv-x="690" unicode="Ü"/>
			<glyph d="M97 690H198L308 362L555 690H661L338 281L278 0H188L249 287ZM436 876H545L392 749H311Z" horiz-adv-x="573" unicode="Ý"/>
			<glyph d="M166 690H257L231 568H423Q625 568 625 406Q625 333 591 276T495 187T351 156H143L110 0H19ZM214 488L160 237H353Q439 237 486 278T533 392Q533 441 502 464T407 488Z" horiz-adv-x="636" unicode="Þ"/>
			<glyph d="M371 698Q462 698 512 664T562 569Q562 519 535 480T458 423Q488 407 501 383T515 324Q515 287 501 222Q482 137 454 88T379 18T258 -4H221L236 71H268Q315 71 342 86T386 133T415 225Q427 282 427 307Q427 348 404 366T327 384H303L318 458H350Q408 458 441 483T474 556Q474 623 365 623Q293 623 256 594T205 496L100 0H15L119 494Q141 598 200 648T371 698Z" horiz-adv-x="561" unicode="ß"/>
			<glyph d="M302 520Q356 520 395 499T456 440L471 511H555L447 0H363L377 63Q315 -9 219 -9Q140 -9 91 37T43 170Q43 204 50 239L63 301Q86 411 148 465T302 520ZM303 444Q244 444 204 409T148 295L135 238Q130 212 130 182Q130 124 161 95T244 67Q310 67 351 107T408 219L420 272Q425 296 425 325Q425 381 392 412T303 444ZM205 704H310L397 577H320Z" horiz-adv-x="570" unicode="à"/>
			<glyph d="M302 520Q356 520 395 499T456 440L471 511H555L447 0H363L377 63Q315 -9 219 -9Q140 -9 91 37T43 170Q43 204 50 239L63 301Q86 411 148 465T302 520ZM303 444Q244 444 204 409T148 295L135 238Q130 212 130 182Q130 124 161 95T244 67Q310 67 351 107T408 219L420 272Q425 296 425 325Q425 381 392 412T303 444ZM390 704H499L346 577H265Z" horiz-adv-x="570" unicode="á"/>
			<glyph d="M302 520Q356 520 395 499T456 440L471 511H555L447 0H363L377 63Q315 -9 219 -9Q140 -9 91 37T43 170Q43 204 50 239L63 301Q86 411 148 465T302 520ZM303 444Q244 444 204 409T148 295L135 238Q130 212 130 182Q130 124 161 95T244 67Q310 67 351 107T408 219L420 272Q425 296 425 325Q425 381 392 412T303 444ZM334 713H400L497 567H421L359 657L257 567H175Z" horiz-adv-x="570" unicode="â"/>
			<glyph d="M302 520Q356 520 395 499T456 440L471 511H555L447 0H363L377 63Q315 -9 219 -9Q140 -9 91 37T43 170Q43 204 50 239L63 301Q86 411 148 465T302 520ZM303 444Q244 444 204 409T148 295L135 238Q130 212 130 182Q130 124 161 95T244 67Q310 67 351 107T408 219L420 272Q425 296 425 325Q425 381 392 412T303 444ZM297 682Q316 682 330 677T363 662Q382 653 394 648T423 644Q445 644 462 652T509 682L494 611Q472 592 451 583T407 574Q387 574 372 579T339 594Q322 603 309 607T281 612Q260 612 241 603T194 573L209 644Q232 663 252 672T297 682Z" horiz-adv-x="570" unicode="ã"/>
			<glyph d="M302 520Q356 520 395 499T456 440L471 511H555L447 0H363L377 63Q315 -9 219 -9Q140 -9 91 37T43 170Q43 204 50 239L63 301Q86 411 148 465T302 520ZM303 444Q244 444 204 409T148 295L135 238Q130 212 130 182Q130 124 161 95T244 67Q310 67 351 107T408 219L420 272Q425 296 425 325Q425 381 392 412T303 444ZM212 676H297L277 581H192ZM423 676H509L489 581H404Z" horiz-adv-x="570" unicode="ä"/>
			<glyph d="M302 520Q356 520 395 499T456 440L471 511H555L447 0H363L377 63Q315 -9 219 -9Q140 -9 91 37T43 170Q43 204 50 239L63 301Q86 411 148 465T302 520ZM303 444Q244 444 204 409T148 295L135 238Q130 212 130 182Q130 124 161 95T244 67Q310 67 351 107T408 219L420 272Q425 296 425 325Q425 381 392 412T303 444ZM358 761Q399 761 426 733T453 665Q453 624 426 597T358 571Q318 571 291 598T264 665Q264 706 291 733T358 761ZM358 718Q337 718 322 702T308 665Q308 643 322 628T358 614Q380 614 394 628T409 665Q409 688 394 703T358 718Z" horiz-adv-x="570" unicode="å"/>
			<glyph d="M675 520Q767 520 818 476T870 349Q870 316 863 281L854 236H490L486 217Q481 189 481 172Q481 118 515 92T607 66Q720 66 749 161H835Q813 77 753 34T606 -9Q466 -9 419 83Q348 -8 208 -8Q124 -8 77 26T30 123Q30 207 92 251T261 296H415Q427 350 427 367Q427 449 315 449Q256 449 222 426T180 363H96Q112 436 173 477T329 518Q450 518 493 451Q525 486 572 503T675 520ZM667 445Q535 445 505 313L502 298H781Q788 333 788 349Q788 396 755 420T667 445ZM263 234Q193 234 154 209T115 136Q115 62 224 62Q297 62 338 96T394 198L402 234Z" horiz-adv-x="912" unicode="æ"/>
			<glyph d="M319 520Q409 520 462 479T516 360Q516 345 515 335H431L432 350Q432 444 315 444Q248 444 206 409T147 293L135 239Q129 208 129 183Q129 67 256 67Q315 67 352 94T399 175H482Q470 97 417 48T282 -8L192 -152H103L206 -6Q131 4 87 49T44 175Q44 205 51 241L63 300Q86 410 151 465T319 520Z" horiz-adv-x="554" unicode="ç"/>
			<glyph d="M318 520Q410 520 463 475T516 348Q516 314 509 280L501 236H136Q129 207 129 179Q129 120 163 93T256 66Q312 66 347 90T395 161H481Q464 79 404 35T251 -9Q158 -9 101 37T44 173Q44 205 52 245L63 299Q85 409 151 464T318 520ZM313 445Q249 445 206 410T148 298H428L430 311Q434 330 434 348Q434 396 402 420T313 445ZM205 704H310L397 577H320Z" horiz-adv-x="558" unicode="è"/>
			<glyph d="M318 520Q410 520 463 475T516 348Q516 314 509 280L501 236H136Q129 207 129 179Q129 120 163 93T256 66Q312 66 347 90T395 161H481Q464 79 404 35T251 -9Q158 -9 101 37T44 173Q44 205 52 245L63 299Q85 409 151 464T318 520ZM313 445Q249 445 206 410T148 298H428L430 311Q434 330 434 348Q434 396 402 420T313 445ZM390 704H499L346 577H265Z" horiz-adv-x="558" unicode="é"/>
			<glyph d="M318 520Q410 520 463 475T516 348Q516 314 509 280L501 236H136Q129 207 129 179Q129 120 163 93T256 66Q312 66 347 90T395 161H481Q464 79 404 35T251 -9Q158 -9 101 37T44 173Q44 205 52 245L63 299Q85 409 151 464T318 520ZM313 445Q249 445 206 410T148 298H428L430 311Q434 330 434 348Q434 396 402 420T313 445ZM334 713H400L497 567H421L359 657L257 567H175Z" horiz-adv-x="558" unicode="ê"/>
			<glyph d="M318 520Q410 520 463 475T516 348Q516 314 509 280L501 236H136Q129 207 129 179Q129 120 163 93T256 66Q312 66 347 90T395 161H481Q464 79 404 35T251 -9Q158 -9 101 37T44 173Q44 205 52 245L63 299Q85 409 151 464T318 520ZM313 445Q249 445 206 410T148 298H428L430 311Q434 330 434 348Q434 396 402 420T313 445ZM212 676H297L277 581H192ZM423 676H509L489 581H404Z" horiz-adv-x="558" unicode="ë"/>
			<glyph d="M123 511H207L99 0H15ZM42 704H147L234 577H157Z" horiz-adv-x="222" unicode="ì"/>
			<glyph d="M123 511H207L99 0H15ZM227 704H336L183 577H102Z" horiz-adv-x="222" unicode="í"/>
			<glyph d="M123 511H207L99 0H15ZM171 713H237L334 567H258L196 657L94 567H12Z" horiz-adv-x="222" unicode="î"/>
			<glyph d="M123 511H207L99 0H15ZM49 676H134L114 581H29ZM260 676H346L326 581H241Z" horiz-adv-x="222" unicode="ï"/>
			<glyph d="M230 692H330L370 625L497 657L500 596L402 571L450 491Q478 446 490 405T502 322Q502 289 494 249L486 209Q464 105 396 47T230 -10Q141 -10 90 35T40 160Q40 194 48 226L56 266Q77 364 140 418T295 472Q342 472 373 456L317 549L191 517L187 578L284 603ZM299 398Q234 398 193 363T138 262L130 225Q124 198 124 173Q124 122 155 94T241 67Q306 67 347 104T403 208L411 247Q417 283 417 297Q417 345 386 371T299 398Z" horiz-adv-x="549" unicode="ð"/>
			<glyph d="M361 517Q437 517 479 478T522 370Q522 343 513 304L448 0H363L425 292Q433 329 433 349Q433 394 406 417T329 441Q264 441 220 401T161 287L100 0H15L123 511H207L192 444Q257 517 361 517ZM308 682Q327 682 341 677T374 662Q393 653 405 648T434 644Q456 644 473 652T520 682L505 611Q483 592 462 583T418 574Q398 574 383 579T350 594Q333 603 320 607T292 612Q271 612 252 603T205 573L220 644Q243 663 263 672T308 682Z" unicode="ñ"/>
			<glyph d="M317 520Q409 520 465 475T521 341Q521 311 513 273L500 211Q478 101 412 46T248 -9Q156 -9 100 36T44 171Q44 204 51 239L63 301Q86 410 151 465T317 520ZM310 444Q246 444 205 409T147 293L135 236Q129 205 129 181Q129 122 163 94T256 67Q319 67 359 102T416 219L428 275Q434 301 434 331Q434 390 401 417T310 444ZM200 704H305L392 577H315Z" horiz-adv-x="564" unicode="ò"/>
			<glyph d="M317 520Q409 520 465 475T521 341Q521 311 513 273L500 211Q478 101 412 46T248 -9Q156 -9 100 36T44 171Q44 204 51 239L63 301Q86 410 151 465T317 520ZM310 444Q246 444 205 409T147 293L135 236Q129 205 129 181Q129 122 163 94T256 67Q319 67 359 102T416 219L428 275Q434 301 434 331Q434 390 401 417T310 444ZM385 704H494L341 577H260Z" horiz-adv-x="564" unicode="ó"/>
			<glyph d="M317 520Q409 520 465 475T521 341Q521 311 513 273L500 211Q478 101 412 46T248 -9Q156 -9 100 36T44 171Q44 204 51 239L63 301Q86 410 151 465T317 520ZM310 444Q246 444 205 409T147 293L135 236Q129 205 129 181Q129 122 163 94T256 67Q319 67 359 102T416 219L428 275Q434 301 434 331Q434 390 401 417T310 444ZM329 713H395L492 567H416L354 657L252 567H170Z" horiz-adv-x="564" unicode="ô"/>
			<glyph d="M317 520Q409 520 465 475T521 341Q521 311 513 273L500 211Q478 101 412 46T248 -9Q156 -9 100 36T44 171Q44 204 51 239L63 301Q86 410 151 465T317 520ZM310 444Q246 444 205 409T147 293L135 236Q129 205 129 181Q129 122 163 94T256 67Q319 67 359 102T416 219L428 275Q434 301 434 331Q434 390 401 417T310 444ZM292 682Q311 682 325 677T358 662Q377 653 389 648T418 644Q440 644 457 652T504 682L489 611Q467 592 446 583T402 574Q382 574 367 579T334 594Q317 603 304 607T276 612Q255 612 236 603T189 573L204 644Q227 663 247 672T292 682Z" horiz-adv-x="564" unicode="õ"/>
			<glyph d="M317 520Q409 520 465 475T521 341Q521 311 513 273L500 211Q478 101 412 46T248 -9Q156 -9 100 36T44 171Q44 204 51 239L63 301Q86 410 151 465T317 520ZM310 444Q246 444 205 409T147 293L135 236Q129 205 129 181Q129 122 163 94T256 67Q319 67 359 102T416 219L428 275Q434 301 434 331Q434 390 401 417T310 444ZM207 676H292L272 581H187ZM418 676H504L484 581H399Z" horiz-adv-x="564" unicode="ö"/>
			<glyph d="M258 479Q281 479 296 463T312 426Q312 403 296 387T258 372Q236 372 220 387T205 426Q205 448 220 463T258 479ZM58 316H466V236H58ZM258 182Q281 182 296 166T312 128Q312 105 296 89T258 74Q236 74 220 90T205 128Q205 151 220 166T258 182Z" horiz-adv-x="515" unicode="÷"/>
			<glyph d="M505 537H565L488 451Q521 407 521 341Q521 311 513 273L500 211Q478 101 412 46T248 -9Q161 -9 110 29L57 -30H-3L77 60Q44 104 44 171Q44 204 51 239L63 301Q86 410 151 465T317 520Q403 520 456 482ZM310 444Q246 444 205 409T147 293L135 236Q129 205 129 181Q129 149 139 128L399 418Q367 444 310 444ZM426 381L166 92Q198 67 256 67Q319 67 359 102T416 219L428 275Q434 301 434 331Q434 359 426 381Z" horiz-adv-x="564" unicode="ø"/>
			<glyph d="M123 511H208L146 218Q138 180 138 161Q138 68 250 68Q318 68 355 101T407 207L472 511H557L491 202Q447 -8 243 -8Q152 -8 102 33T53 150Q53 180 60 215ZM217 704H322L409 577H332Z" unicode="ù"/>
			<glyph d="M123 511H208L146 218Q138 180 138 161Q138 68 250 68Q318 68 355 101T407 207L472 511H557L491 202Q447 -8 243 -8Q152 -8 102 33T53 150Q53 180 60 215ZM402 704H511L358 577H277Z" unicode="ú"/>
			<glyph d="M123 511H208L146 218Q138 180 138 161Q138 68 250 68Q318 68 355 101T407 207L472 511H557L491 202Q447 -8 243 -8Q152 -8 102 33T53 150Q53 180 60 215ZM346 713H412L509 567H433L371 657L269 567H187Z" unicode="û"/>
			<glyph d="M123 511H208L146 218Q138 180 138 161Q138 68 250 68Q318 68 355 101T407 207L472 511H557L491 202Q447 -8 243 -8Q152 -8 102 33T53 150Q53 180 60 215ZM224 676H309L289 581H204ZM435 676H521L501 581H416Z" unicode="ü"/>
			<glyph d="M67 511H157L226 110L456 511H550L209 -56Q180 -106 137 -129T34 -153H-9L7 -76H46Q88 -76 111 -63T152 -19L167 7ZM367 704H476L323 577H242Z" horiz-adv-x="508" unicode="ý"/>
			<glyph d="M161 690H246L195 448Q259 521 351 521Q431 521 479 476T528 345Q528 310 520 271L507 214Q484 103 421 47T267 -9Q159 -9 113 70L66 -153H-18ZM327 444Q262 444 218 401T161 291L150 239Q143 209 143 184Q143 130 175 98T265 67Q390 67 423 218L435 274Q441 306 441 330Q441 388 409 416T327 444Z" unicode="þ"/>
			<glyph d="M67 511H157L226 110L456 511H550L209 -56Q180 -106 137 -129T34 -153H-9L7 -76H46Q88 -76 111 -63T152 -19L167 7ZM189 676H274L254 581H169ZM400 676H486L466 581H381Z" horiz-adv-x="508" unicode="ÿ"/>
			<glyph d="M123 511H207L99 0H15Z" horiz-adv-x="222" unicode="ı"/>
			<glyph d="M415 701Q480 701 530 682T612 628L625 690H1104L1087 609H699L652 390H986L969 310H635L586 81H975L957 0H478L486 38Q415 -10 307 -10Q192 -10 126 46T60 208Q60 249 69 295L94 410Q125 560 205 630T415 701ZM410 620Q317 620 262 569T183 404L159 292Q150 252 150 218Q150 145 192 108T313 72Q404 72 458 122T537 283L561 394Q570 438 570 471Q570 545 528 582T410 620Z" horiz-adv-x="1063" unicode="Œ"/>
			<glyph d="M317 520Q379 520 425 499T496 438Q565 520 689 520Q781 520 834 475T887 348Q887 314 880 280L871 236H506Q500 205 500 179Q500 120 534 93T627 66Q683 66 718 90T766 161H852Q835 79 775 35T622 -9Q560 -9 512 12T440 75Q372 -9 248 -9Q156 -9 100 36T44 171Q44 204 51 239L63 301Q86 410 151 465T317 520ZM684 445Q620 445 577 410T519 298H799L801 311Q805 330 805 348Q805 396 773 420T684 445ZM310 444Q246 444 205 409T147 293L135 236Q129 205 129 181Q129 122 163 94T256 67Q319 67 359 102T416 219L428 275Q434 301 434 331Q434 390 401 417T310 444Z" horiz-adv-x="929" unicode="œ"/>
			<glyph d="M375 699Q479 699 541 656T604 530Q604 512 603 503H514Q516 519 516 525Q516 575 477 598T370 622Q283 622 232 586T182 489Q182 449 210 427T300 398L380 387Q468 376 512 336T556 226Q556 115 475 54T257 -6Q145 -6 80 38T16 166Q16 176 18 200H106Q105 193 105 181Q105 73 263 73Q358 73 412 109T466 213Q466 255 437 277T348 308L273 318Q181 329 137 368T93 476Q93 581 170 640T375 699ZM258 883H334L396 792L497 883H580L421 737H355Z" horiz-adv-x="610" unicode="Š"/>
			<glyph d="M292 518Q390 518 440 478T491 364H411Q411 449 286 449Q225 449 190 425T155 361Q155 335 174 321T235 302L311 292T422 252T458 167Q458 86 396 40T227 -6Q129 -6 75 34T21 155H101Q102 65 231 65Q296 65 334 89T373 156Q373 186 352 199T287 219L213 229Q141 237 106 266T71 349Q71 428 130 473T292 518ZM172 711H248L310 620L411 711H494L335 565H269Z" horiz-adv-x="518" unicode="š"/>
			<glyph d="M97 690H198L308 362L555 690H661L338 281L278 0H188L249 287ZM258 848H343L323 753H238ZM469 848H555L535 753H450Z" horiz-adv-x="573" unicode="Ÿ"/>
			<glyph d="M141 690H621L604 610L107 81H498L481 0H-17L0 81L497 610H125ZM258 883H334L396 792L497 883H580L421 737H355Z" horiz-adv-x="572" unicode="Ž"/>
			<glyph d="M108 511H499L483 436L121 75H406L390 0H0L16 75L377 436H92ZM178 711H254L316 620L417 711H500L341 565H275Z" horiz-adv-x="498" unicode="ž"/>
			<glyph d="M486 690H541L524 609H473Q431 609 407 591T368 527L327 414H451L435 337H299L179 9Q147 -80 101 -116T-25 -153H-75L-57 -72H-12Q31 -72 54 -54T95 12L212 337H112L128 414H240L282 530Q314 616 361 653T486 690Z" horiz-adv-x="460" unicode="ƒ"/>
			<glyph d="M310 713H376L473 567H397L335 657L234 567H152Z" horiz-adv-x="494" unicode="ˆ"/>
			<glyph d="M185 711H261L323 620L424 711H507L348 565H282Z" horiz-adv-x="500" unicode="ˇ"/>
			<glyph d="M289 685H377L357 592H269Z" horiz-adv-x="500" unicode="˙"/>
			<glyph d="M336 761Q376 761 403 733T430 665Q430 625 403 598T336 571Q295 571 268 597T241 665Q241 706 268 733T336 761ZM336 718Q314 718 299 703T285 665Q285 643 299 628T336 614Q358 614 372 628T386 665Q386 688 372 703T336 718Z" horiz-adv-x="500" unicode="˚"/>
			<glyph d="M274 682Q293 682 307 677T340 662Q359 653 371 648T400 644Q422 644 439 652T486 682L471 611Q449 592 428 583T384 574Q364 574 349 579T316 594Q299 603 286 607T258 612Q237 612 218 603T171 573L186 644Q209 663 229 672T274 682Z" horiz-adv-x="494" unicode="˜"/>
			<glyph d="M-68 704H37L124 577H47Z" horiz-adv-x="0" unicode="̀"/>
			<glyph d="M117 704H226L73 577H-8Z" horiz-adv-x="0" unicode="́"/>
			<glyph d="M61 713H127L224 567H148L86 657L-16 567H-98Z" horiz-adv-x="0" unicode="̂"/>
			<glyph d="M24 682Q43 682 57 677T90 662Q109 653 121 648T150 644Q172 644 189 652T236 682L221 611Q199 592 178 583T134 574Q114 574 99 579T66 594Q49 603 36 607T8 612Q-13 612 -31 603T-79 573L-64 644Q-41 663 -20 672T24 682Z" horiz-adv-x="0" unicode="̃"/>
			<glyph d="M-61 676H24L4 581H-81ZM150 676H236L216 581H131Z" horiz-adv-x="0" unicode="̈"/>
			<glyph d="M85 761Q126 761 153 733T180 665Q180 624 153 597T85 571Q45 571 18 598T-9 665Q-9 706 18 733T85 761ZM85 718Q64 718 49 702T35 665Q35 643 49 628T85 614Q107 614 121 628T136 665Q136 688 121 703T85 718Z" horiz-adv-x="0" unicode="̊"/>
			<glyph d="M28 387H497L480 306H11Z" horiz-adv-x="469" unicode="–"/>
			<glyph d="M28 387H965L948 306H11Z" horiz-adv-x="937" unicode="—"/>
			<glyph d="M229 717L174 466H93L131 644Z" horiz-adv-x="179" unicode="‘"/>
			<glyph d="M141 690H223L185 513L87 439Z" horiz-adv-x="179" unicode="’"/>
			<glyph d="M17 106H99L61 -71L-37 -145Z" horiz-adv-x="179" unicode="‚"/>
			<glyph d="M229 717L175 466H93L131 644ZM393 717L339 466H257L295 644Z" horiz-adv-x="344" unicode="“"/>
			<glyph d="M142 691H223L186 513L87 440ZM306 691H387L350 513L251 440Z" horiz-adv-x="344" unicode="”"/>
			<glyph d="M181 106H263L225 -71L127 -145ZM18 106H100L62 -71L-36 -145Z" horiz-adv-x="343" unicode="„"/>
			<glyph d="M340 690H430L380 455H558L541 375H363L251 -153H160L273 375H94L111 455H290Z" horiz-adv-x="584" unicode="†"/>
			<glyph d="M340 690H431L382 460H559L542 379H365L318 162H496L478 81H301L251 -153H161L211 81H31L49 162H228L274 379H95L112 460H291Z" horiz-adv-x="584" unicode="‡"/>
			<glyph d="M248 437Q304 437 340 400T377 308Q377 252 340 215T248 179Q191 179 154 215T118 308Q118 364 154 400T248 437Z" horiz-adv-x="473" unicode="•"/>
			<glyph d="M37 107H141L118 0H15ZM550 107H654L631 0H528ZM293 107H397L374 0H271Z" horiz-adv-x="754" unicode="…"/>
			<glyph d="M278 697Q337 697 369 670T401 593Q401 570 394 538L371 428Q354 346 313 306T203 266Q145 266 113 293T81 373Q81 400 88 431L112 541Q128 618 168 657T278 697ZM737 692H813L298 0H223ZM268 629Q235 629 217 606T189 533L168 435Q161 400 161 386Q161 334 214 334Q248 334 264 356T293 431L314 530Q320 559 320 578Q320 629 268 629ZM831 425Q890 425 921 398T953 321Q953 302 947 266L924 156Q906 74 865 34T756 -6Q697 -6 665 21T634 101Q634 128 641 159L664 269Q681 347 721 386T831 425ZM1218 425Q1277 425 1308 398T1340 321Q1340 302 1334 266L1311 156Q1293 74 1252 34T1143 -6Q1084 -6 1052 21T1021 101Q1021 128 1028 159L1051 269Q1068 347 1108 386T1218 425ZM820 357Q787 357 770 335T741 261L720 162Q714 134 714 114Q714 61 766 61Q800 61 817 83T845 159L866 258Q873 291 873 306Q873 357 820 357ZM1207 357Q1174 357 1157 335T1128 261L1107 162Q1101 134 1101 114Q1101 61 1153 61Q1187 61 1204 83T1232 159L1253 258Q1260 291 1260 306Q1260 357 1207 357Z" horiz-adv-x="1383" unicode="‰"/>
			<glyph d="M300 471L280 377L127 263L231 149L212 57L25 264Z" horiz-adv-x="323" unicode="‹"/>
			<glyph d="M114 471L302 264L27 57L47 151L199 265L95 379Z" horiz-adv-x="323" unicode="›"/>
			<glyph d="M419 700Q510 700 559 657T608 531H527Q527 622 411 622Q339 622 300 586T247 480L239 444H479L452 380H225L212 315H425L399 251H197L190 218Q185 195 185 169Q185 121 214 94T304 68Q418 68 448 159H531Q511 78 449 34T295 -10Q202 -10 149 34T97 154Q97 183 104 220L110 251H45L58 315H124L138 380H72L86 444H151L159 481Q182 583 248 641T419 700Z" horiz-adv-x="612" unicode="€"/>
			<glyph d="M129 690H459V629H329V296H260V629H129ZM524 690H587L720 432H724L853 690H916V296H852V553H849L745 354H696L591 553H589V296H524Z" horiz-adv-x="981" unicode="™"/>
			<glyph d="M354 690H419L405 627H359Q318 627 296 610T267 554L258 511H381L368 447H244L150 0H65L159 447H86L100 511H173L181 550Q211 690 354 690ZM493 511H577L469 0H385ZM529 690H617L597 597H509Z" horiz-adv-x="601" unicode="ﬁ"/>
			<glyph d="M354 690H419L405 627H359Q318 627 296 610T267 554L258 511H381L368 447H244L150 0H65L159 447H86L100 511H173L181 550Q211 690 354 690ZM523 690H608L495 160Q490 139 490 123Q490 98 505 87T556 76H602L587 0H528Q464 0 433 24T402 99Q402 123 409 155Z" horiz-adv-x="664" unicode="ﬂ"/>
		</font>
</defs>
</svg>
