<?xml version="1.0" encoding="UTF-8"?>
<svg height="100%" width="100%" xmlns="http://www.w3.org/2000/svg">
	<defs>
		<font horiz-adv-x="500" id="web">
			<font-face alphabetic="0" ascent="902" descent="-184" font-family="" panose-1="2 11 8 4 2 2 2 3 2 4"/>
			<missing-glyph d="M101 690H498V0H101ZM135 656V34H464V656Z" horiz-adv-x="600"/>
			<glyph d="" horiz-adv-x="229" unicode=" "/>
			<glyph d="M54 690H195L171 230H78ZM59 130H190V0H59Z" horiz-adv-x="249" unicode="!"/>
			<glyph d="M38 690H155V392H38ZM242 690H358V392H242Z" horiz-adv-x="396" unicode="&quot;"/>
			<glyph d="M187 690H290L265 498H377L402 690H505L480 498H584V406H468L454 296H556V204H442L415 0H311L338 204H226L199 0H96L123 204H18V296H135L150 406H46V498H162ZM253 406L238 296H350L365 406Z" horiz-adv-x="602" unicode="#"/>
			<glyph d="M221 740H310V663Q393 654 440 607T493 479H376Q372 521 345 541T266 561Q217 561 191 541T165 486Q165 454 186 435T256 410L334 399Q503 375 503 224Q503 141 452 91T310 32V-60H221V31Q132 40 82 90T28 227H143Q149 178 178 157T269 136Q324 136 352 156T381 215Q381 250 362 269T300 293L225 303Q44 327 44 477Q44 554 90 602T221 662Z" horiz-adv-x="535" unicode="$"/>
			<glyph d="M199 696Q348 696 348 540V428Q348 264 197 264Q46 264 46 428V540Q46 617 85 656T199 696ZM663 695H765L321 0H220ZM198 608Q170 608 159 589T149 527V433Q149 389 159 371T198 353Q226 353 235 371T245 433V527Q245 571 235 589T198 608ZM788 426Q937 426 937 270V158Q937 -6 786 -6Q635 -6 635 158V270Q635 347 674 386T788 426ZM787 338Q759 338 748 319T738 257V163Q738 119 748 101T787 83Q815 83 824 101T834 163V257Q834 301 824 319T787 338Z" horiz-adv-x="983" unicode="%"/>
			<glyph d="M292 704Q375 704 427 658T479 538Q479 486 448 445T344 358L454 230L544 331L621 261L522 150L532 139Q548 121 562 114T597 107H619V0H565Q529 0 503 13T448 62L445 65Q400 22 355 4T257 -14Q158 -14 102 40T46 182Q46 243 77 290T179 382Q139 432 123 466T107 538Q107 613 158 658T292 704ZM293 608Q260 608 241 590T223 543Q223 521 234 497T278 436Q329 467 347 491T365 541Q365 571 345 589T293 608ZM247 301Q201 271 182 245T164 187Q164 143 190 118T263 93Q293 93 320 105T378 146Z" horiz-adv-x="666" unicode="&amp;"/>
			<glyph d="M38 690H155V392H38Z" horiz-adv-x="193" unicode="'"/>
			<glyph d="M187 740H278Q224 650 196 545T169 328Q169 216 196 111T277 -84H186Q117 5 81 109T46 329Q46 446 81 550T187 740Z" horiz-adv-x="323" unicode="("/>
			<glyph d="M46 740H137Q206 653 242 549T278 329Q278 214 242 109T138 -84H46Q99 6 127 111T155 328Q155 440 127 545T46 740Z" horiz-adv-x="323" unicode=")"/>
			<glyph d="M173 690H242V591L340 641L368 587L278 541L369 495L339 441L242 490V389H173V491L75 441L46 495L136 541L46 587L75 641L173 592Z" horiz-adv-x="414" unicode="*"/>
			<glyph d="M208 493H322V333H481V219H322V59H208V219H48V333H208Z" horiz-adv-x="529" unicode="+"/>
			<glyph d="M38 137H155V-63L38 -162Z" horiz-adv-x="193" unicode=","/>
			<glyph d="M46 403H355V288H46Z" horiz-adv-x="400" unicode="-"/>
			<glyph d="M38 142H177V0H38Z" horiz-adv-x="215" unicode="."/>
			<glyph d="M295 695H400L150 -10H46Z" horiz-adv-x="445" unicode="/"/>
			<glyph d="M287 701Q403 701 461 639T519 456V242Q519 117 461 53T287 -11Q55 -11 55 242V456Q55 577 114 639T287 701ZM287 586Q233 586 210 551T187 437V253Q187 174 210 138T287 103Q342 103 365 138T388 253V437Q388 516 364 551T287 586Z" horiz-adv-x="564" unicode="0"/>
			<glyph d="M183 690H314V0H183V553L36 468V603Z" horiz-adv-x="379" unicode="1"/>
			<glyph d="M274 701Q344 701 396 676T475 608T503 507V494Q503 441 482 398T417 311L231 115H504V0H54V104L312 380Q345 412 358 437T371 493V504Q371 544 344 567T272 590Q227 590 201 568T175 507V491H50V515Q50 600 110 650T274 701Z" horiz-adv-x="544" unicode="2"/>
			<glyph d="M276 701Q380 701 439 653T498 521V508Q498 460 473 424T402 367Q455 349 482 308T510 208V192Q510 98 447 43T279 -11Q168 -11 109 37T50 177V188H172V180Q172 141 199 120T277 100Q327 100 354 124T381 193V208Q381 255 352 277T266 300H227V411H265Q316 411 342 433T369 496V508Q369 547 344 568T273 590Q226 590 201 569T176 509V500H56V509Q56 602 113 651T276 701Z" horiz-adv-x="555" unicode="3"/>
			<glyph d="M260 690H394L172 225H352V387H483V225H546V110H483V0H352V110H39V225Z" horiz-adv-x="577" unicode="4"/>
			<glyph d="M67 690H481V578H180V417Q230 454 302 454Q397 454 449 398T502 243V205Q502 103 442 46T273 -11Q173 -11 114 36T55 166V174H180V170Q180 139 205 119T274 100Q323 100 348 128T373 207V238Q373 291 347 319T274 347Q242 347 218 333T182 297H67Z" horiz-adv-x="547" unicode="5"/>
			<glyph d="M278 690H420L256 407Q284 421 329 421Q419 421 474 367T529 224V203Q529 103 464 46T289 -11Q176 -11 113 44T50 199V219Q50 295 100 383ZM289 312Q238 312 209 287T181 217V198Q181 152 209 126T289 100Q340 100 369 126T398 198V216Q398 262 369 287T289 312Z" horiz-adv-x="569" unicode="6"/>
			<glyph d="M33 690H480V576L237 0H104L349 576H33Z" horiz-adv-x="507" unicode="7"/>
			<glyph d="M295 701Q364 701 415 677T493 609T520 510V499Q520 454 497 417T437 362Q483 339 508 298T533 210V196Q533 100 468 44T294 -11Q185 -11 120 44T55 195V209Q55 259 80 299T152 362Q114 381 92 417T70 499V510Q70 566 97 609T175 677T295 701ZM295 590Q249 590 223 568T198 509V498Q198 459 223 436T295 414Q341 414 366 436T391 498V509Q391 547 365 568T295 590ZM295 306Q243 306 213 281T184 212V197Q184 151 213 125T295 100Q347 100 376 125T405 197V212Q405 256 376 281T295 306Z" horiz-adv-x="578" unicode="8"/>
			<glyph d="M289 701Q402 701 465 645T529 492V471Q529 394 478 307L300 0H159L322 283Q291 269 250 269Q160 269 105 323T50 467V488Q50 588 114 644T289 701ZM289 590Q238 590 209 564T181 492V475Q181 429 209 403T289 378Q340 378 368 403T397 474V493Q397 539 368 564T289 590Z" horiz-adv-x="569" unicode="9"/>
			<glyph d="M38 480H177V338H38ZM38 142H177V0H38Z" horiz-adv-x="215" unicode=":"/>
			<glyph d="M38 480H177V338H38ZM58 137H175V-63L58 -162Z" horiz-adv-x="215" unicode=";"/>
			<glyph d="M480 495V380L202 274L480 169V53L48 223V326Z" horiz-adv-x="529" unicode="&lt;"/>
			<glyph d="M49 437H480V324H49ZM49 228H480V115H49Z" horiz-adv-x="529" unicode="="/>
			<glyph d="M48 495L480 326V223L48 53V169L326 274L48 380Z" horiz-adv-x="529" unicode="&gt;"/>
			<glyph d="M245 700Q349 700 407 652T466 521Q466 438 401 377L344 316Q321 294 312 275T304 224V193H180V239Q180 287 191 315T237 375L288 428Q316 454 327 473T338 515Q338 550 314 568T242 587Q194 587 171 567T148 508H27Q33 700 245 700ZM176 126H307V0H176Z" unicode="?"/>
			<glyph d="M438 698Q551 698 640 650T779 517T829 321V251Q829 155 781 104T660 54Q615 54 583 71T534 119Q502 54 406 54Q255 54 255 235V323Q255 409 290 457T399 505Q435 505 462 491T503 454V494H612V209Q612 177 625 161T661 146Q689 146 703 170T717 250V320Q717 405 683 467T587 564T438 598Q307 598 232 523T158 318V247Q158 162 191 98T288 -1T438 -36Q498 -36 546 -23T645 15L689 -70Q631 -104 571 -120T438 -136Q323 -136 234 -88T95 46T46 246V316Q46 429 95 515T234 650T438 698ZM435 411Q400 411 383 387T367 323V241Q367 196 383 172T435 148Q501 148 501 238V322Q501 411 435 411Z" horiz-adv-x="874" unicode="@"/>
			<glyph d="M287 690H394L677 0H537L487 134H194L144 0H4ZM340 524L235 243H446Z" horiz-adv-x="681" unicode="A"/>
			<glyph d="M59 690H358Q475 690 537 640T599 498Q599 451 573 413T501 355Q554 334 581 294T609 198Q609 103 547 51T371 0H59ZM190 576V408H359Q468 408 468 490Q468 576 364 576ZM190 294V114H373Q479 114 479 207Q479 294 368 294Z" horiz-adv-x="654" unicode="B"/>
			<glyph d="M350 703Q477 703 552 640T628 467V459H497V463Q497 521 458 554T350 588Q268 588 227 540T187 393V294Q187 199 228 153T351 107Q420 107 458 139T497 229V234H627V229Q627 115 552 52T349 -11Q210 -11 132 65T55 292V400Q55 551 133 627T350 703Z" horiz-adv-x="673" unicode="C"/>
			<glyph d="M59 690H328Q466 690 541 616T617 388V303Q617 149 540 74T323 0H59ZM190 576V114H327Q408 114 447 159T486 303V381Q486 483 447 529T327 576Z" horiz-adv-x="662" unicode="D"/>
			<glyph d="M59 690H552V576H190V405H501V291H190V114H552V0H59Z" horiz-adv-x="587" unicode="E"/>
			<glyph d="M59 690H552V576H190V399H503V285H190V0H59Z" horiz-adv-x="582" unicode="F"/>
			<glyph d="M350 703Q433 703 496 675T593 595T628 470V462H497V466Q497 521 458 554T350 588Q268 588 227 540T187 394V295Q187 198 227 152T351 107Q426 107 462 139T498 237V262H347V370H628V256Q628 122 553 55T349 -11Q211 -11 133 65T55 292V400Q55 551 133 627T350 703Z" horiz-adv-x="673" unicode="G"/>
			<glyph d="M59 690H190V406H481V690H612V0H481V292H190V0H59Z" horiz-adv-x="671" unicode="H"/>
			<glyph d="M65 690H196V0H65Z" horiz-adv-x="261" unicode="I"/>
			<glyph d="M165 690H297V173Q297 87 252 43T119 0H24V115H85Q131 115 148 132T165 195Z" horiz-adv-x="362" unicode="J"/>
			<glyph d="M59 690H190V355L484 690H652L395 412L672 0H513L307 318L190 192V0H59Z" horiz-adv-x="678" unicode="K"/>
			<glyph d="M59 690H190V114H546V0H59Z" horiz-adv-x="570" unicode="L"/>
			<glyph d="M59 690H190L406 295L619 690H750V0H619V437L450 133H362L190 440V0H59Z" horiz-adv-x="809" unicode="M"/>
			<glyph d="M59 690H190L509 232V690H640V0H509L190 457V0H59Z" horiz-adv-x="699" unicode="N"/>
			<glyph d="M343 703Q476 703 552 627T628 400V292Q628 142 550 65T339 -11Q205 -11 130 65T55 292V400Q55 551 131 627T343 703ZM343 588Q264 588 225 540T187 393V294Q187 199 225 153T343 107Q497 107 497 294V393Q497 588 343 588Z" horiz-adv-x="673" unicode="O"/>
			<glyph d="M59 690H357Q473 690 538 634T604 474Q604 374 538 318T352 262H190V0H59ZM190 576V377H362Q473 377 473 475Q473 526 444 551T362 576Z" horiz-adv-x="628" unicode="P"/>
			<glyph d="M343 703Q476 703 552 627T628 400V292Q628 124 528 46L607 -99L507 -154L424 -2Q385 -11 339 -11Q205 -11 130 65T55 292V400Q55 551 131 627T343 703ZM343 588Q264 588 225 540T187 393V294Q187 199 225 153T343 107Q497 107 497 294V393Q497 588 343 588Z" horiz-adv-x="673" unicode="Q"/>
			<glyph d="M59 690H359Q472 690 537 636T603 480Q603 406 567 357T463 287L634 0H478L327 271H190V0H59ZM190 576V383H363Q473 383 473 480Q473 528 444 552T363 576Z" horiz-adv-x="664" unicode="R"/>
			<glyph d="M306 700Q423 700 489 647T563 494H437Q433 544 400 567T303 590Q238 590 205 567T172 502Q172 464 201 443T294 414L377 403Q475 390 526 341T577 209Q577 105 503 49T300 -6Q174 -6 105 49T28 210H153Q160 155 197 130T307 106Q448 106 448 199Q448 240 420 261T328 290L255 299Q45 325 45 492Q45 589 115 644T306 700Z" horiz-adv-x="608" unicode="S"/>
			<glyph d="M6 690H551V576H344V0H213V576H6Z" horiz-adv-x="557" unicode="T"/>
			<glyph d="M59 690H190V252Q190 182 228 145T337 108Q408 108 447 145T486 252V690H617V248Q617 171 582 113T484 25T337 -6Q254 -6 191 25T93 113T59 248Z" horiz-adv-x="676" unicode="U"/>
			<glyph d="M4 690H144L311 193L479 690H619L363 0H258Z" horiz-adv-x="623" unicode="V"/>
			<glyph d="M4 690H138L269 185L390 690H552L685 185L803 690H932L739 0H619L471 531L322 0H203Z" horiz-adv-x="936" unicode="W"/>
			<glyph d="M22 690H183L336 462L479 690H637L410 364L662 0H501L328 259L162 0H4L253 358Z" horiz-adv-x="666" unicode="X"/>
			<glyph d="M4 690H152L304 401L456 690H604L370 285V0H239V284Z" horiz-adv-x="608" unicode="Y"/>
			<glyph d="M37 690H524V576L181 115H534V0H30V115L374 576H37Z" horiz-adv-x="561" unicode="Z"/>
			<glyph d="M59 741H296V626H183V31H296V-84H59Z" horiz-adv-x="341" unicode="["/>
			<glyph d="M46 695H150L400 -10H296Z" horiz-adv-x="445" unicode="\"/>
			<glyph d="M46 739H283V-84H46V31H159V625H46Z" horiz-adv-x="342" unicode="]"/>
			<glyph d="M212 695H316L486 271H383L264 575L145 271H42Z" horiz-adv-x="529" unicode="^"/>
			<glyph d="M0 -40H563V-121H0Z" horiz-adv-x="563" unicode="_"/>
			<glyph d="M47 721H208L340 588H223Z" unicode="`"/>
			<glyph d="M269 526Q380 526 439 476T499 332V0H379V48Q348 19 313 6T228 -6Q134 -6 85 36T37 155Q37 229 88 268T237 307H376V338Q376 431 266 431Q216 431 193 413T171 367V364H53V367Q53 441 111 483T269 526ZM260 222Q207 222 182 206T157 158Q157 127 181 110T255 93Q376 93 376 190V222Z" horiz-adv-x="553" unicode="a"/>
			<glyph d="M54 690H178V461Q203 493 240 511T323 529Q416 529 471 469T526 296V231Q526 156 499 101T427 19T322 -9Q229 -9 175 53V0H54ZM291 419Q238 419 208 385T178 292V226Q178 169 209 135T293 102Q346 102 374 135T402 236V290Q402 419 291 419Z" horiz-adv-x="571" unicode="b"/>
			<glyph d="M283 529Q392 529 453 478T514 337V331H393V335Q393 374 364 396T286 419Q228 419 198 388T169 290V231Q169 163 199 132T289 102Q337 102 364 123T392 182V186H513V182Q513 93 452 42T283 -9Q172 -9 109 52T46 230V292Q46 408 109 468T283 529Z" horiz-adv-x="559" unicode="c"/>
			<glyph d="M394 690H517V0H396V56Q345 -9 249 -9Q157 -9 101 52T46 228V293Q46 368 71 421T142 501T247 529Q339 529 394 464ZM280 419Q227 419 198 386T170 287V233Q170 167 198 134T277 102Q331 102 362 135T394 226V292Q394 352 364 385T280 419Z" horiz-adv-x="571" unicode="d"/>
			<glyph d="M286 529Q398 529 462 466T526 286V226H169V224Q169 99 297 99Q340 99 367 115T399 160L400 163H521V157Q516 82 454 36T292 -9Q177 -9 111 54T46 238V283Q46 402 110 465T286 529ZM286 423Q176 423 169 311H402V318Q402 370 370 396T286 423Z" horiz-adv-x="571" unicode="e"/>
			<glyph d="M260 690H341V606H295Q259 606 244 592T229 546V520H341V433H229V0H106V433H36V520H106V541Q106 615 145 652T260 690Z" horiz-adv-x="368" unicode="f"/>
			<glyph d="M247 529Q338 529 395 464V520H517V48Q517 -51 452 -107T273 -164Q175 -164 118 -125T58 -11H177Q184 -37 209 -51T279 -66Q395 -66 395 40V94Q345 29 249 29Q157 29 101 89T46 261V301Q46 409 101 469T247 529ZM279 419Q227 419 198 388T170 295V266Q170 203 197 171T277 140Q331 140 362 172T394 259V300Q394 355 363 387T279 419Z" horiz-adv-x="571" unicode="g"/>
			<glyph d="M54 690H178V465Q205 495 244 510T328 526Q418 526 468 473T518 324V0H394V299Q394 416 291 416Q238 416 208 385T178 294V0H54Z" horiz-adv-x="572" unicode="h"/>
			<glyph d="M59 693H182V594H59ZM59 520H182V0H59Z" horiz-adv-x="241" unicode="i"/>
			<glyph d="M59 693H182V594H59ZM59 520H182V12Q182 -74 139 -115T5 -156H-60V-49H-13Q28 -49 43 -34T59 20Z" horiz-adv-x="241" unicode="j"/>
			<glyph d="M54 690H178V300L389 520H548L339 317L563 0H406L252 233L178 161V0H54Z" horiz-adv-x="577" unicode="k"/>
			<glyph d="M54 690H178V176Q178 138 193 122T249 107H296V0H227Q139 0 96 41T54 168Z" horiz-adv-x="314" unicode="l"/>
			<glyph d="M322 526Q369 526 408 508T473 456Q539 526 640 526Q736 526 789 472T842 324V0H718V299Q718 357 692 386T618 416Q567 416 538 384T510 296V0H386V304Q386 360 360 388T287 416Q235 416 206 384T178 294V0H54V520H175V464Q202 494 241 510T322 526Z" horiz-adv-x="896" unicode="m"/>
			<glyph d="M328 526Q418 526 468 472T518 324V0H394V299Q394 416 291 416Q238 416 208 385T178 294V0H54V520H175V464Q203 494 242 510T328 526Z" horiz-adv-x="572" unicode="n"/>
			<glyph d="M283 529Q393 529 455 468T518 292V230Q518 113 455 52T283 -9Q172 -9 109 52T46 230V292Q46 408 109 468T283 529ZM283 419Q169 419 169 290V231Q169 102 283 102Q395 102 395 231V290Q395 356 366 387T283 419Z" horiz-adv-x="563" unicode="o"/>
			<glyph d="M323 529Q416 529 471 469T526 296V231Q526 156 499 101T427 19T322 -9Q229 -9 178 53V-156H54V520H175V461Q233 529 323 529ZM291 419Q238 419 208 385T178 292V226Q178 169 209 135T293 102Q346 102 374 135T402 236V290Q402 419 291 419Z" horiz-adv-x="571" unicode="p"/>
			<glyph d="M249 529Q338 529 396 464V520H517V-156H394V56Q344 -9 249 -9Q157 -9 101 52T46 228V293Q46 405 102 467T249 529ZM280 419Q227 419 198 386T170 287V233Q170 167 198 134T277 102Q331 102 362 135T394 226V292Q394 352 364 385T280 419Z" horiz-adv-x="571" unicode="q"/>
			<glyph d="M327 531Q356 531 376 527V409Q342 422 302 422Q243 422 210 387T178 288V0H54V520H175V461Q201 496 240 513T327 531Z" horiz-adv-x="394" unicode="r"/>
			<glyph d="M262 526Q366 526 425 484T484 368V364H369V367Q369 397 342 413T261 429Q210 429 185 414T161 373Q161 351 178 338T235 321L318 311Q408 301 451 263T494 161Q494 80 431 37T261 -6Q155 -6 96 37T37 160V163H153V161Q153 130 182 112T268 94Q321 94 348 109T376 153Q376 177 356 190T293 208L216 217Q128 228 86 263T45 365Q45 442 103 484T262 526Z" horiz-adv-x="526" unicode="s"/>
			<glyph d="M239 665V520H357V433H239V168Q239 134 253 119T302 105H346V0H279Q200 0 158 41T116 160V433H25V520H116V622Z" horiz-adv-x="395" unicode="t"/>
			<glyph d="M54 520H178V224Q178 164 203 133T286 102Q344 102 369 132T394 224V520H518V218Q518 105 459 48T286 -9Q171 -9 112 48T54 218Z" horiz-adv-x="572" unicode="u"/>
			<glyph d="M9 520H143L270 167L396 520H530L320 0H218Z" horiz-adv-x="539" unicode="v"/>
			<glyph d="M9 520H140L245 172L366 520H459L582 172L685 520H817L638 0H533L413 352L292 0H187Z" horiz-adv-x="826" unicode="w"/>
			<glyph d="M19 520H155L261 362L360 520H495L322 271L505 0H370L253 174L145 0H9L189 268Z" horiz-adv-x="514" unicode="x"/>
			<glyph d="M9 520H143L278 172L402 520H531L310 -45Q288 -102 245 -128T133 -154H85V-43H139Q175 -43 191 -33T218 2L221 11Z" horiz-adv-x="540" unicode="y"/>
			<glyph d="M46 520H456V416L188 104H456V0H46V104L313 416H46Z" horiz-adv-x="501" unicode="z"/>
			<glyph d="M276 740H355V640H315Q281 640 267 629T253 591V457Q253 401 237 372T183 330Q221 316 237 287T253 203V65Q253 38 267 27T315 16H355V-84H276Q136 -84 136 44V197Q136 240 116 258T46 277V383Q96 383 116 401T136 463V613Q136 740 276 740Z" horiz-adv-x="400" unicode="{"/>
			<glyph d="M91 740H206V-84H91Z" horiz-adv-x="296" unicode="|"/>
			<glyph d="M46 740H125Q264 740 264 613V463Q264 421 284 402T355 383V277Q304 277 284 258T264 197V44Q264 -84 125 -84H46V16H85Q119 16 133 27T148 65V203Q148 259 164 287T218 330Q180 344 164 372T148 457V591Q148 618 134 629T85 640H46Z" horiz-adv-x="400" unicode="}"/>
			<glyph d="M182 354Q208 354 229 346T278 322Q300 310 314 304T343 298Q365 298 380 311T411 354L491 305Q468 252 430 223T347 195Q321 195 299 203T251 228Q227 241 214 246T187 252Q166 252 150 239T119 196L39 245Q63 298 100 326T182 354Z" horiz-adv-x="529" unicode="~"/>
			<glyph d="" horiz-adv-x="229" unicode=" "/>
			<glyph d="M58 520H191V389H58ZM78 290H171L195 -156H54Z" horiz-adv-x="249" unicode="¡"/>
			<glyph d="M250 618H322V527Q413 518 463 468T514 337V331H393V335Q393 374 364 396T286 419Q228 419 198 388T169 290V231Q169 163 199 132T289 102Q337 102 364 123T392 182V186H513V182Q513 101 462 51T322 -7V-100H250V-8Q153 1 99 61T46 230V292Q46 399 100 459T250 528Z" horiz-adv-x="559" unicode="¢"/>
			<glyph d="M301 700Q392 700 444 655T496 529H374Q374 558 356 573T303 589Q267 589 248 570T229 517V390H391V276H229V214Q229 180 220 155T194 113H496V0H48V108Q75 119 86 140T98 201V276H28V390H98V502Q98 596 151 648T301 700Z" horiz-adv-x="518" unicode="£"/>
			<glyph d="M127 558L193 492Q241 519 297 519Q353 519 401 492L468 558L540 485L474 418Q501 370 501 316Q501 259 475 213L541 147L468 74L402 140Q355 112 297 112Q239 112 192 140L127 75L54 148L120 214Q94 258 94 316Q94 370 121 418L54 485ZM297 421Q253 421 224 391T195 316Q195 271 224 240T297 210Q342 210 371 240T400 316Q400 361 371 391T297 421Z" horiz-adv-x="595" unicode="¤"/>
			<glyph d="M7 690H149L282 413L409 690H551L366 348H498V260H344V205H498V117H344V0H214V117H60V205H214V260H60V348H192Z" horiz-adv-x="558" unicode="¥"/>
			<glyph d="M91 740H206V388H91ZM91 270H206V-84H91Z" horiz-adv-x="296" unicode="¦"/>
			<glyph d="M284 716Q379 716 430 670T481 545H369Q369 578 347 596T283 614Q245 614 224 598T203 554Q203 519 232 501T336 466Q501 424 501 281Q501 224 474 184T402 124Q444 103 461 71T479 -6Q479 -80 423 -124T276 -168Q180 -168 127 -123T75 4H188Q188 -30 210 -48T277 -66Q317 -66 338 -50T360 -5Q360 31 329 50T225 86Q59 128 59 273Q59 328 84 367T157 429Q84 468 84 555Q84 602 109 638T179 695T284 716ZM281 364Q231 364 205 341T179 276Q179 234 205 211T281 188Q330 188 355 211T381 276Q381 319 355 341T281 364Z" horiz-adv-x="560" unicode="§"/>
			<glyph d="M82 703H189V587H82ZM311 703H418V587H311Z" unicode="¨"/>
			<glyph d="M397 693Q500 693 577 649T697 525T739 342Q739 238 697 158T577 35T397 -9Q294 -9 216 35T97 158T55 342Q55 447 97 526T216 649T397 693ZM397 617Q275 617 205 543T136 342Q136 215 205 141T397 68Q519 68 588 141T658 342Q658 469 588 543T397 617ZM397 536Q472 536 515 499T559 398V393H472V396Q472 424 452 440T400 456Q361 456 341 434T321 363V320Q321 271 341 249T402 227Q434 227 453 242T472 285V288H559V285Q559 221 515 184T397 148Q321 148 276 192T232 320V364Q232 448 276 492T397 536Z" horiz-adv-x="784" unicode="©"/>
			<glyph d="M183 748Q333 748 333 624V430H247V460Q228 442 207 434T155 426Q98 426 67 453T36 527Q36 572 68 595T163 619H244V630Q244 657 229 669T182 682Q154 682 141 672T128 649V647H46V649Q46 694 81 721T183 748ZM174 561Q122 561 122 530Q122 514 135 505T175 496Q244 496 244 552V561Z" horiz-adv-x="377" unicode="ª"/>
			<glyph d="M273 491V366L157 264L273 162V37L18 264ZM528 491V366L411 264L528 162V37L273 264Z" horiz-adv-x="582" unicode="«"/>
			<glyph d="M50 365H478V120H355V254H50Z" horiz-adv-x="529" unicode="¬"/>
			<glyph d="M46 403H355V288H46Z" horiz-adv-x="400" unicode="­"/>
			<glyph d="M247 691Q301 691 344 666T411 597T436 500Q436 446 411 402T344 333T247 308Q193 308 150 333T83 402T59 500Q59 554 83 597T151 666T247 691ZM247 651Q183 651 142 609T101 500Q101 433 142 390T247 348Q312 348 352 390T393 500Q393 567 352 609T247 651ZM170 607H258Q295 607 315 590T335 541Q335 499 298 481L340 395H284L247 473H222V395H170ZM222 563V517H255Q283 517 283 540Q283 563 255 563Z" horiz-adv-x="495" unicode="®"/>
			<glyph d="M91 700H409V590H91Z" unicode="¯"/>
			<glyph d="M202 701Q243 701 276 681T329 628T349 554Q349 513 329 479T276 426T202 407Q139 407 97 449T55 554Q55 595 74 628T127 681T202 701ZM202 626Q171 626 152 606T133 554Q133 522 152 502T202 482Q232 482 251 502T271 554Q271 585 251 605T202 626Z" horiz-adv-x="394" unicode="°"/>
			<glyph d="M208 555H322V395H481V281H322V121H208V281H48V395H208ZM48 78H481V-36H48Z" horiz-adv-x="529" unicode="±"/>
			<glyph d="M195 856Q264 856 304 822T344 734V726Q344 690 328 663T275 602L195 519H344V430H50V510L204 665Q223 682 231 695T239 723V729Q239 770 192 770Q169 770 157 759T145 730V724H46V733Q46 790 85 823T195 856Z" horiz-adv-x="390" unicode="²"/>
			<glyph d="M190 856Q256 856 294 825T332 741V734Q332 708 317 686T275 653Q306 645 323 619T340 558V550Q340 492 299 457T191 423Q118 423 80 453T43 543V551H136V545Q136 507 189 507Q214 507 227 518T240 549V556Q240 602 180 602H156V687H179Q233 687 233 726V733Q233 772 186 772Q137 772 137 735V728H45V734Q45 794 82 825T190 856Z" horiz-adv-x="384" unicode="³"/>
			<glyph d="M235 721H372L234 588H127Z" unicode="´"/>
			<glyph d="M54 520H178V221Q178 162 204 133T281 104Q333 104 363 135T394 226V520H518V0H397V56Q378 27 342 10T265 -6Q215 -6 178 14V-156H54Z" horiz-adv-x="572" unicode="µ"/>
			<glyph d="M299 690H609V-156H500V590H414V-156H304V263H302Q186 263 122 319T59 477Q59 579 122 634T299 690Z" horiz-adv-x="698" unicode="¶"/>
			<glyph d="M38 350H177V208H38Z" horiz-adv-x="215" unicode="·"/>
			<glyph d="M230 13H331L262 -156H143Z" unicode="¸"/>
			<glyph d="M120 849H223V430H120V742L31 693V799Z" horiz-adv-x="285" unicode="¹"/>
			<glyph d="M189 748Q260 748 300 711T340 605V573Q340 502 299 464T189 426Q117 426 77 463T38 573V605Q38 674 78 711T189 748ZM189 668Q160 668 143 652T127 605V574Q127 541 143 523T189 506Q218 506 234 523T251 574V605Q251 636 234 652T189 668Z" horiz-adv-x="378" unicode="º"/>
			<glyph d="M54 491L309 264L54 37V162L171 264L54 366ZM309 491L564 264L309 37V162L425 264L309 366Z" horiz-adv-x="582" unicode="»"/>
			<glyph d="M566 695H668L224 0H123ZM120 690H223V271H120V583L31 534V640ZM636 419H741L607 146H697V234H800V146H830V57H800V0H697V57H502V146Z" horiz-adv-x="859" unicode="¼"/>
			<glyph d="M566 695H668L224 0H123ZM120 690H223V271H120V583L31 534V640ZM687 426Q756 426 796 392T836 304V296Q836 260 820 233T767 172L687 89H836V0H542V80L696 235Q715 252 723 265T731 293V299Q731 340 684 340Q661 340 649 329T637 300V294H538V303Q538 360 577 393T687 426Z" horiz-adv-x="882" unicode="½"/>
			<glyph d="M190 697Q256 697 294 666T332 582V575Q332 549 317 527T275 494Q306 486 323 460T340 399V391Q340 333 299 298T191 264Q118 264 80 294T43 384V392H136V386Q136 348 189 348Q214 348 227 359T240 390V397Q240 443 180 443H156V528H179Q233 528 233 567V574Q233 613 186 613Q137 613 137 576V569H45V575Q45 635 82 666T190 697ZM659 695H761L317 0H216ZM729 419H834L700 146H790V234H893V146H923V57H893V0H790V57H595V146Z" horiz-adv-x="952" unicode="¾"/>
			<glyph d="M193 520H324V392H193ZM197 325H321V293Q321 243 309 214T260 152L212 107Q184 82 173 62T162 20Q162 -16 186 -35T258 -54Q306 -54 328 -34T352 26H473Q469 -166 256 -166Q152 -166 93 -118T34 12Q34 53 49 89T102 161L152 208Q179 233 188 253T197 308Z" unicode="¿"/>
			<glyph d="M287 690H394L677 0H537L487 134H194L144 0H4ZM340 524L235 243H446ZM160 891H309L429 758H317Z" horiz-adv-x="681" unicode="À"/>
			<glyph d="M287 690H394L677 0H537L487 134H194L144 0H4ZM340 524L235 243H446ZM338 891H487L330 758H218Z" horiz-adv-x="681" unicode="Á"/>
			<glyph d="M287 690H394L677 0H537L487 134H194L144 0H4ZM340 524L235 243H446ZM295 898H386L521 747H417L341 827L264 747H160Z" horiz-adv-x="681" unicode="Â"/>
			<glyph d="M287 690H394L677 0H537L487 134H194L144 0H4ZM340 524L235 243H446ZM500 887V795Q476 772 455 762T409 753Q387 753 370 758T330 774Q327 775 314 780T289 788T267 791Q246 791 228 782T181 752V843Q205 866 225 875T273 885Q295 885 312 880T351 865Q371 856 385 851T416 847Q437 847 454 855T500 887Z" horiz-adv-x="681" unicode="Ã"/>
			<glyph d="M287 690H394L677 0H537L487 134H194L144 0H4ZM340 524L235 243H446ZM172 873H279V757H172ZM402 873H509V757H402Z" horiz-adv-x="681" unicode="Ä"/>
			<glyph d="M341 882Q385 882 414 852T444 778Q444 749 430 725T394 689L677 0H537L487 134H194L144 0H4L287 689Q264 703 251 726T238 778Q238 823 267 852T341 882ZM341 827Q321 827 308 813T295 778Q295 758 308 744T341 730Q361 730 374 744T388 778Q388 799 374 813T341 827ZM340 524L235 243H446Z" horiz-adv-x="681" unicode="Å"/>
			<glyph d="M403 690H960V576H603V405H909V291H603V114H960V0H471V141H228L150 0H4ZM471 580L288 250H471Z" horiz-adv-x="995" unicode="Æ"/>
			<glyph d="M350 703Q477 703 552 640T628 467V459H497V463Q497 521 458 554T350 588Q268 588 227 540T187 393V294Q187 199 228 153T351 107Q420 107 458 139T497 229V234H627V229Q627 131 570 70T415 -6L354 -156H235L310 -9Q189 1 122 76T55 292V400Q55 551 133 627T350 703Z" horiz-adv-x="673" unicode="Ç"/>
			<glyph d="M59 690H552V576H190V405H501V291H190V114H552V0H59ZM120 891H269L389 758H277Z" horiz-adv-x="587" unicode="È"/>
			<glyph d="M59 690H552V576H190V405H501V291H190V114H552V0H59ZM336 891H485L328 758H216Z" horiz-adv-x="587" unicode="É"/>
			<glyph d="M59 690H552V576H190V405H501V291H190V114H552V0H59ZM255 898H346L481 747H377L301 827L224 747H120Z" horiz-adv-x="587" unicode="Ê"/>
			<glyph d="M59 690H552V576H190V405H501V291H190V114H552V0H59ZM132 873H239V757H132ZM362 873H469V757H362Z" horiz-adv-x="587" unicode="Ë"/>
			<glyph d="M65 690H196V0H65ZM-51 891H98L218 758H106Z" horiz-adv-x="261" unicode="Ì"/>
			<glyph d="M65 690H196V0H65ZM165 891H314L157 758H45Z" horiz-adv-x="261" unicode="Í"/>
			<glyph d="M65 690H196V0H65ZM84 898H175L310 747H206L130 827L53 747H-51Z" horiz-adv-x="261" unicode="Î"/>
			<glyph d="M65 690H196V0H65ZM-39 873H68V757H-39ZM191 873H298V757H191Z" horiz-adv-x="261" unicode="Ï"/>
			<glyph d="M91 690H360Q498 690 573 616T649 388V303Q649 149 572 74T355 0H91V294H27V409H91ZM222 576V409H379V294H222V114H359Q440 114 479 159T518 303V381Q518 483 479 529T359 576Z" horiz-adv-x="694" unicode="Ð"/>
			<glyph d="M59 690H190L509 232V690H640V0H509L190 457V0H59ZM509 887V795Q485 772 464 762T418 753Q396 753 379 758T339 774Q336 775 323 780T298 788T276 791Q255 791 237 782T190 752V843Q214 866 234 875T282 885Q304 885 321 880T360 865Q380 856 394 851T425 847Q446 847 463 855T509 887Z" horiz-adv-x="699" unicode="Ñ"/>
			<glyph d="M343 703Q476 703 552 627T628 400V292Q628 142 550 65T339 -11Q205 -11 130 65T55 292V400Q55 551 131 627T343 703ZM343 588Q264 588 225 540T187 393V294Q187 199 225 153T343 107Q497 107 497 294V393Q497 588 343 588ZM161 891H310L430 758H318Z" horiz-adv-x="673" unicode="Ò"/>
			<glyph d="M343 703Q476 703 552 627T628 400V292Q628 142 550 65T339 -11Q205 -11 130 65T55 292V400Q55 551 131 627T343 703ZM343 588Q264 588 225 540T187 393V294Q187 199 225 153T343 107Q497 107 497 294V393Q497 588 343 588ZM335 891H484L327 758H215Z" horiz-adv-x="673" unicode="Ó"/>
			<glyph d="M343 703Q476 703 552 627T628 400V292Q628 142 550 65T339 -11Q205 -11 130 65T55 292V400Q55 551 131 627T343 703ZM343 588Q264 588 225 540T187 393V294Q187 199 225 153T343 107Q497 107 497 294V393Q497 588 343 588ZM296 898H387L522 747H418L342 827L265 747H161Z" horiz-adv-x="673" unicode="Ô"/>
			<glyph d="M343 703Q476 703 552 627T628 400V292Q628 142 550 65T339 -11Q205 -11 130 65T55 292V400Q55 551 131 627T343 703ZM343 588Q264 588 225 540T187 393V294Q187 199 225 153T343 107Q497 107 497 294V393Q497 588 343 588ZM501 887V795Q477 772 456 762T410 753Q388 753 371 758T331 774Q328 775 315 780T290 788T268 791Q247 791 229 782T182 752V843Q206 866 226 875T274 885Q296 885 313 880T352 865Q372 856 386 851T417 847Q438 847 455 855T501 887Z" horiz-adv-x="673" unicode="Õ"/>
			<glyph d="M343 703Q476 703 552 627T628 400V292Q628 142 550 65T339 -11Q205 -11 130 65T55 292V400Q55 551 131 627T343 703ZM343 588Q264 588 225 540T187 393V294Q187 199 225 153T343 107Q497 107 497 294V393Q497 588 343 588ZM173 873H280V757H173ZM403 873H510V757H403Z" horiz-adv-x="673" unicode="Ö"/>
			<glyph d="M145 472L265 353L384 472L460 395L341 276L460 157L384 80L265 200L145 80L69 157L188 276L69 396Z" horiz-adv-x="529" unicode="×"/>
			<glyph d="M543 715H623L560 620Q629 542 629 400V292Q629 142 551 65T340 -11Q239 -11 172 32L137 -20H55L120 78Q56 156 56 292V400Q56 551 132 627T344 703Q441 703 508 663ZM344 588Q265 588 226 540T188 393V294Q188 238 201 200L440 559Q404 588 344 588ZM481 501L242 138Q279 107 344 107Q498 107 498 294V393Q498 456 481 501Z" horiz-adv-x="673" unicode="Ø"/>
			<glyph d="M59 690H190V252Q190 182 228 145T337 108Q408 108 447 145T486 252V690H617V248Q617 171 582 113T484 25T337 -6Q254 -6 191 25T93 113T59 248ZM157 891H306L426 758H314Z" horiz-adv-x="676" unicode="Ù"/>
			<glyph d="M59 690H190V252Q190 182 228 145T337 108Q408 108 447 145T486 252V690H617V248Q617 171 582 113T484 25T337 -6Q254 -6 191 25T93 113T59 248ZM373 891H522L365 758H253Z" horiz-adv-x="676" unicode="Ú"/>
			<glyph d="M59 690H190V252Q190 182 228 145T337 108Q408 108 447 145T486 252V690H617V248Q617 171 582 113T484 25T337 -6Q254 -6 191 25T93 113T59 248ZM292 898H383L518 747H414L338 827L261 747H157Z" horiz-adv-x="676" unicode="Û"/>
			<glyph d="M59 690H190V252Q190 182 228 145T337 108Q408 108 447 145T486 252V690H617V248Q617 171 582 113T484 25T337 -6Q254 -6 191 25T93 113T59 248ZM169 873H276V757H169ZM399 873H506V757H399Z" horiz-adv-x="676" unicode="Ü"/>
			<glyph d="M4 690H152L304 401L456 690H604L370 285V0H239V284ZM339 891H488L331 758H219Z" horiz-adv-x="608" unicode="Ý"/>
			<glyph d="M59 690H190V576H357Q473 576 538 520T604 360Q604 260 538 204T352 149H190V0H59ZM190 462V263H362Q473 263 473 361Q473 412 444 437T362 462Z" horiz-adv-x="628" unicode="Þ"/>
			<glyph d="M292 700Q403 700 462 657T522 535Q522 493 505 464T453 418Q498 396 515 354T532 230Q532 144 512 93T448 19T325 -4H279V100H315Q354 100 374 112T401 152T409 230Q409 280 400 308T369 349T305 362H279V465H314Q399 465 399 528Q399 562 373 578T293 594Q232 594 205 572T178 499V0H54V488Q54 595 111 647T292 700Z" horiz-adv-x="577" unicode="ß"/>
			<glyph d="M269 526Q380 526 439 476T499 332V0H379V48Q348 19 313 6T228 -6Q134 -6 85 36T37 155Q37 229 88 268T237 307H376V338Q376 431 266 431Q216 431 193 413T171 367V364H53V367Q53 441 111 483T269 526ZM260 222Q207 222 182 206T157 158Q157 127 181 110T255 93Q376 93 376 190V222ZM87 721H236L356 588H244Z" horiz-adv-x="553" unicode="à"/>
			<glyph d="M269 526Q380 526 439 476T499 332V0H379V48Q348 19 313 6T228 -6Q134 -6 85 36T37 155Q37 229 88 268T237 307H376V338Q376 431 266 431Q216 431 193 413T171 367V364H53V367Q53 441 111 483T269 526ZM260 222Q207 222 182 206T157 158Q157 127 181 110T255 93Q376 93 376 190V222ZM277 721H426L269 588H157Z" horiz-adv-x="553" unicode="á"/>
			<glyph d="M269 526Q380 526 439 476T499 332V0H379V48Q348 19 313 6T228 -6Q134 -6 85 36T37 155Q37 229 88 268T237 307H376V338Q376 431 266 431Q216 431 193 413T171 367V364H53V367Q53 441 111 483T269 526ZM260 222Q207 222 182 206T157 158Q157 127 181 110T255 93Q376 93 376 190V222ZM222 728H313L448 577H344L268 657L191 577H87Z" horiz-adv-x="553" unicode="â"/>
			<glyph d="M269 526Q380 526 439 476T499 332V0H379V48Q348 19 313 6T228 -6Q134 -6 85 36T37 155Q37 229 88 268T237 307H376V338Q376 431 266 431Q216 431 193 413T171 367V364H53V367Q53 441 111 483T269 526ZM260 222Q207 222 182 206T157 158Q157 127 181 110T255 93Q376 93 376 190V222ZM427 717V625Q403 602 382 592T336 583Q314 583 297 588T257 604Q254 605 241 610T216 618T194 621Q173 621 155 612T108 582V673Q132 696 152 705T200 715Q222 715 239 710T278 695Q298 686 312 681T343 677Q364 677 381 685T427 717Z" horiz-adv-x="553" unicode="ã"/>
			<glyph d="M269 526Q380 526 439 476T499 332V0H379V48Q348 19 313 6T228 -6Q134 -6 85 36T37 155Q37 229 88 268T237 307H376V338Q376 431 266 431Q216 431 193 413T171 367V364H53V367Q53 441 111 483T269 526ZM260 222Q207 222 182 206T157 158Q157 127 181 110T255 93Q376 93 376 190V222ZM99 703H206V587H99ZM329 703H436V587H329Z" horiz-adv-x="553" unicode="ä"/>
			<glyph d="M269 526Q380 526 439 476T499 332V0H379V48Q348 19 313 6T228 -6Q134 -6 85 36T37 155Q37 229 88 268T237 307H376V338Q376 431 266 431Q216 431 193 413T171 367V364H53V367Q53 441 111 483T269 526ZM260 222Q207 222 182 206T157 158Q157 127 181 110T255 93Q376 93 376 190V222ZM268 773Q312 773 341 743T371 669Q371 625 341 595T268 566Q224 566 194 595T165 669Q165 714 194 743T268 773ZM268 718Q248 718 235 704T222 669Q222 649 235 635T268 621Q288 621 301 635T315 669Q315 690 301 704T268 718Z" horiz-adv-x="553" unicode="å"/>
			<glyph d="M616 529Q727 529 791 465T855 284V224H499Q499 99 626 99Q670 99 697 115T729 160L730 163H851L850 157Q847 110 819 72T742 12T626 -9Q506 -9 438 62Q372 -9 246 -9Q146 -9 91 35T37 157Q37 232 88 270T237 309H376V338Q376 431 266 431Q216 431 193 413T171 367V364H53V367Q53 441 111 483T269 526Q385 526 445 469Q510 529 616 529ZM616 423Q505 423 499 309H732V317Q732 369 700 396T616 423ZM260 224Q207 224 182 209T157 161Q157 93 255 93Q316 93 346 118T376 193V224Z" horiz-adv-x="900" unicode="æ"/>
			<glyph d="M283 529Q392 529 453 478T514 337V331H393V335Q393 374 364 396T286 419Q228 419 198 388T169 290V231Q169 163 199 132T289 102Q337 102 364 123T392 182V186H513V182Q513 109 471 61T355 -2L292 -156H173L249 -7Q153 1 99 61T46 230V292Q46 408 109 468T283 529Z" horiz-adv-x="559" unicode="ç"/>
			<glyph d="M286 529Q398 529 462 466T526 286V226H169V224Q169 99 297 99Q340 99 367 115T399 160L400 163H521V157Q516 82 454 36T292 -9Q177 -9 111 54T46 238V283Q46 402 110 465T286 529ZM286 423Q176 423 169 311H402V318Q402 370 370 396T286 423ZM104 721H253L373 588H261Z" horiz-adv-x="571" unicode="è"/>
			<glyph d="M286 529Q398 529 462 466T526 286V226H169V224Q169 99 297 99Q340 99 367 115T399 160L400 163H521V157Q516 82 454 36T292 -9Q177 -9 111 54T46 238V283Q46 402 110 465T286 529ZM286 423Q176 423 169 311H402V318Q402 370 370 396T286 423ZM293 721H442L285 588H173Z" horiz-adv-x="571" unicode="é"/>
			<glyph d="M286 529Q398 529 462 466T526 286V226H169V224Q169 99 297 99Q340 99 367 115T399 160L400 163H521V157Q516 82 454 36T292 -9Q177 -9 111 54T46 238V283Q46 402 110 465T286 529ZM286 423Q176 423 169 311H402V318Q402 370 370 396T286 423ZM239 728H330L465 577H361L285 657L208 577H104Z" horiz-adv-x="571" unicode="ê"/>
			<glyph d="M286 529Q398 529 462 466T526 286V226H169V224Q169 99 297 99Q340 99 367 115T399 160L400 163H521V157Q516 82 454 36T292 -9Q177 -9 111 54T46 238V283Q46 402 110 465T286 529ZM286 423Q176 423 169 311H402V318Q402 370 370 396T286 423ZM116 703H223V587H116ZM346 703H453V587H346Z" horiz-adv-x="571" unicode="ë"/>
			<glyph d="M59 520H182V0H59ZM-61 721H88L208 588H96Z" horiz-adv-x="241" unicode="ì"/>
			<glyph d="M59 520H182V0H59ZM155 721H304L147 588H35Z" horiz-adv-x="241" unicode="í"/>
			<glyph d="M59 520H182V0H59ZM74 728H165L300 577H196L120 657L43 577H-61Z" horiz-adv-x="241" unicode="î"/>
			<glyph d="M59 520H182V0H59ZM-49 703H58V587H-49ZM181 703H288V587H181Z" horiz-adv-x="241" unicode="ï"/>
			<glyph d="M128 695H263L309 639L424 670L448 592L366 569L404 523Q463 449 490 385T517 250V225Q517 115 453 52T281 -11Q170 -11 108 50T46 218V245Q46 344 99 404T243 465Q293 465 326 450L254 539L132 505L107 584L198 609ZM282 365Q223 365 192 334T161 247V222Q161 163 192 130T282 97Q340 97 370 130T401 222V246Q401 301 370 333T282 365Z" horiz-adv-x="562" unicode="ð"/>
			<glyph d="M328 526Q418 526 468 472T518 324V0H394V299Q394 416 291 416Q238 416 208 385T178 294V0H54V520H175V464Q203 494 242 510T328 526ZM445 717V625Q421 602 400 592T354 583Q332 583 315 588T275 604Q272 605 259 610T234 618T212 621Q191 621 173 612T126 582V673Q150 696 170 705T218 715Q240 715 257 710T296 695Q316 686 330 681T361 677Q382 677 399 685T445 717Z" horiz-adv-x="572" unicode="ñ"/>
			<glyph d="M283 529Q393 529 455 468T518 292V230Q518 113 455 52T283 -9Q172 -9 109 52T46 230V292Q46 408 109 468T283 529ZM283 419Q169 419 169 290V231Q169 102 283 102Q395 102 395 231V290Q395 356 366 387T283 419ZM102 721H251L371 588H259Z" horiz-adv-x="563" unicode="ò"/>
			<glyph d="M283 529Q393 529 455 468T518 292V230Q518 113 455 52T283 -9Q172 -9 109 52T46 230V292Q46 408 109 468T283 529ZM283 419Q169 419 169 290V231Q169 102 283 102Q395 102 395 231V290Q395 356 366 387T283 419ZM291 721H440L283 588H171Z" horiz-adv-x="563" unicode="ó"/>
			<glyph d="M283 529Q393 529 455 468T518 292V230Q518 113 455 52T283 -9Q172 -9 109 52T46 230V292Q46 408 109 468T283 529ZM283 419Q169 419 169 290V231Q169 102 283 102Q395 102 395 231V290Q395 356 366 387T283 419ZM237 728H328L463 577H359L283 657L206 577H102Z" horiz-adv-x="563" unicode="ô"/>
			<glyph d="M283 529Q393 529 455 468T518 292V230Q518 113 455 52T283 -9Q172 -9 109 52T46 230V292Q46 408 109 468T283 529ZM283 419Q169 419 169 290V231Q169 102 283 102Q395 102 395 231V290Q395 356 366 387T283 419ZM442 717V625Q418 602 397 592T351 583Q329 583 312 588T272 604Q269 605 256 610T231 618T209 621Q188 621 170 612T123 582V673Q147 696 167 705T215 715Q237 715 254 710T293 695Q313 686 327 681T358 677Q379 677 396 685T442 717Z" horiz-adv-x="563" unicode="õ"/>
			<glyph d="M283 529Q393 529 455 468T518 292V230Q518 113 455 52T283 -9Q172 -9 109 52T46 230V292Q46 408 109 468T283 529ZM283 419Q169 419 169 290V231Q169 102 283 102Q395 102 395 231V290Q395 356 366 387T283 419ZM114 703H221V587H114ZM344 703H451V587H344Z" horiz-adv-x="563" unicode="ö"/>
			<glyph d="M264 510Q292 510 311 490T331 443Q331 415 311 395T264 376Q236 376 217 395T198 443Q198 471 217 490T264 510ZM48 333H481V219H48ZM264 177Q292 177 311 157T331 110Q331 82 312 62T264 43Q236 43 217 62T198 110Q198 138 217 157T264 177Z" horiz-adv-x="529" unicode="÷"/>
			<glyph d="M449 546H518L460 463Q518 402 518 292V230Q518 113 455 52T283 -9Q205 -9 151 21L116 -29H46L105 56Q46 117 46 230V292Q46 408 109 468T283 529Q362 529 415 498ZM283 419Q169 419 169 290V231Q169 191 180 163L348 402Q324 419 283 419ZM385 355L218 117Q245 102 283 102Q395 102 395 231V290Q395 327 385 355Z" horiz-adv-x="563" unicode="ø"/>
			<glyph d="M54 520H178V224Q178 164 203 133T286 102Q344 102 369 132T394 224V520H518V218Q518 105 459 48T286 -9Q171 -9 112 48T54 218ZM105 721H254L374 588H262Z" horiz-adv-x="572" unicode="ù"/>
			<glyph d="M54 520H178V224Q178 164 203 133T286 102Q344 102 369 132T394 224V520H518V218Q518 105 459 48T286 -9Q171 -9 112 48T54 218ZM295 721H444L287 588H175Z" horiz-adv-x="572" unicode="ú"/>
			<glyph d="M54 520H178V224Q178 164 203 133T286 102Q344 102 369 132T394 224V520H518V218Q518 105 459 48T286 -9Q171 -9 112 48T54 218ZM240 728H331L466 577H362L286 657L209 577H105Z" horiz-adv-x="572" unicode="û"/>
			<glyph d="M54 520H178V224Q178 164 203 133T286 102Q344 102 369 132T394 224V520H518V218Q518 105 459 48T286 -9Q171 -9 112 48T54 218ZM117 703H224V587H117ZM347 703H454V587H347Z" horiz-adv-x="572" unicode="ü"/>
			<glyph d="M9 520H143L278 172L402 520H531L310 -45Q288 -102 245 -128T133 -154H85V-43H139Q175 -43 191 -33T218 2L221 11ZM307 721H456L299 588H187Z" horiz-adv-x="540" unicode="ý"/>
			<glyph d="M54 690H178V461Q203 493 240 511T323 529Q416 529 471 469T526 296V231Q526 156 499 101T427 19T322 -9Q229 -9 175 53V-156H54ZM291 419Q238 419 208 385T178 292V226Q178 169 209 135T293 102Q346 102 374 135T402 236V290Q402 419 291 419Z" horiz-adv-x="571" unicode="þ"/>
			<glyph d="M9 520H143L278 172L402 520H531L310 -45Q288 -102 245 -128T133 -154H85V-43H139Q175 -43 191 -33T218 2L221 11ZM103 703H210V587H103ZM333 703H440V587H333Z" horiz-adv-x="540" unicode="ÿ"/>
			<glyph d="M59 520H182V0H59Z" horiz-adv-x="241" unicode="ı"/>
			<glyph d="M337 703Q432 703 502 658V690H979V576H628V405H928V291H628V114H979V0H502V35Q431 -11 334 -11Q205 -11 130 65T55 292V400Q55 550 131 626T337 703ZM343 588Q264 588 225 540T187 393V294Q187 199 225 153T343 107Q497 107 497 294V393Q497 588 343 588Z" horiz-adv-x="1014" unicode="Œ"/>
			<glyph d="M283 529Q397 529 458 465Q522 529 635 529Q746 529 810 466T874 286V226H518V224Q518 99 646 99Q689 99 716 115T748 160L749 163H870L869 157Q864 82 803 36T640 -9Q521 -9 459 56Q397 -9 283 -9Q172 -9 109 52T46 230V292Q46 408 109 468T283 529ZM635 423Q525 423 518 311H751V318Q751 370 719 396T635 423ZM283 419Q169 419 169 290V231Q169 102 283 102Q395 102 395 231V290Q395 356 366 387T283 419Z" horiz-adv-x="919" unicode="œ"/>
			<glyph d="M306 700Q423 700 489 647T563 494H437Q433 544 400 567T303 590Q238 590 205 567T172 502Q172 464 201 443T294 414L377 403Q475 390 526 341T577 209Q577 105 503 49T300 -6Q174 -6 105 49T28 210H153Q160 155 197 130T307 106Q448 106 448 199Q448 240 420 261T328 290L255 299Q45 325 45 492Q45 589 115 644T306 700ZM124 891H228L305 812L381 891H485L350 740H259Z" horiz-adv-x="608" unicode="Š"/>
			<glyph d="M262 526Q366 526 425 484T484 368V364H369V367Q369 397 342 413T261 429Q210 429 185 414T161 373Q161 351 178 338T235 321L318 311Q408 301 451 263T494 161Q494 80 431 37T261 -6Q155 -6 96 37T37 160V163H153V161Q153 130 182 112T268 94Q321 94 348 109T376 153Q376 177 356 190T293 208L216 217Q128 228 86 263T45 365Q45 442 103 484T262 526ZM83 721H187L264 642L340 721H444L309 570H218Z" horiz-adv-x="526" unicode="š"/>
			<glyph d="M4 690H152L304 401L456 690H604L370 285V0H239V284ZM135 873H242V757H135ZM365 873H472V757H365Z" horiz-adv-x="608" unicode="Ÿ"/>
			<glyph d="M37 690H524V576L181 115H534V0H30V115L374 576H37ZM100 891H204L281 812L357 891H461L326 740H235Z" horiz-adv-x="561" unicode="Ž"/>
			<glyph d="M46 520H456V416L188 104H456V0H46V104L313 416H46ZM71 721H175L252 642L328 721H432L297 570H206Z" horiz-adv-x="501" unicode="ž"/>
			<glyph d="M394 690H460V576H411Q372 576 354 560T331 505L318 423H441V313H302L258 19Q244 -75 200 -115T69 -156H9V-39H53Q93 -39 111 -23T136 34L177 313H82V423H193L208 518Q222 609 265 649T394 690Z" horiz-adv-x="469" unicode="ƒ"/>
			<glyph d="M204 728H295L430 577H326L250 657L174 577H69Z" unicode="ˆ"/>
			<glyph d="M70 721H174L251 642L327 721H431L296 570H205Z" unicode="ˇ"/>
			<glyph d="M189 693H312V594H189Z" unicode="˙"/>
			<glyph d="M248 784Q292 784 321 754T351 680Q351 636 321 606T248 577Q204 577 174 606T145 680Q145 725 174 754T248 784ZM248 729Q228 729 215 715T202 680Q202 660 215 646T248 632Q268 632 281 646T295 680Q295 701 281 715T248 729Z" unicode="˚"/>
			<glyph d="M409 717V625Q385 602 364 592T318 583Q296 583 279 588T240 603Q219 612 206 616T176 621Q155 621 138 613T90 582V673Q114 695 135 705T182 715Q205 715 222 710T261 695Q282 686 295 681T325 677Q346 677 363 685T409 717Z" unicode="˜"/>
			<glyph d="M-181 721H-32L88 588H-24Z" horiz-adv-x="0" unicode="̀"/>
			<glyph d="M35 721H184L27 588H-85Z" horiz-adv-x="0" unicode="́"/>
			<glyph d="M-46 728H45L180 577H76L0 657L-77 577H-181Z" horiz-adv-x="0" unicode="̂"/>
			<glyph d="M159 717V625Q135 602 114 592T68 583Q46 583 29 588T-11 604Q-14 605 -27 610T-51 618T-74 621Q-95 621 -113 612T-160 582V673Q-136 696 -115 705T-68 715Q-46 715 -29 710T10 695Q30 686 44 681T75 677Q96 677 113 685T159 717Z" horiz-adv-x="0" unicode="̃"/>
			<glyph d="M-169 703H-62V587H-169ZM61 703H168V587H61Z" horiz-adv-x="0" unicode="̈"/>
			<glyph d="M0 794Q44 794 73 764T103 690Q103 646 73 616T0 587Q-44 587 -73 616T-103 690Q-103 735 -73 764T0 794ZM0 739Q-20 739 -33 725T-46 690Q-46 670 -32 656T0 642Q20 642 33 656T47 690Q47 711 33 725T0 739Z" horiz-adv-x="0" unicode="̊"/>
			<glyph d="M0 403H469V288H0Z" horiz-adv-x="469" unicode="–"/>
			<glyph d="M0 403H937V288H0Z" horiz-adv-x="937" unicode="—"/>
			<glyph d="M155 732V433H38V633Z" horiz-adv-x="193" unicode="‘"/>
			<glyph d="M38 690H155V490L38 391Z" horiz-adv-x="193" unicode="’"/>
			<glyph d="M38 137H155V-63L38 -162Z" horiz-adv-x="193" unicode="‚"/>
			<glyph d="M155 732V433H38V633ZM360 732V433H243V633Z" horiz-adv-x="398" unicode="“"/>
			<glyph d="M38 690H155V490L38 391ZM243 690H360V490L243 391Z" horiz-adv-x="398" unicode="”"/>
			<glyph d="M242 137H359V-63L242 -162ZM38 137H155V-63L38 -162Z" horiz-adv-x="397" unicode="„"/>
			<glyph d="M236 690H367V474H546V360H367V-156H236V360H54V474H236Z" horiz-adv-x="600" unicode="†"/>
			<glyph d="M236 690H367V482H546V367H367V172H546V57H367V-156H236V57H54V172H236V367H54V482H236Z" horiz-adv-x="600" unicode="‡"/>
			<glyph d="M227 454Q290 454 331 413T372 308Q372 244 331 203T227 162Q163 162 122 203T81 308Q81 372 122 413T227 454Z" horiz-adv-x="453" unicode="•"/>
			<glyph d="M38 142H177V0H38ZM616 142H755V0H616ZM327 142H466V0H327Z" horiz-adv-x="793" unicode="…"/>
			<glyph d="M199 696Q348 696 348 540V428Q348 264 197 264Q46 264 46 428V540Q46 617 85 656T199 696ZM663 695H765L321 0H220ZM198 608Q170 608 159 589T149 527V433Q149 389 159 371T198 353Q226 353 235 371T245 433V527Q245 571 235 589T198 608ZM788 426Q937 426 937 270V158Q937 -6 786 -6Q635 -6 635 158V270Q635 347 674 386T788 426ZM1169 426Q1318 426 1318 270V158Q1318 -6 1167 -6Q1016 -6 1016 158V270Q1016 347 1055 386T1169 426ZM787 338Q759 338 748 319T738 257V163Q738 119 748 101T787 83Q815 83 824 101T834 163V257Q834 301 824 319T787 338ZM1168 338Q1140 338 1129 319T1119 257V163Q1119 119 1129 101T1168 83Q1196 83 1205 101T1215 163V257Q1215 301 1205 319T1168 338Z" horiz-adv-x="1364" unicode="‰"/>
			<glyph d="M273 491V366L157 264L273 162V37L18 264Z" horiz-adv-x="327" unicode="‹"/>
			<glyph d="M54 491L309 264L54 37V162L171 264L54 366Z" horiz-adv-x="336" unicode="›"/>
			<glyph d="M329 700Q431 700 491 652T557 519H445Q437 557 409 575T331 594Q210 594 210 466V453H442L427 372H210V322H419L403 241H210V229Q210 163 239 129T332 95Q384 95 412 113T448 172H558Q551 83 489 36T328 -11Q214 -11 151 53T88 229V241H27V322H88V372H27V453H88V466Q88 575 151 637T329 700Z" horiz-adv-x="603" unicode="€"/>
			<glyph d="M30 690H371V609H246V296H155V609H30ZM427 690H511L630 455H634L751 690H834V296H750V517H746L662 353H600L514 517H512V296H427Z" horiz-adv-x="893" unicode="™"/>
			<glyph d="M260 690H341V606H295Q259 606 244 592T229 546V520H341V433H229V0H106V433H36V520H106V541Q106 615 145 652T260 690ZM393 693H516V594H393ZM393 520H516V0H393Z" horiz-adv-x="575" unicode="ﬁ"/>
			<glyph d="M260 690H341V606H295Q259 606 244 592T229 546V520H341V433H229V0H106V433H36V520H106V541Q106 615 145 652T260 690ZM388 690H512V176Q512 138 527 122T583 107H630V0H561Q473 0 430 41T388 168Z" horiz-adv-x="648" unicode="ﬂ"/>
		</font>
</defs>
</svg>
