<?xml version="1.0" encoding="UTF-8"?>
<svg height="100%" width="100%" xmlns="http://www.w3.org/2000/svg">
	<defs>
		<font horiz-adv-x="512" id="web">
			<font-face alphabetic="0" ascent="831" descent="-169" font-family="" panose-1="2 11 5 4 3 2 2 3 2 4"/>
			<missing-glyph d="M101 690H498V0H101ZM135 656V34H464V656Z" horiz-adv-x="600"/>
			<glyph d="" horiz-adv-x="217" unicode=" "/>
			<glyph d="M78 690H162L148 196H92ZM75 93H164V0H75Z" horiz-adv-x="239" unicode="!"/>
			<glyph d="M53 690H119V460H53ZM189 690H255V460H189Z" horiz-adv-x="308" unicode="&quot;"/>
			<glyph d="M169 690H228L201 485H339L366 690H426L399 485H486V430H392L372 277H462V221H365L336 0H276L305 221H167L138 0H78L107 221H25V277H115L135 430H49V485H142ZM194 430L174 277H312L332 430Z" horiz-adv-x="511" unicode="#"/>
			<glyph d="M193 741H251V660Q316 652 355 609T402 487H333Q326 582 251 597V378L268 375Q338 362 374 321T411 206Q411 129 368 83T251 29V-59H193V28Q121 36 80 82T33 209H102Q107 156 130 127T193 92V322L186 323Q116 337 80 375T44 486Q44 560 84 605T193 659ZM193 596Q154 589 134 561T114 491Q114 449 133 424T193 390ZM251 310V91Q296 97 318 125T341 201Q341 249 319 274T251 310ZZ" horiz-adv-x="457" unicode="$"/>
			<glyph d="M163 697Q226 697 255 661T285 554V415Q285 341 255 304T163 267Q100 267 71 304T42 415V554Q42 625 72 661T163 697ZM570 690H633L260 0H197ZM163 638Q133 638 121 617T110 548V418Q110 368 121 346T163 325Q194 325 205 346T216 418V548Q216 596 204 617T163 638ZM666 424Q729 424 758 388T788 281V142Q788 68 758 31T666 -6Q603 -6 574 31T545 142V281Q545 352 575 388T666 424ZM666 365Q636 365 624 344T613 275V145Q613 95 624 73T666 52Q697 52 708 73T719 145V275Q719 323 707 344T666 365Z" horiz-adv-x="830" unicode="%"/>
			<glyph d="M252 700Q315 700 355 659T395 558Q395 511 369 471T278 373L402 196L474 292L521 251L440 142L475 92Q494 65 515 65H538V0H504Q477 0 461 9T427 45L398 86Q358 36 317 13T226 -10Q147 -10 103 37T59 163Q59 219 91 270T191 382Q141 455 124 488T107 556Q107 619 148 659T252 700ZM252 640Q218 640 196 617T175 558Q175 535 187 510T241 426Q294 473 311 500T328 559Q328 595 307 617T252 640ZM228 330Q175 283 151 244T127 166Q127 114 154 83T230 53Q265 53 294 72T360 140Z" horiz-adv-x="597" unicode="&amp;"/>
			<glyph d="M53 690H119V460H53Z" horiz-adv-x="172" unicode="'"/>
			<glyph d="M178 740H229Q179 642 153 537T128 328Q128 223 153 117T229 -84H177Q59 112 59 328Q59 546 178 740Z" horiz-adv-x="288" unicode="("/>
			<glyph d="M59 740H110Q229 548 229 328Q229 112 111 -84H59Q109 12 135 118T161 328Q161 432 135 537T59 740Z" horiz-adv-x="288" unicode=")"/>
			<glyph d="M166 690H211V592L298 642L318 606L230 556L318 505L298 469L211 519V415H166V519L80 469L59 505L147 556L59 606L80 642L166 592Z" horiz-adv-x="377" unicode="*"/>
			<glyph d="M223 475H289V309H455V243H289V77H223V243H57V309H223Z" unicode="+"/>
			<glyph d="M53 93H119V-75L53 -137Z" horiz-adv-x="172" unicode=","/>
			<glyph d="M59 380H334V314H59Z" horiz-adv-x="393" unicode="-"/>
			<glyph d="M53 92H141V0H53Z" horiz-adv-x="194" unicode="."/>
			<glyph d="M273 690H333L119 -10H59Z" horiz-adv-x="392" unicode="/"/>
			<glyph d="M246 700Q427 700 427 483V211Q427 -10 246 -10Q66 -10 66 211V483Q66 700 246 700ZM246 634Q188 634 163 595T139 465V225Q139 134 163 95T246 56Q304 56 329 95T354 225V465Q354 556 329 595T246 634Z" horiz-adv-x="493" unicode="0"/>
			<glyph d="M168 690H241V0H169V606L50 517V599Z" horiz-adv-x="329" unicode="1"/>
			<glyph d="M234 700Q286 700 326 677T387 616T409 529V512Q409 470 394 432T349 353L149 65H409V0H59V59L291 391Q335 456 335 512V527Q335 577 307 606T232 635Q185 635 158 606T131 523V505H59V527Q59 605 106 652T234 700Z" horiz-adv-x="468" unicode="2"/>
			<glyph d="M243 700Q323 700 370 653T417 529V507Q417 457 393 420T330 365Q378 347 403 304T429 203V179Q429 93 377 41T242 -10Q159 -10 110 34T61 155V171H134V158Q134 110 163 82T243 55Q296 55 326 87T356 175V201Q356 258 324 291T238 325H202V391H237Q287 391 316 422T345 505V525Q345 575 317 605T241 635Q193 635 166 607T139 532V516H69V534Q69 610 115 655T243 700Z" horiz-adv-x="495" unicode="3"/>
			<glyph d="M253 690H326L119 201H305V389H378V201H453V135H378V0H305V135H46V201Z" horiz-adv-x="499" unicode="4"/>
			<glyph d="M77 690H407V623H144V403Q162 423 190 435T251 448Q334 448 376 398T418 255V180Q418 90 371 40T241 -10Q159 -10 112 33T66 150V163H136V156Q136 108 163 82T240 56Q345 56 345 186V251Q345 317 319 349T241 382Q204 382 178 363T141 312H77Z" horiz-adv-x="484" unicode="5"/>
			<glyph d="M261 690H337L188 387Q200 396 220 402T263 408Q340 408 387 357T435 220V186Q435 125 410 81T343 13T247 -10Q161 -10 110 42T59 184V218Q59 255 69 290T100 365ZM247 342Q195 342 164 308T133 217V183Q133 124 163 89T247 55Q300 55 331 89T362 182V216Q362 274 331 308T247 342Z" horiz-adv-x="494" unicode="6"/>
			<glyph d="M40 690H391V624L166 0H93L321 624H40Z" horiz-adv-x="431" unicode="7"/>
			<glyph d="M256 700Q309 700 349 677T411 614T433 526V506Q433 456 410 419T350 364Q396 342 421 299T446 205V180Q446 123 421 80T354 13T255 -10Q200 -10 157 13T90 80T66 179V204Q66 258 91 300T162 364Q124 383 102 419T80 506V526Q80 575 102 614T164 677T256 700ZM256 635Q210 635 181 604T153 527V506Q153 457 181 426T256 395Q303 395 331 426T360 506V527Q360 574 331 604T256 635ZM256 330Q203 330 171 295T139 205V180Q139 125 171 90T256 55Q309 55 341 89T373 180V205Q373 261 341 295T256 330Z" unicode="8"/>
			<glyph d="M247 700Q333 700 384 647T435 506V472Q435 435 424 401T394 325L234 0H158L306 303Q294 294 273 288T231 282Q154 282 106 333T59 470V504Q59 565 83 609T150 676T247 700ZM247 635Q194 635 163 600T132 508V474Q132 416 163 382T247 348Q300 348 330 381T361 473V507Q361 566 330 600T247 635Z" horiz-adv-x="494" unicode="9"/>
			<glyph d="M53 92H141V0H53ZM53 430H141V338H53Z" horiz-adv-x="194" unicode=":"/>
			<glyph d="M53 430H141V338H53ZM75 93H141V-75L75 -137Z" horiz-adv-x="194" unicode=";"/>
			<glyph d="M455 468V397L150 276L455 155V84L57 247V306Z" unicode="&lt;"/>
			<glyph d="M57 405H455V338H57ZM57 213H455V147H57Z" unicode="="/>
			<glyph d="M57 468L455 306V247L57 84V155L362 276L57 397Z" unicode="&gt;"/>
			<glyph d="M211 700Q290 700 336 654T382 533Q382 497 370 467T331 399L274 319Q257 295 251 278T245 236V178H172V237Q172 273 179 295T209 349L263 422Q290 458 299 481T309 533Q309 581 283 607T209 634Q112 634 110 525H38Q40 609 84 654T211 700ZM164 93H253V0H164Z" horiz-adv-x="429" unicode="?"/>
			<glyph d="M436 690Q545 690 631 643T765 511T813 319V252Q813 154 771 105T662 56Q621 56 591 74T546 127Q531 92 498 74T418 56Q341 56 305 103T269 237V317Q269 404 305 451T416 499Q454 499 483 484T528 444V489H593V200Q593 157 612 135T663 113Q702 113 722 145T742 251V318Q742 411 705 480T598 588T436 626Q343 626 273 588T167 480T130 319V248Q130 156 167 85T273 -24T436 -63Q502 -63 552 -50T651 -12L675 -69Q621 -100 564 -114T436 -128Q326 -128 240 -80T106 52T59 249V317Q59 427 107 511T240 643T436 690ZM432 441Q338 441 338 316V242Q338 180 360 147T432 114Q525 114 525 237V319Q525 441 432 441Z" horiz-adv-x="872" unicode="@"/>
			<glyph d="M258 690H319L570 0H493L435 166H142L84 0H7ZM288 588L163 228H414Z" horiz-adv-x="577" unicode="A"/>
			<glyph d="M80 690H333Q430 690 483 642T537 508Q537 455 509 413T431 355Q489 337 518 294T548 189Q548 100 492 50T339 0H80ZM153 625V385H325Q390 385 427 414T464 504Q464 564 428 594T326 625ZM153 320V65H330Q399 65 437 98T475 194Q475 256 437 288T331 320Z" horiz-adv-x="614" unicode="B"/>
			<glyph d="M309 699Q379 699 432 673T515 599T544 488V485H471V488Q471 555 427 594T309 633Q226 633 182 586T139 432V252Q139 59 310 59Q385 59 428 97T471 203V207H542V203Q542 106 479 49T309 -8Q198 -8 132 55T66 256V435Q66 572 132 635T309 699Z" horiz-adv-x="610" unicode="C"/>
			<glyph d="M80 690H316Q426 690 490 626T555 426V264Q555 127 490 63T316 0H80ZM154 624V66H317Q481 66 481 260V423Q481 528 438 576T317 624Z" horiz-adv-x="621" unicode="D"/>
			<glyph d="M80 690H499V624H153V384H449V318H153V66H499V0H80Z" horiz-adv-x="547" unicode="E"/>
			<glyph d="M80 690H499V624H153V382H449V316H153V0H80Z" horiz-adv-x="539" unicode="F"/>
			<glyph d="M307 699Q378 699 431 673T513 599T542 490V486H469V490Q469 556 425 594T308 633Q225 633 182 585T139 432V252Q139 59 309 59Q388 59 429 102T471 239V292H306V355H544V252Q544 116 480 54T307 -8Q197 -8 131 55T66 256V435Q66 572 131 635T307 699Z" horiz-adv-x="610" unicode="G"/>
			<glyph d="M80 690H153V386H476V690H549V0H476V320H153V0H80Z" horiz-adv-x="629" unicode="H"/>
			<glyph d="M88 690H161V0H88Z" horiz-adv-x="249" unicode="I"/>
			<glyph d="M152 690H225V133Q225 68 193 34T100 0H32V66H89Q123 66 137 84T152 142Z" horiz-adv-x="313" unicode="J"/>
			<glyph d="M80 690H153V288L472 690H559L341 421L590 0H505L294 364L153 190V0H80Z" horiz-adv-x="598" unicode="K"/>
			<glyph d="M80 690H153V66H497V0H80Z" horiz-adv-x="529" unicode="L"/>
			<glyph d="M80 690H153L377 225L600 690H673V0H600V540L405 138H349L153 540V0H80Z" horiz-adv-x="753" unicode="M"/>
			<glyph d="M80 690H153L510 136V690H583V0H510L153 556V0H80Z" horiz-adv-x="663" unicode="N"/>
			<glyph d="M306 699Q415 699 479 635T544 435V256Q544 119 479 55T305 -8Q195 -8 130 55T66 256V435Q66 572 131 635T306 699ZM306 633Q223 633 181 585T139 432V252Q139 151 181 105T306 59Q471 59 471 252V432Q471 633 306 633Z" horiz-adv-x="610" unicode="O"/>
			<glyph d="M80 690H328Q429 690 487 636T545 484Q545 391 486 338T328 285H153V0H80ZM153 624V351H322Q394 351 433 384T472 484Q472 555 433 589T322 624Z" horiz-adv-x="577" unicode="P"/>
			<glyph d="M306 699Q415 699 479 635T544 435V256Q544 79 432 20L507 -119L450 -151L369 -2Q339 -8 305 -8Q195 -8 130 55T66 256V435Q66 572 131 635T306 699ZM306 633Q223 633 181 585T139 432V252Q139 151 181 105T306 59Q471 59 471 252V432Q471 633 306 633Z" horiz-adv-x="610" unicode="Q"/>
			<glyph d="M80 690H336Q433 690 488 639T544 496Q544 422 505 374T396 310L559 0H475L319 303H153V0H80ZM153 624V366H330Q397 366 434 399T471 495Q471 559 434 591T330 624Z" horiz-adv-x="599" unicode="R"/>
			<glyph d="M269 699Q361 699 419 651T489 507H417Q405 636 268 636Q197 636 157 602T118 511Q118 460 148 431T241 392L321 378Q408 363 454 318T500 191Q500 97 437 45T264 -6Q160 -6 101 45T33 195H105Q119 58 269 58Q347 58 387 91T428 187Q428 244 396 273T299 313L221 326Q137 340 92 383T47 506Q47 597 108 648T269 699Z" horiz-adv-x="546" unicode="S"/>
			<glyph d="M8 690H474V624H277V0H205V624H8Z" horiz-adv-x="482" unicode="T"/>
			<glyph d="M80 690H154V231Q154 152 198 105T318 59Q392 59 437 105T482 231V690H555V225Q555 157 524 104T440 23T318 -6Q250 -6 196 23T111 105T80 225Z" horiz-adv-x="635" unicode="U"/>
			<glyph d="M7 690H83L262 118L440 690H516L291 0H231Z" horiz-adv-x="523" unicode="V"/>
			<glyph d="M7 690H78L218 118L353 690H446L586 118L721 690H789L616 0H551L398 599L249 0H184Z" horiz-adv-x="796" unicode="W"/>
			<glyph d="M26 690H114L283 419L452 690H537L326 362L559 0H471L281 301L92 0H7L239 359Z" horiz-adv-x="566" unicode="X"/>
			<glyph d="M7 690H86L249 359L413 690H492L286 289V0H213V290Z" horiz-adv-x="499" unicode="Y"/>
			<glyph d="M53 690H477V624L123 66H480V0H40V66L394 624H53Z" horiz-adv-x="516" unicode="Z"/>
			<glyph d="M80 740H236V674H150V-18H236V-84H80Z" horiz-adv-x="295" unicode="["/>
			<glyph d="M59 690H119L333 -10H273Z" horiz-adv-x="392" unicode="\"/>
			<glyph d="M59 740H215V-84H59V-18H145V674H59Z" horiz-adv-x="295" unicode="]"/>
			<glyph d="M227 690H286L459 285H399L256 626L114 285H54Z" unicode="^"/>
			<glyph d="M0 -54H457V-104H0Z" horiz-adv-x="457" unicode="_"/>
			<glyph d="M148 697H232L331 572H268Z" horiz-adv-x="500" unicode="`"/>
			<glyph d="M238 514Q327 514 374 471T422 345V0H355V54Q332 23 298 8T215 -6Q135 -6 91 32T47 143Q47 211 91 249T217 288H354V346Q354 401 324 429T239 457Q187 457 157 433T128 369V366H62V371Q62 436 109 475T238 514ZM227 238Q115 238 115 144Q115 49 226 49Q293 49 323 79T354 172V238Z" horiz-adv-x="497" unicode="a"/>
			<glyph d="M75 690H143V436Q164 474 197 494T275 514Q353 514 402 463T451 306V202Q451 95 403 44T280 -6Q185 -6 143 67V0H75ZM266 452Q205 452 174 409T143 296V207Q143 140 175 97T270 55Q383 55 383 206V302Q383 452 266 452Z" horiz-adv-x="510" unicode="b"/>
			<glyph d="M256 514Q343 514 393 468T444 345V340H378V345Q378 396 346 424T259 452Q197 452 162 418T127 302V206Q127 122 161 88T258 55Q314 55 346 83T378 162V167H444V163Q444 86 393 40T257 -6Q166 -6 112 43T59 202V306Q59 414 112 464T256 514Z" horiz-adv-x="503" unicode="c"/>
			<glyph d="M367 690H436V0H367V67Q347 31 312 12T230 -6Q155 -6 107 44T59 202V306Q59 413 107 463T231 514Q323 514 367 436ZM244 452Q128 452 128 302V206Q128 55 240 55Q303 55 335 97T367 207V296Q367 367 336 409T244 452Z" horiz-adv-x="511" unicode="d"/>
			<glyph d="M252 514Q339 514 391 461T444 300V240H127V210Q127 124 162 89T259 55Q313 55 343 81T374 153V156H440V151Q440 80 390 37T254 -6Q165 -6 112 47T59 212V300Q59 409 112 461T252 514ZM252 452Q195 452 161 418T127 302V291H376V309Q376 388 343 420T252 452Z" horiz-adv-x="503" unicode="e"/>
			<glyph d="M236 690H289V636H247Q183 636 183 567V507H289V453H183V0H114V453H50V507H114V564Q114 622 146 656T236 690Z" horiz-adv-x="327" unicode="f"/>
			<glyph d="M231 517Q324 517 367 440V511H436V40Q436 -52 386 -105T248 -158Q168 -158 120 -122T68 -25H136Q141 -58 170 -78T248 -99Q367 -99 367 34V105Q347 69 312 50T230 31Q155 31 107 81T59 240V310Q59 417 107 467T231 517ZM244 456Q128 456 128 305V244Q128 93 240 93Q303 93 335 135T367 245V300Q367 371 336 413T244 456Z" horiz-adv-x="511" unicode="g"/>
			<glyph d="M75 690H143V445Q189 513 279 513Q358 513 402 466T447 333V0H379V323Q379 386 348 419T262 452Q208 452 175 418T143 323V0H75Z" horiz-adv-x="522" unicode="h"/>
			<glyph d="M83 507H151V0H83ZM81 680H153V590H81Z" horiz-adv-x="234" unicode="i"/>
			<glyph d="M72 690H144V600H72ZM75 507H143V-19Q143 -84 111 -118T18 -152H-30V-90H11Q45 -90 60 -72T75 -15Z" horiz-adv-x="226" unicode="j"/>
			<glyph d="M75 690H143V237L364 507H446L283 315L475 0H392L238 263L143 151V0H75Z" horiz-adv-x="494" unicode="k"/>
			<glyph d="M75 690H143V137Q143 98 158 80T207 62H248V0H200Q139 0 107 34T75 133Z" horiz-adv-x="273" unicode="l"/>
			<glyph d="M279 513Q331 513 368 491T425 428Q475 513 579 513Q660 513 705 465T750 333V0H682V323Q682 386 651 419T566 452Q510 452 478 418T447 326V0H378V323Q378 386 347 419T262 452Q208 452 175 418T143 323V0H75V507H142V445Q164 478 199 495T279 513Z" horiz-adv-x="825" unicode="m"/>
			<glyph d="M279 513Q360 513 403 465T447 333V0H379V323Q379 386 348 419T262 452Q208 452 175 418T143 323V0H75V507H142V445Q164 479 199 496T279 513Z" horiz-adv-x="522" unicode="n"/>
			<glyph d="M254 514Q341 514 393 464T446 306V202Q446 94 393 44T254 -6Q165 -6 112 43T59 202V306Q59 414 112 464T254 514ZM254 452Q195 452 161 418T127 302V206Q127 122 161 88T254 55Q311 55 344 88T378 206V302Q378 385 344 418T254 452Z" horiz-adv-x="505" unicode="o"/>
			<glyph d="M275 513Q353 513 402 463T451 306V202Q451 94 403 44T280 -6Q185 -6 143 67V-152H75V507H143V436Q163 474 197 493T275 513ZM266 452Q205 452 174 409T143 296V207Q143 140 175 97T270 55Q383 55 383 206V301Q383 452 266 452Z" horiz-adv-x="510" unicode="p"/>
			<glyph d="M235 513Q279 513 313 493T367 436V507H436V-152H367V67Q325 -6 230 -6Q155 -6 107 44T59 202V306Q59 413 108 463T235 513ZM244 452Q128 452 128 301V206Q128 55 240 55Q303 55 335 97T367 207V296Q367 367 336 409T244 452Z" horiz-adv-x="511" unicode="q"/>
			<glyph d="M275 514Q294 514 312 511V443Q288 451 260 451Q208 451 175 415T143 321V0H75V507H142V439Q163 477 197 495T275 514Z" horiz-adv-x="337" unicode="r"/>
			<glyph d="M231 514Q315 514 365 475T415 375V369H349V372Q349 412 318 435T233 458Q180 458 150 435T121 372Q121 339 142 320T209 294L275 282Q350 268 385 236T421 145Q421 73 369 33T230 -6Q147 -6 97 34T47 142V146H113V143Q113 101 145 76T233 52Q290 52 322 75T355 141Q355 179 332 197T260 224L197 235Q123 248 89 279T55 369Q55 435 104 474T231 514Z" horiz-adv-x="462" unicode="s"/>
			<glyph d="M182 655V507H296V453H182V129Q182 60 247 60H287V0H236Q178 0 145 33T113 126V453H34V507H113V623Z" horiz-adv-x="340" unicode="t"/>
			<glyph d="M75 507H143V195Q143 125 170 90T261 55Q325 55 352 89T379 195V507H447V186Q447 93 400 43T260 -6Q168 -6 121 43T75 186Z" horiz-adv-x="522" unicode="u"/>
			<glyph d="M14 507H88L220 100L352 507H425L250 0H189Z" horiz-adv-x="439" unicode="v"/>
			<glyph d="M14 507H88L202 101L328 507H385L511 101L626 507H700L546 0H484L356 409L229 0H168Z" horiz-adv-x="714" unicode="w"/>
			<glyph d="M24 507H97L212 319L324 507H397L245 265L407 0H334L210 203L87 0H14L174 261Z" horiz-adv-x="421" unicode="x"/>
			<glyph d="M14 507H88L221 104L354 507H425L230 -55Q212 -106 180 -129T97 -152H67V-90H92Q129 -90 147 -75T178 -26L188 5Z" horiz-adv-x="439" unicode="y"/>
			<glyph d="M59 507H397V444L135 63H397V0H59V63L319 444H59Z" horiz-adv-x="456" unicode="z"/>
			<glyph d="M231 740H281V679H246Q222 679 211 667T200 628V449Q200 393 186 367T140 330Q174 318 187 292T200 212V28Q200 1 211 -11T246 -23H281V-84H231Q180 -84 154 -57T129 26V217Q129 260 113 278T59 298V363Q97 364 113 382T129 444V630Q129 686 154 713T231 740Z" horiz-adv-x="340" unicode="{"/>
			<glyph d="M118 740H185V-83H118Z" horiz-adv-x="303" unicode="|"/>
			<glyph d="M59 740H109Q160 740 185 713T211 630V444Q211 401 227 382T281 363V298Q243 297 227 278T211 217V26Q211 -30 185 -57T109 -84H59V-23H94Q118 -23 129 -11T140 28V212Q140 267 153 292T200 330Q167 342 153 367T140 449V628Q140 655 129 667T94 679H59Z" horiz-adv-x="340" unicode="}"/>
			<glyph d="M174 339Q199 339 219 330T267 304Q291 290 305 283T337 276Q361 276 378 289T415 336L464 305Q442 260 409 236T336 212Q311 212 290 221T243 247Q220 262 205 269T173 276Q149 276 132 263T96 216L47 246Q68 292 101 315T174 339Z" unicode="~"/>
			<glyph d="" horiz-adv-x="217" unicode=" "/>
			<glyph d="M75 507H165V413H75ZM92 311H148L162 -152H78Z" horiz-adv-x="239" unicode="¡"/>
			<glyph d="M217 607H275V513Q353 509 398 463T444 345V340H378V345Q378 392 351 419T275 451V56Q323 60 350 87T378 162V167H444V163Q444 90 398 44T275 -5V-100H217V-3Q144 7 101 56T59 202V306Q59 402 101 452T217 512ZM217 448Q174 438 150 404T127 302V206Q127 137 150 102T217 59Z" horiz-adv-x="503" unicode="¢"/>
			<glyph d="M251 700Q318 700 358 659T399 548H327Q327 587 306 609T250 632Q213 632 193 608T173 539V356H312V290H173V174Q173 138 165 112T140 68H403V0H54V62Q78 77 88 101T99 165V290H33V356H99V528Q99 609 139 654T251 700Z" horiz-adv-x="436" unicode="£"/>
			<glyph d="M121 559L192 489Q241 524 306 524Q370 524 419 489L490 559L537 512L467 442Q503 390 503 327Q503 263 467 213L538 143L491 95L420 166Q370 130 306 130Q241 130 191 166L121 96L75 144L144 213Q109 264 109 327Q109 392 145 441L75 512ZM306 463Q249 463 211 424T173 327Q173 269 211 230T306 191Q363 191 401 230T439 327Q439 385 401 424T306 463Z" horiz-adv-x="613" unicode="¤"/>
			<glyph d="M10 690H92L228 365L363 690H444L283 335H405V278H264V211H405V155H264V0H191V155H49V211H191V278H49V335H172Z" horiz-adv-x="454" unicode="¥"/>
			<glyph d="M118 740H185V388H118ZM118 271H185V-83H118Z" horiz-adv-x="303" unicode="¦"/>
			<glyph d="M258 714Q336 714 374 672T413 557H344Q344 650 259 650Q219 650 196 628T174 566Q174 521 200 496T294 455Q365 439 398 394T431 275Q431 218 405 175T334 117Q376 98 395 65T415 -18Q415 -86 370 -127T254 -168Q175 -168 134 -126T93 -4H162Q162 -56 185 -80T253 -104Q296 -104 319 -81T343 -16Q343 30 315 55T218 96Q147 112 113 157T80 275Q80 333 105 375T180 435Q138 456 120 487T102 566Q102 631 145 672T258 714ZM256 392Q207 392 179 361T152 275Q152 220 180 189T256 159Q304 159 331 189T359 275Q359 331 332 361T256 392ZZ" horiz-adv-x="511" unicode="§"/>
			<glyph d="M126 664H202V578H126ZM297 664H373V578H297Z" horiz-adv-x="500" unicode="¨"/>
			<glyph d="M410 690Q511 690 589 645T711 521T755 340Q755 238 711 158T589 34T410 -10Q309 -10 231 34T109 158T66 340Q66 442 109 521T231 645T410 690ZM410 637Q324 637 259 600T158 496T123 340Q123 251 158 184T259 80T410 43Q496 43 561 80T662 184T698 340Q698 429 662 496T561 600T410 637ZM414 537Q479 537 516 503T554 411V406H502V409Q502 447 479 467T416 488Q370 488 345 463T320 378V307Q320 245 345 220T416 196Q456 196 479 217T502 275V279H554V274Q554 216 516 182T414 148Q346 148 306 185T266 304V381Q266 463 306 500T414 537Z" horiz-adv-x="821" unicode="©"/>
			<glyph d="M157 748Q215 748 246 721T277 641V430H215V461Q201 443 182 434T137 426Q88 426 61 451T35 523Q35 565 63 589T141 613H213V644Q213 671 198 685T157 699Q131 699 117 687T103 654V652H43V654Q43 697 73 722T157 748ZM151 568Q97 568 97 524Q97 479 150 479Q183 479 198 494T213 540V568ZZ" horiz-adv-x="330" unicode="ª"/>
			<glyph d="M220 462V379L107 264L220 149V66L25 264ZM403 462V379L290 264L403 149V66L208 264Z" horiz-adv-x="478" unicode="«"/>
			<glyph d="M56 326H456V130H387V264H56Z" unicode="¬"/>
			<glyph d="M59 380H334V314H59Z" horiz-adv-x="393" unicode="­"/>
			<glyph d="M268 689Q322 689 365 664T432 595T457 498Q457 443 432 399T365 331T268 306Q215 306 172 331T104 400T80 498Q80 552 104 595T172 664T268 689ZM268 658Q201 658 157 613T114 498Q114 427 157 382T268 337Q336 337 380 382T424 498Q424 544 404 580T348 637T268 658ZM198 606H280Q313 606 331 589T350 543Q350 521 340 506T311 484L355 392H316L274 480H234V392H198ZM234 574V512H279Q315 512 315 543Q315 574 279 574Z" horiz-adv-x="537" unicode="®"/>
			<glyph d="M120 652H380V590H120Z" horiz-adv-x="500" unicode="¯"/>
			<glyph d="M206 700Q265 700 305 660T345 560Q345 500 305 460T206 420Q145 420 105 460T66 560Q66 620 105 660T206 700ZM206 652Q167 652 142 626T117 560Q117 521 142 495T206 469Q244 469 269 495T294 560Q294 600 269 626T206 652Z" horiz-adv-x="411" unicode="°"/>
			<glyph d="M223 511H289V345H455V279H289V113H223V279H57V345H223ZM57 62H455V-4H57Z" unicode="±"/>
			<glyph d="M161 854Q214 854 246 824T278 746V735Q278 708 268 685T239 636L132 489H279V430H45V482L184 670Q197 688 203 703T209 735V743Q209 769 195 783T159 798Q135 798 121 783T108 738V727H42V742Q42 793 74 823T161 854Z" horiz-adv-x="321" unicode="²"/>
			<glyph d="M156 854Q209 854 240 824T271 747V737Q271 707 257 685T220 651Q247 640 262 614T277 553V541Q277 489 243 456T156 424Q101 424 70 452T39 531V542H99V532Q99 508 114 493T155 479Q182 479 197 495T212 541V554Q212 583 195 600T151 618H130V674H151Q176 674 190 689T205 731V741Q205 768 191 783T154 798Q129 798 115 784T102 746V736H41V747Q41 796 72 825T156 854Z" horiz-adv-x="319" unicode="³"/>
			<glyph d="M268 697H352L232 572H169Z" horiz-adv-x="500" unicode="´"/>
			<glyph d="M75 507H143V178Q143 117 173 85T255 54Q305 54 338 86T371 178V507H440V0H372V60Q351 26 318 9T243 -8Q179 -8 143 31V-152H75Z" horiz-adv-x="515" unicode="µ"/>
			<glyph d="M297 690H493V-152H426V625H335V-152H268V272Q183 278 131 336T80 481Q80 540 105 587T180 662T297 690Z" horiz-adv-x="613" unicode="¶"/>
			<glyph d="M53 315H141V223H53Z" horiz-adv-x="194" unicode="·"/>
			<glyph d="M251 12H312L259 -150H188Z" horiz-adv-x="500" unicode="¸"/>
			<glyph d="M99 847H168V430H99V774L26 719V793Z" horiz-adv-x="222" unicode="¹"/>
			<glyph d="M165 748Q223 748 256 716T289 617V557Q289 490 256 458T165 426Q107 426 74 458T41 557V617Q41 684 74 716T165 748ZM165 690Q105 690 105 617V557Q105 484 165 484Q225 484 225 557V617Q225 690 165 690ZZ" horiz-adv-x="330" unicode="º"/>
			<glyph d="M75 462L270 264L75 66V149L188 264L75 379ZM257 462L453 264L257 66V149L371 264L257 379Z" horiz-adv-x="478" unicode="»"/>
			<glyph d="M99 690H168V273H99V617L26 562V636ZM551 417H619L503 134H591V232H660V134H699V75H660V0H591V75H434V134ZM465 690H528L155 0H92Z" horiz-adv-x="730" unicode="¼"/>
			<glyph d="M99 690H168V273H99V617L26 562V636ZM559 424Q612 424 644 394T676 316V305Q676 278 666 255T637 206L530 59H677V0H443V52L582 240Q595 258 601 273T607 305V313Q607 339 593 353T557 368Q533 368 519 353T506 308V297H440V312Q440 363 472 393T559 424ZM465 690H528L155 0H92Z" horiz-adv-x="719" unicode="½"/>
			<glyph d="M156 697Q209 697 240 667T271 590V580Q271 550 257 528T220 494Q247 483 262 457T277 396V384Q277 332 243 299T156 267Q101 267 70 295T39 374V385H99V375Q99 351 114 336T155 322Q182 322 197 338T212 384V397Q212 426 195 443T151 461H130V517H151Q176 517 190 532T205 574V584Q205 611 191 626T154 641Q129 641 115 627T102 589V579H41V590Q41 639 72 668T156 697ZM648 417H716L600 134H688V232H757V134H796V75H757V0H688V75H531V134ZM562 690H625L252 0H189Z" horiz-adv-x="827" unicode="¾"/>
			<glyph d="M177 507H266V414H177ZM184 332H257V296Q257 257 248 232T213 174L166 116Q139 83 129 59T120 5Q120 -42 146 -69T221 -96Q317 -96 319 13H392Q390 -72 346 -117T219 -162Q140 -162 93 -116T47 5Q47 42 59 72T104 144L151 204Q172 230 178 248T184 297Z" horiz-adv-x="429" unicode="¿"/>
			<glyph d="M258 690H319L570 0H493L435 166H142L84 0H7ZM288 588L163 228H414ZM163 880H247L346 755H283Z" horiz-adv-x="577" unicode="À"/>
			<glyph d="M258 690H319L570 0H493L435 166H142L84 0H7ZM288 588L163 228H414ZM313 880H397L277 755H214Z" horiz-adv-x="577" unicode="Á"/>
			<glyph d="M258 690H319L570 0H493L435 166H142L84 0H7ZM288 588L163 228H414ZM261 889H316L423 745H361L289 840L216 745H154Z" horiz-adv-x="577" unicode="Â"/>
			<glyph d="M258 690H319L570 0H493L435 166H142L84 0H7ZM288 588L163 228H414ZM234 851Q250 851 263 846T294 831Q309 822 320 817T346 812Q364 812 377 820T412 851V790Q380 753 343 753Q326 753 313 758T281 774Q278 776 268 781T249 788T232 791Q213 791 199 782T165 752V813Q182 833 198 842T234 851Z" horiz-adv-x="577" unicode="Ã"/>
			<glyph d="M258 690H319L570 0H493L435 166H142L84 0H7ZM288 588L163 228H414ZM165 847H241V761H165ZM336 847H412V761H336Z" horiz-adv-x="577" unicode="Ä"/>
			<glyph d="M289 867Q328 867 354 841T380 775Q380 745 363 721T319 689L570 0H493L435 166H142L84 0H7L258 689Q231 698 214 721T198 775Q198 815 223 841T289 867ZM289 829Q267 829 252 813T237 775Q237 752 252 737T289 722Q311 722 326 737T341 775Q341 798 326 813T289 829ZM288 588L163 228H414ZZ" horiz-adv-x="577" unicode="Å"/>
			<glyph d="M382 690H818V624H498V384H767V318H498V66H818V0H425V171H178L86 0H7ZM425 627L212 233H425Z" horiz-adv-x="866" unicode="Æ"/>
			<glyph d="M309 699Q379 699 432 673T515 599T544 488V485H471V488Q471 555 427 594T309 633Q226 633 182 586T139 432V252Q139 59 310 59Q385 59 428 97T471 203V207H542V203Q542 119 494 64T362 -4L314 -150H243L298 -8Q192 -5 129 58T66 256V435Q66 572 132 635T309 699Z" horiz-adv-x="610" unicode="Ç"/>
			<glyph d="M80 690H499V624H153V384H449V318H153V66H499V0H80ZM154 880H238L337 755H274Z" horiz-adv-x="547" unicode="È"/>
			<glyph d="M80 690H499V624H153V384H449V318H153V66H499V0H80ZM304 880H388L268 755H205Z" horiz-adv-x="547" unicode="É"/>
			<glyph d="M80 690H499V624H153V384H449V318H153V66H499V0H80ZM252 889H307L414 745H352L280 840L207 745H145Z" horiz-adv-x="547" unicode="Ê"/>
			<glyph d="M80 690H499V624H153V384H449V318H153V66H499V0H80ZM156 847H232V761H156ZM327 847H403V761H327Z" horiz-adv-x="547" unicode="Ë"/>
			<glyph d="M88 690H161V0H88ZM-1 880H83L182 755H119Z" horiz-adv-x="249" unicode="Ì"/>
			<glyph d="M88 690H161V0H88ZM149 880H233L113 755H50Z" horiz-adv-x="249" unicode="Í"/>
			<glyph d="M88 690H161V0H88ZM97 889H152L259 745H197L125 840L52 745H-10Z" horiz-adv-x="249" unicode="Î"/>
			<glyph d="M88 690H161V0H88ZM1 847H77V761H1ZM172 847H248V761H172Z" horiz-adv-x="249" unicode="Ï"/>
			<glyph d="M128 690H364Q474 690 538 626T603 426V264Q603 127 538 63T364 0H128V316H38V382H128ZM202 624V382H342V316H202V66H365Q529 66 529 260V423Q529 528 486 576T365 624Z" horiz-adv-x="669" unicode="Ð"/>
			<glyph d="M80 690H153L510 136V690H583V0H510L153 556V0H80ZM276 851Q292 851 305 846T336 831Q351 822 362 817T388 812Q406 812 419 820T454 851V790Q422 753 385 753Q368 753 355 758T323 774Q320 776 310 781T291 788T274 791Q255 791 241 782T207 752V813Q224 833 240 842T276 851Z" horiz-adv-x="663" unicode="Ñ"/>
			<glyph d="M306 699Q415 699 479 635T544 435V256Q544 119 479 55T305 -8Q195 -8 130 55T66 256V435Q66 572 131 635T306 699ZM306 633Q223 633 181 585T139 432V252Q139 151 181 105T306 59Q471 59 471 252V432Q471 633 306 633ZM179 880H263L362 755H299Z" horiz-adv-x="610" unicode="Ò"/>
			<glyph d="M306 699Q415 699 479 635T544 435V256Q544 119 479 55T305 -8Q195 -8 130 55T66 256V435Q66 572 131 635T306 699ZM306 633Q223 633 181 585T139 432V252Q139 151 181 105T306 59Q471 59 471 252V432Q471 633 306 633ZM329 880H413L293 755H230Z" horiz-adv-x="610" unicode="Ó"/>
			<glyph d="M306 699Q415 699 479 635T544 435V256Q544 119 479 55T305 -8Q195 -8 130 55T66 256V435Q66 572 131 635T306 699ZM306 633Q223 633 181 585T139 432V252Q139 151 181 105T306 59Q471 59 471 252V432Q471 633 306 633ZM277 889H332L439 745H377L305 840L232 745H170Z" horiz-adv-x="610" unicode="Ô"/>
			<glyph d="M306 699Q415 699 479 635T544 435V256Q544 119 479 55T305 -8Q195 -8 130 55T66 256V435Q66 572 131 635T306 699ZM306 633Q223 633 181 585T139 432V252Q139 151 181 105T306 59Q471 59 471 252V432Q471 633 306 633ZM250 851Q266 851 279 846T310 831Q325 822 336 817T362 812Q380 812 393 820T428 851V790Q396 753 359 753Q342 753 329 758T297 774Q294 776 284 781T265 788T248 791Q229 791 215 782T181 752V813Q198 833 214 842T250 851Z" horiz-adv-x="610" unicode="Õ"/>
			<glyph d="M306 699Q415 699 479 635T544 435V256Q544 119 479 55T305 -8Q195 -8 130 55T66 256V435Q66 572 131 635T306 699ZM306 633Q223 633 181 585T139 432V252Q139 151 181 105T306 59Q471 59 471 252V432Q471 633 306 633ZM181 847H257V761H181ZM352 847H428V761H352Z" horiz-adv-x="610" unicode="Ö"/>
			<glyph d="M133 444L256 321L379 444L424 400L301 277L424 153L379 109L256 232L133 109L89 153L212 277L89 400Z" unicode="×"/>
			<glyph d="M486 710H544L492 620Q544 554 544 435V256Q544 119 479 55T305 -8Q213 -8 155 34L124 -20H66L118 70Q66 136 66 256V435Q66 572 131 635T306 699Q397 699 455 657ZM306 633Q223 633 181 585T139 432V252Q139 184 159 141L419 594Q379 633 306 633ZM451 548L191 96Q231 59 306 59Q471 59 471 252V432Q471 503 451 548Z" horiz-adv-x="610" unicode="Ø"/>
			<glyph d="M80 690H154V231Q154 152 198 105T318 59Q392 59 437 105T482 231V690H555V225Q555 157 524 104T440 23T318 -6Q250 -6 196 23T111 105T80 225ZM191 880H275L374 755H311Z" horiz-adv-x="635" unicode="Ù"/>
			<glyph d="M80 690H154V231Q154 152 198 105T318 59Q392 59 437 105T482 231V690H555V225Q555 157 524 104T440 23T318 -6Q250 -6 196 23T111 105T80 225ZM341 880H425L305 755H242Z" horiz-adv-x="635" unicode="Ú"/>
			<glyph d="M80 690H154V231Q154 152 198 105T318 59Q392 59 437 105T482 231V690H555V225Q555 157 524 104T440 23T318 -6Q250 -6 196 23T111 105T80 225ZM289 889H344L451 745H389L317 840L244 745H182Z" horiz-adv-x="635" unicode="Û"/>
			<glyph d="M80 690H154V231Q154 152 198 105T318 59Q392 59 437 105T482 231V690H555V225Q555 157 524 104T440 23T318 -6Q250 -6 196 23T111 105T80 225ZM193 847H269V761H193ZM364 847H440V761H364Z" horiz-adv-x="635" unicode="Ü"/>
			<glyph d="M7 690H86L249 359L413 690H492L286 289V0H213V290ZM274 880H358L238 755H175Z" horiz-adv-x="499" unicode="Ý"/>
			<glyph d="M80 690H153V564H318Q419 564 477 510T535 358Q535 265 476 212T318 159H153V0H80ZM153 499V225H312Q384 225 423 258T462 358Q462 429 423 464T312 499Z" horiz-adv-x="577" unicode="Þ"/>
			<glyph d="M258 697Q345 697 391 657T438 544Q438 500 422 472T373 427Q405 412 420 388T441 327T446 225Q446 137 434 89T386 18T280 -4H251V58H277Q323 58 344 74T371 123T377 225Q377 292 371 325T342 376T271 393H250V455H277Q326 455 347 476T369 543Q369 590 341 612T259 635Q199 635 171 606T143 515V0H75V506Q75 600 118 648T258 697Z" horiz-adv-x="505" unicode="ß"/>
			<glyph d="M238 514Q327 514 374 471T422 345V0H355V54Q332 23 298 8T215 -6Q135 -6 91 32T47 143Q47 211 91 249T217 288H354V346Q354 401 324 429T239 457Q187 457 157 433T128 369V366H62V371Q62 436 109 475T238 514ZM227 238Q115 238 115 144Q115 49 226 49Q293 49 323 79T354 172V238ZM120 697H204L303 572H240Z" horiz-adv-x="497" unicode="à"/>
			<glyph d="M238 514Q327 514 374 471T422 345V0H355V54Q332 23 298 8T215 -6Q135 -6 91 32T47 143Q47 211 91 249T217 288H354V346Q354 401 324 429T239 457Q187 457 157 433T128 369V366H62V371Q62 436 109 475T238 514ZM227 238Q115 238 115 144Q115 49 226 49Q293 49 323 79T354 172V238ZM270 697H354L234 572H171Z" horiz-adv-x="497" unicode="á"/>
			<glyph d="M238 514Q327 514 374 471T422 345V0H355V54Q332 23 298 8T215 -6Q135 -6 91 32T47 143Q47 211 91 249T217 288H354V346Q354 401 324 429T239 457Q187 457 157 433T128 369V366H62V371Q62 436 109 475T238 514ZM227 238Q115 238 115 144Q115 49 226 49Q293 49 323 79T354 172V238ZM218 706H273L380 562H318L246 657L173 562H111Z" horiz-adv-x="497" unicode="â"/>
			<glyph d="M238 514Q327 514 374 471T422 345V0H355V54Q332 23 298 8T215 -6Q135 -6 91 32T47 143Q47 211 91 249T217 288H354V346Q354 401 324 429T239 457Q187 457 157 433T128 369V366H62V371Q62 436 109 475T238 514ZM227 238Q115 238 115 144Q115 49 226 49Q293 49 323 79T354 172V238ZM191 668Q207 668 220 663T251 648Q266 639 277 634T303 629Q321 629 334 637T369 668V607Q337 570 300 570Q283 570 270 575T238 591Q235 593 225 598T206 605T189 608Q170 608 156 599T122 569V630Q139 650 155 659T191 668Z" horiz-adv-x="497" unicode="ã"/>
			<glyph d="M238 514Q327 514 374 471T422 345V0H355V54Q332 23 298 8T215 -6Q135 -6 91 32T47 143Q47 211 91 249T217 288H354V346Q354 401 324 429T239 457Q187 457 157 433T128 369V366H62V371Q62 436 109 475T238 514ZM227 238Q115 238 115 144Q115 49 226 49Q293 49 323 79T354 172V238ZM122 664H198V578H122ZM293 664H369V578H293Z" horiz-adv-x="497" unicode="ä"/>
			<glyph d="M238 514Q327 514 374 471T422 345V0H355V54Q332 23 298 8T215 -6Q135 -6 91 32T47 143Q47 211 91 249T217 288H354V346Q354 401 324 429T239 457Q187 457 157 433T128 369V366H62V371Q62 436 109 475T238 514ZM227 238Q115 238 115 144Q115 49 226 49Q293 49 323 79T354 172V238ZM246 742Q285 742 311 716T337 650Q337 611 311 585T246 559Q206 559 180 585T155 650Q155 690 180 716T246 742ZM246 704Q224 704 209 688T194 650Q194 627 209 612T246 597Q268 597 283 612T298 650Q298 673 283 688T246 704Z" horiz-adv-x="497" unicode="å"/>
			<glyph d="M238 514Q349 514 395 447Q445 514 547 514Q634 514 686 461T739 300V240H422V210Q422 124 457 89T554 55Q608 55 638 81T669 153V156H735V151Q735 82 687 38T555 -6Q501 -6 458 13T390 75Q338 -6 221 -6Q140 -6 93 32T47 143Q47 211 91 249T217 288H354V346Q354 401 324 429T239 457Q187 457 157 433T128 369V366H62V371Q62 436 109 475T238 514ZM547 452Q490 452 456 418T422 302V291H670V309Q670 388 637 420T547 452ZM227 238Q115 238 115 144Q115 49 226 49Q354 49 354 177V238Z" horiz-adv-x="798" unicode="æ"/>
			<glyph d="M256 514Q343 514 393 468T444 345V340H378V345Q378 396 346 424T259 452Q197 452 162 418T127 302V206Q127 122 161 88T258 55Q314 55 346 83T378 162V167H444V163Q444 99 408 55T309 -1L260 -150H189L245 -6Q159 -3 109 47T59 202V306Q59 414 112 464T256 514Z" horiz-adv-x="503" unicode="ç"/>
			<glyph d="M252 514Q339 514 391 461T444 300V240H127V210Q127 124 162 89T259 55Q313 55 343 81T374 153V156H440V151Q440 80 390 37T254 -6Q165 -6 112 47T59 212V300Q59 409 112 461T252 514ZM252 452Q195 452 161 418T127 302V291H376V309Q376 388 343 420T252 452ZM126 697H210L309 572H246Z" horiz-adv-x="503" unicode="è"/>
			<glyph d="M252 514Q339 514 391 461T444 300V240H127V210Q127 124 162 89T259 55Q313 55 343 81T374 153V156H440V151Q440 80 390 37T254 -6Q165 -6 112 47T59 212V300Q59 409 112 461T252 514ZM252 452Q195 452 161 418T127 302V291H376V309Q376 388 343 420T252 452ZM276 697H360L240 572H177Z" horiz-adv-x="503" unicode="é"/>
			<glyph d="M252 514Q339 514 391 461T444 300V240H127V210Q127 124 162 89T259 55Q313 55 343 81T374 153V156H440V151Q440 80 390 37T254 -6Q165 -6 112 47T59 212V300Q59 409 112 461T252 514ZM252 452Q195 452 161 418T127 302V291H376V309Q376 388 343 420T252 452ZM224 706H279L386 562H324L252 657L179 562H117Z" horiz-adv-x="503" unicode="ê"/>
			<glyph d="M252 514Q339 514 391 461T444 300V240H127V210Q127 124 162 89T259 55Q313 55 343 81T374 153V156H440V151Q440 80 390 37T254 -6Q165 -6 112 47T59 212V300Q59 409 112 461T252 514ZM252 452Q195 452 161 418T127 302V291H376V309Q376 388 343 420T252 452ZM128 664H204V578H128ZM299 664H375V578H299Z" horiz-adv-x="503" unicode="ë"/>
			<glyph d="M83 507H151V0H83ZM-39 697H45L144 572H81Z" horiz-adv-x="234" unicode="ì"/>
			<glyph d="M83 507H151V0H83ZM172 697H256L136 572H73Z" horiz-adv-x="234" unicode="í"/>
			<glyph d="M83 507H151V0H83ZM89 706H144L251 562H189L117 657L44 562H-18Z" horiz-adv-x="234" unicode="î"/>
			<glyph d="M83 507H151V0H83ZM-7 664H69V578H-7ZM164 664H240V578H164Z" horiz-adv-x="234" unicode="ï"/>
			<glyph d="M134 690H216L266 622L365 652L380 598L301 574L357 496Q398 440 417 384T437 267V212Q437 102 387 46T247 -9Q157 -9 108 46T59 207V262Q59 364 104 419T231 474Q272 474 301 460L233 553L131 522L116 576L198 601ZM249 411Q127 411 127 264V207Q127 56 249 56Q368 56 368 206V262Q368 411 249 411Z" horiz-adv-x="496" unicode="ð"/>
			<glyph d="M279 513Q360 513 403 465T447 333V0H379V323Q379 386 348 419T262 452Q208 452 175 418T143 323V0H75V507H142V445Q164 479 199 496T279 513ZM207 668Q223 668 236 663T267 648Q282 639 293 634T319 629Q337 629 350 637T385 668V607Q353 570 316 570Q299 570 286 575T254 591Q251 593 241 598T222 605T205 608Q186 608 172 599T138 569V630Q155 650 171 659T207 668Z" horiz-adv-x="522" unicode="ñ"/>
			<glyph d="M254 514Q341 514 393 464T446 306V202Q446 94 393 44T254 -6Q165 -6 112 43T59 202V306Q59 414 112 464T254 514ZM254 452Q195 452 161 418T127 302V206Q127 122 161 88T254 55Q311 55 344 88T378 206V302Q378 385 344 418T254 452ZM126 697H210L309 572H246Z" horiz-adv-x="505" unicode="ò"/>
			<glyph d="M254 514Q341 514 393 464T446 306V202Q446 94 393 44T254 -6Q165 -6 112 43T59 202V306Q59 414 112 464T254 514ZM254 452Q195 452 161 418T127 302V206Q127 122 161 88T254 55Q311 55 344 88T378 206V302Q378 385 344 418T254 452ZM276 697H360L240 572H177Z" horiz-adv-x="505" unicode="ó"/>
			<glyph d="M254 514Q341 514 393 464T446 306V202Q446 94 393 44T254 -6Q165 -6 112 43T59 202V306Q59 414 112 464T254 514ZM254 452Q195 452 161 418T127 302V206Q127 122 161 88T254 55Q311 55 344 88T378 206V302Q378 385 344 418T254 452ZM224 706H279L386 562H324L252 657L179 562H117Z" horiz-adv-x="505" unicode="ô"/>
			<glyph d="M254 514Q341 514 393 464T446 306V202Q446 94 393 44T254 -6Q165 -6 112 43T59 202V306Q59 414 112 464T254 514ZM254 452Q195 452 161 418T127 302V206Q127 122 161 88T254 55Q311 55 344 88T378 206V302Q378 385 344 418T254 452ZM197 668Q213 668 226 663T257 648Q272 639 283 634T309 629Q327 629 340 637T375 668V607Q343 570 306 570Q289 570 276 575T244 591Q241 593 231 598T212 605T195 608Q176 608 162 599T128 569V630Q145 650 161 659T197 668Z" horiz-adv-x="505" unicode="õ"/>
			<glyph d="M254 514Q341 514 393 464T446 306V202Q446 94 393 44T254 -6Q165 -6 112 43T59 202V306Q59 414 112 464T254 514ZM254 452Q195 452 161 418T127 302V206Q127 122 161 88T254 55Q311 55 344 88T378 206V302Q378 385 344 418T254 452ZM128 664H204V578H128ZM299 664H375V578H299Z" horiz-adv-x="505" unicode="ö"/>
			<glyph d="M256 466Q276 466 290 452T304 418Q304 398 290 384T256 370Q236 370 222 384T208 418Q208 438 222 452T256 466ZM57 309H455V243H57ZM256 184Q276 184 290 170T304 136Q304 116 290 102T256 88Q236 88 222 102T208 136Q208 156 222 170T256 184Z" unicode="÷"/>
			<glyph d="M402 533H446L400 457Q446 405 446 306V202Q446 94 393 44T254 -6Q183 -6 136 24L103 -30H59L107 49Q59 102 59 202V306Q59 414 112 464T254 514Q324 514 371 482ZM254 452Q195 452 161 418T127 302V206Q127 149 145 111L337 426Q307 452 254 452ZM361 394L170 80Q199 55 254 55Q311 55 344 88T378 206V302Q378 358 361 394Z" horiz-adv-x="505" unicode="ø"/>
			<glyph d="M75 507H143V195Q143 125 170 90T261 55Q325 55 352 89T379 195V507H447V186Q447 93 400 43T260 -6Q168 -6 121 43T75 186ZM135 697H219L318 572H255Z" horiz-adv-x="522" unicode="ù"/>
			<glyph d="M75 507H143V195Q143 125 170 90T261 55Q325 55 352 89T379 195V507H447V186Q447 93 400 43T260 -6Q168 -6 121 43T75 186ZM285 697H369L249 572H186Z" horiz-adv-x="522" unicode="ú"/>
			<glyph d="M75 507H143V195Q143 125 170 90T261 55Q325 55 352 89T379 195V507H447V186Q447 93 400 43T260 -6Q168 -6 121 43T75 186ZM233 706H288L395 562H333L261 657L188 562H126Z" horiz-adv-x="522" unicode="û"/>
			<glyph d="M75 507H143V195Q143 125 170 90T261 55Q325 55 352 89T379 195V507H447V186Q447 93 400 43T260 -6Q168 -6 121 43T75 186ZM137 664H213V578H137ZM308 664H384V578H308Z" horiz-adv-x="522" unicode="ü"/>
			<glyph d="M14 507H88L221 104L354 507H425L230 -55Q212 -106 180 -129T97 -152H67V-90H92Q129 -90 147 -75T178 -26L188 5ZM243 697H327L207 572H144Z" horiz-adv-x="439" unicode="ý"/>
			<glyph d="M75 690H143V436Q164 474 197 494T275 514Q353 514 402 463T451 306V202Q451 95 403 44T280 -6Q185 -6 143 67V-152H75ZM266 452Q205 452 174 409T143 296V207Q143 140 175 97T270 55Q383 55 383 206V302Q383 452 266 452Z" horiz-adv-x="510" unicode="þ"/>
			<glyph d="M14 507H88L221 104L354 507H425L230 -55Q212 -106 180 -129T97 -152H67V-90H92Q129 -90 147 -75T178 -26L188 5ZM95 664H171V578H95ZM266 664H342V578H266Z" horiz-adv-x="439" unicode="ÿ"/>
			<glyph d="M83 507H151V0H83Z" horiz-adv-x="234" unicode="ı"/>
			<glyph d="M305 699Q411 699 471 642V690H845V624H543V458Q544 447 544 424V384H794V318H544V267Q544 244 543 233V66H845V0H471V49Q410 -8 304 -8Q194 -8 130 55T66 256V435Q66 572 130 635T305 699ZM306 633Q223 633 181 585T139 432V252Q139 151 181 105T306 59Q471 59 471 252V432Q471 633 306 633Z" horiz-adv-x="893" unicode="Œ"/>
			<glyph d="M254 514Q365 514 413 439Q438 477 478 495T570 514Q658 514 710 461T763 300V240H446V210Q446 124 481 89T578 55Q632 55 662 81T693 153V156H759V151Q759 80 709 37T573 -6Q463 -6 413 69Q366 -6 254 -6Q165 -6 112 43T59 202V306Q59 414 112 464T254 514ZM254 452Q195 452 161 418T127 302V206Q127 122 161 88T254 55Q311 55 344 88T378 206V302Q378 385 344 418T254 452ZM571 452Q513 452 479 418T446 302V291H694V309Q694 387 661 419T571 452Z" horiz-adv-x="822" unicode="œ"/>
			<glyph d="M269 699Q361 699 419 651T489 507H417Q405 636 268 636Q197 636 157 602T118 511Q118 460 148 431T241 392L321 378Q408 363 454 318T500 191Q500 97 437 45T264 -6Q160 -6 101 45T33 195H105Q119 58 269 58Q347 58 387 91T428 187Q428 244 396 273T299 313L221 326Q137 340 92 383T47 506Q47 597 108 648T269 699ZM138 890H200L273 795L345 890H407L300 746H245Z" horiz-adv-x="546" unicode="Š"/>
			<glyph d="M231 514Q315 514 365 475T415 375V369H349V372Q349 412 318 435T233 458Q180 458 150 435T121 372Q121 339 142 320T209 294L275 282Q350 268 385 236T421 145Q421 73 369 33T230 -6Q147 -6 97 34T47 142V146H113V143Q113 101 145 76T233 52Q290 52 322 75T355 141Q355 179 332 197T260 224L197 235Q123 248 89 279T55 369Q55 435 104 474T231 514ZM96 707H158L231 612L303 707H365L258 563H203Z" horiz-adv-x="462" unicode="š"/>
			<glyph d="M7 690H86L249 359L413 690H492L286 289V0H213V290ZM126 847H202V761H126ZM297 847H373V761H297Z" horiz-adv-x="499" unicode="Ÿ"/>
			<glyph d="M53 690H477V624L123 66H480V0H40V66L394 624H53ZM123 890H185L258 795L330 890H392L285 746H230Z" horiz-adv-x="516" unicode="Ž"/>
			<glyph d="M59 507H397V444L135 63H397V0H59V63L319 444H59ZM93 707H155L228 612L300 707H362L255 563H200Z" horiz-adv-x="456" unicode="ž"/>
			<glyph d="M361 690H393V624H360Q322 624 303 606T278 543L257 410H362V347H247L195 -2Q183 -84 148 -118T41 -152H13V-86H41Q81 -86 99 -69T125 -4L177 347H92V410H187L207 542Q219 621 254 655T361 690Z" horiz-adv-x="406" unicode="ƒ"/>
			<glyph d="M222 706H277L384 562H322L250 657L177 562H115Z" horiz-adv-x="500" unicode="ˆ"/>
			<glyph d="M115 707H177L250 612L322 707H384L277 563H222Z" horiz-adv-x="500" unicode="ˇ"/>
			<glyph d="M214 680H286V590H214Z" horiz-adv-x="500" unicode="˙"/>
			<glyph d="M250 742Q289 742 315 716T341 650Q341 611 315 585T250 559Q210 559 184 585T159 650Q159 690 184 716T250 742ZM250 704Q228 704 213 688T198 650Q198 627 213 612T250 597Q272 597 287 612T302 650Q302 673 287 688T250 704Z" horiz-adv-x="500" unicode="˚"/>
			<glyph d="M195 668Q211 668 224 663T255 648Q270 639 281 634T307 629Q325 629 338 637T373 668V607Q341 570 304 570Q287 570 274 575T242 591Q239 593 229 598T210 605T193 608Q174 608 160 599T126 569V630Q143 650 159 659T195 668Z" horiz-adv-x="500" unicode="˜"/>
			<glyph d="M-126 697H-42L57 572H-6Z" horiz-adv-x="0" unicode="̀"/>
			<glyph d="M24 697H108L-12 572H-75Z" horiz-adv-x="0" unicode="́"/>
			<glyph d="M-28 706H27L134 562H72L0 657L-73 562H-135Z" horiz-adv-x="0" unicode="̂"/>
			<glyph d="M-55 668Q-39 668 -26 663T5 648Q20 639 31 634T57 629Q75 629 88 637T123 668V607Q91 570 54 570Q37 570 24 575T-8 591Q-11 593 -21 598T-40 605T-57 608Q-76 608 -90 599T-124 569V630Q-107 650 -91 659T-55 668Z" horiz-adv-x="0" unicode="̃"/>
			<glyph d="M-124 664H-48V578H-124ZM47 664H123V578H47Z" horiz-adv-x="0" unicode="̈"/>
			<glyph d="M0 742Q39 742 65 716T91 650Q91 611 65 585T0 559Q-40 559 -65 585T-91 650Q-91 690 -65 716T0 742ZM0 704Q-22 704 -37 688T-52 650Q-52 627 -37 612T0 597Q22 597 37 612T52 650Q52 673 37 688T0 704Z" horiz-adv-x="0" unicode="̊"/>
			<glyph d="M0 380H417V314H0Z" horiz-adv-x="417" unicode="–"/>
			<glyph d="M0 380H833V314H0Z" horiz-adv-x="833" unicode="—"/>
			<glyph d="M119 725V495H53V663ZZ" horiz-adv-x="172" unicode="‘"/>
			<glyph d="M53 690H119V522L53 460Z" horiz-adv-x="172" unicode="’"/>
			<glyph d="M53 93H119V-75L53 -137Z" horiz-adv-x="172" unicode="‚"/>
			<glyph d="M118 725V495H52V663ZM255 725V495H189V663ZZ" horiz-adv-x="308" unicode="“"/>
			<glyph d="M53 691H119V523L53 461ZM190 691H256V523L190 461Z" horiz-adv-x="308" unicode="”"/>
			<glyph d="M189 93H255V-75L189 -137ZM53 93H119V-75L53 -137Z" horiz-adv-x="308" unicode="„"/>
			<glyph d="M227 690H300V446H452V381H300V-152H227V381H75V446H227Z" horiz-adv-x="527" unicode="†"/>
			<glyph d="M227 690H300V450H452V384H300V157H452V91H300V-152H227V91H75V157H227V384H75V450H227Z" horiz-adv-x="527" unicode="‡"/>
			<glyph d="M235 430Q288 430 323 395T358 308Q358 255 323 220T235 186Q182 186 147 220T113 308Q113 361 147 395T235 430Z" horiz-adv-x="471" unicode="•"/>
			<glyph d="M53 92H141V0H53ZM523 92H611V0H523ZM288 92H376V0H288Z" horiz-adv-x="664" unicode="…"/>
			<glyph d="M163 697Q226 697 255 661T285 554V415Q285 341 255 304T163 267Q100 267 71 304T42 415V554Q42 625 72 661T163 697ZM570 690H633L260 0H197ZM163 638Q133 638 121 617T110 548V418Q110 368 121 346T163 325Q194 325 205 346T216 418V548Q216 596 204 617T163 638ZM666 424Q729 424 758 388T788 281V142Q788 68 758 31T666 -6Q603 -6 574 31T545 142V281Q545 352 575 388T666 424ZM993 424Q1056 424 1085 388T1115 281V142Q1115 68 1085 31T993 -6Q930 -6 901 31T872 142V281Q872 352 902 388T993 424ZM666 365Q636 365 624 344T613 275V145Q613 95 624 73T666 52Q697 52 708 73T719 145V275Q719 323 707 344T666 365ZM993 365Q963 365 951 344T940 275V145Q940 95 951 73T993 52Q1024 52 1035 73T1046 145V275Q1046 323 1034 344T993 365Z" horiz-adv-x="1157" unicode="‰"/>
			<glyph d="M220 462V379L107 264L220 149V66L25 264Z" horiz-adv-x="295" unicode="‹"/>
			<glyph d="M75 462L270 264L75 66V149L188 264L75 379Z" horiz-adv-x="308" unicode="›"/>
			<glyph d="M292 700Q372 700 419 657T472 541H407Q398 586 370 610T291 634Q226 634 198 594T171 493V440H378L367 384H171V312H353L343 255H171V204Q171 137 199 96T293 56Q389 56 407 149H476Q469 74 419 32T292 -10Q193 -10 145 49T98 206V255H38V312H98V384H38V440H98V492Q98 585 146 642T292 700Z" horiz-adv-x="542" unicode="€"/>
			<glyph d="M40 690H328V637H214V296H155V637H40ZM397 690H451L568 426H571L685 690H739V296H683V557H681L590 354H547L455 557H453V296H397Z" horiz-adv-x="819" unicode="™"/>
			<glyph d="M236 690H289V636H247Q183 636 183 567V507H289V453H183V0H114V453H50V507H114V564Q114 622 146 656T236 690ZM410 507H478V0H410ZM408 680H480V590H408Z" horiz-adv-x="561" unicode="ﬁ"/>
			<glyph d="M236 690H289V636H247Q183 636 183 567V507H289V453H183V0H114V453H50V507H114V564Q114 622 146 656T236 690ZM402 690H470V137Q470 98 485 80T534 62H575V0H527Q466 0 434 34T402 133Z" horiz-adv-x="600" unicode="ﬂ"/>
		</font>
</defs>
</svg>
