<?xml version="1.0" encoding="UTF-8"?>
<svg width="96px" height="32px" viewBox="0 0 96 32" version="1.1" xmlns="http://www.w3.org/2000/svg" xmlns:xlink="http://www.w3.org/1999/xlink">
    <!-- Generator: Sketch 41.1 (35376) - http://www.bohemiancoding.com/sketch -->
    <title>Asset 1-BJxMyfROgx</title>
    <desc>Created with Sketch.</desc>
    <defs></defs>
    <g id="Registration-Flow" stroke="none" stroke-width="1" fill="none" fill-rule="evenodd">
        <g id="Imaged---Step-5" transform="translate(-171.000000, -79.000000)" fill="#FFFFFF">
            <g id="Asset-1-BJxMyfROgx" transform="translate(171.000000, 79.000000)">
                <g id="Asset-1">
                    <g id="Layer_2">
                        <g id="Layer_1-2">
                            <path d="M15.653319,0 L15.653319,10.4568249 C13.8252394,8.88824877 12.1381388,8.22258592 9.84167832,8.22258592 C4.02797203,8.22258592 0,13.0231097 0,19.9625532 C0,26.9496563 4.12454008,31.892635 9.98214094,31.892635 C12.1846154,31.892635 14.1061646,31.131653 15.6528026,29.6112602 L15.6528026,31.3715221 L20.3856697,31.3715221 L20.3856697,0 L15.653319,0 Z M15.1369123,24.2880524 C14.4805594,26.0462193 12.5595266,27.2817021 10.4505218,27.2817021 C7.1227972,27.2817021 4.96731576,24.4776432 4.96731576,20.1526678 C4.96783217,15.6375777 7.12331361,12.8314239 10.5915008,12.8314239 C12.6999892,12.8314239 14.7155245,14.1622259 15.2314147,15.9214403 C15.51234,16.7772177 15.606326,17.9639935 15.606326,20.3888707 C15.606326,22.2915876 15.465347,23.4794108 15.1374287,24.2880524 L15.1369123,24.2880524 Z" id="Shape"></path>
                            <path d="M41.2913609,23.7653682 L41.2913609,15.4469394 C41.2913609,12.7376759 41.0104357,11.691784 39.838709,10.4563011 C38.4795266,8.98252046 35.9956105,8.17492635 32.9023346,8.17492635 C29.7620656,8.17492635 26.6223131,8.93538462 23.5760301,10.5039607 L25.5445724,14.3533879 C28.6843249,12.9754501 30.2309629,12.5946972 32.3864443,12.5946972 C35.2922647,12.5946972 36.466057,13.6421604 36.5109844,16.2084452 L36.5109844,16.9217676 C32.7153954,17.3019967 31.450199,17.4454992 29.9526197,17.7298854 C25.1722431,18.6804583 22.9227757,20.8199018 22.9227757,24.4336498 C22.9227757,28.7114894 26.5779021,31.943437 31.4052717,31.943437 C33.9826573,31.943437 35.9976762,30.9928642 37.4508445,29.1393781 C37.9192254,30.7074304 39.1849381,31.6580033 41.2934266,31.943437 L43.6838731,28.2359411 C41.5258096,27.3293617 41.2913609,26.8543372 41.2913609,23.7653682 L41.2913609,23.7653682 Z M36.5099516,24.1927332 C36.5099516,25.5235352 36.322496,26.0462193 35.6666595,26.6160393 C34.8233674,27.3770213 33.370199,27.9002291 32.1519957,27.9002291 C29.8555352,27.9002291 27.9804626,26.3787889 27.9804626,24.5253028 C27.9804626,23.0064812 28.9647337,22.101473 31.1672082,21.5782651 C32.6203765,21.2456956 33.8385799,21.1032406 36.5099516,20.8178069 L36.5099516,24.1927332 Z" id="Shape"></path>
                            <path d="M51.8782141,23.57473 C51.8782141,26.3787889 52.4410974,27.043928 54.7845508,27.043928 C55.5811942,27.043928 56.4716514,26.9491326 57.4559225,26.7595417 L58.064766,30.9897218 C56.5186444,31.4176105 54.7845508,31.6548609 53.2843895,31.6548609 C48.8789242,31.6543372 47.1448306,29.8003273 47.1448306,25.1914894 L47.1448306,12.8314239 L43.0683163,12.8314239 L43.0683163,8.69394435 L47.147929,8.69394435 L47.147929,1.7110311 L51.8782141,0 L51.8782141,8.69813421 L57.7342657,8.69813421 L57.7342657,12.8356137 L51.8782141,12.8356137 L51.8782141,23.57473 L51.8782141,23.57473 Z" id="Shape"></path>
                            <path d="M67.9400108,23.57473 C67.9400108,26.3787889 68.502894,27.043928 70.8463475,27.043928 C71.6426466,27.043928 72.5331038,26.9491326 73.5177192,26.7595417 L74.1260463,30.9897218 C72.5804411,31.4176105 70.8463475,31.6548609 69.3461861,31.6548609 C64.9407208,31.6543372 63.2081764,29.8003273 63.2081764,25.1914894 L63.2081764,12.8314239 L59.1285637,12.8314239 L59.1285637,8.69394435 L63.2081764,8.69394435 L63.2081764,1.7110311 L67.9400108,0 L67.9400108,8.69813421 L73.7986444,8.69813421 L73.7986444,12.8356137 L67.9400108,12.8356137 L67.9400108,23.57473 L67.9400108,23.57473 Z" id="Shape"></path>
                            <path d="M85.0175793,8.12779051 C78.7845508,8.12779051 74.6135342,12.9283142 74.6135342,20.1531915 C74.6135342,27.1397709 79.0184831,31.9895254 85.3924906,31.9895254 C91.6260355,31.9895254 95.983475,27.0942062 95.983475,20.1531915 C95.983475,13.0231097 91.5315331,8.12779051 85.0175793,8.12779051 L85.0175793,8.12779051 Z M85.2071006,27.2817021 C81.7394298,27.2817021 79.4429693,24.3823241 79.4429693,20.0573486 C79.4429693,15.7323732 81.7864228,12.7376759 85.2540936,12.7376759 C88.6288112,12.7376759 90.8782786,15.637054 90.8782786,20.0573486 C90.8756966,24.3823241 88.5792361,27.2817021 85.2071006,27.2817021 L85.2071006,27.2817021 Z" id="Shape"></path>
                        </g>
                    </g>
                </g>
            </g>
        </g>
    </g>
</svg>